<svg xmlns="http://www.w3.org/2000/svg" xmlns:xlink="http://www.w3.org/1999/xlink" width="213" zoomAndPan="magnify" viewBox="0 0 159.75 107.999999" height="144" preserveAspectRatio="xMidYMid meet" version="1.0"><defs><g/><clipPath id="e7314439a8"><path d="M 0 0.0859375 L 159 0.0859375 L 159 107.914062 L 0 107.914062 Z M 0 0.0859375 " clip-rule="nonzero"/></clipPath><clipPath id="47d2e54afd"><path d="M 63.574219 44.011719 L 119.078125 44.011719 L 119.078125 90.632812 L 63.574219 90.632812 Z M 63.574219 44.011719 " clip-rule="nonzero"/></clipPath><clipPath id="c9ff0091eb"><path d="M 0.574219 0.0117188 L 56.078125 0.0117188 L 56.078125 46.632812 L 0.574219 46.632812 Z M 0.574219 0.0117188 " clip-rule="nonzero"/></clipPath><clipPath id="3951fcf11d"><rect x="0" width="57" y="0" height="47"/></clipPath></defs><g clip-path="url(#e7314439a8)"><path fill="#ffc31e" d="M 9.453125 52.867188 C 4.164062 20.820312 -0.371094 0.0859375 0.761719 0.0859375 C 0.953125 0.0859375 1.035156 0.300781 1.058594 0.574219 C 1.082031 0.429688 1.109375 0.265625 1.140625 0.0859375 C 2.820312 0.863281 34.855469 12.144531 157.605469 36.65625 L 157.605469 53.246094 C 157.6875 54.472656 157.027344 47.988281 157.605469 69.835938 C 158.183594 91.683594 158.863281 104.769531 158.738281 104.898438 C 158.609375 105.027344 126.550781 106.476562 85.042969 106.785156 C 43.53125 107.089844 16.335938 107.238281 16.257812 107.160156 C 16.179688 107.085938 12.070312 84.566406 9.453125 52.867188 Z M 9.453125 52.867188 " fill-opacity="1" fill-rule="nonzero"/></g><path fill="#121212" d="M 68.988281 47.980469 C 69.484375 48.074219 69.96875 48.226562 70.066406 48.320312 C 70.160156 48.417969 70.390625 49.6875 70.574219 51.140625 C 70.757812 52.59375 70.960938 53.878906 71.027344 53.992188 C 71.09375 54.105469 71.867188 54.265625 72.746094 54.34375 C 73.734375 54.433594 74.539062 54.675781 74.84375 54.96875 C 75.316406 55.433594 75.3125 55.519531 74.78125 56.984375 C 74.476562 57.828125 73.777344 59.269531 72.242188 61.859375 L 72.933594 62.414062 C 73.316406 62.722656 74.449219 63.660156 75.449219 64.503906 C 76.449219 65.34375 77.277344 66.160156 77.285156 66.3125 C 77.292969 66.464844 77.074219 66.886719 76.300781 67.90625 L 74.488281 66.21875 C 73.496094 65.296875 72.582031 64.621094 72.464844 64.726562 C 72.347656 64.832031 72.503906 67.050781 72.816406 69.652344 C 73.121094 72.257812 73.4375 74.855469 73.652344 76.472656 L 72.539062 76.472656 C 71.496094 76.472656 71.414062 76.414062 71.285156 75.570312 C 71.207031 75.070312 70.886719 72.597656 70.570312 70.070312 C 70.257812 67.546875 69.914062 65.375 69.808594 65.25 C 69.699219 65.125 68.796875 65.722656 67.800781 66.574219 C 66.804688 67.425781 65.929688 68.128906 65.851562 68.136719 C 65.777344 68.140625 65.367188 67.703125 64.945312 67.160156 C 64.523438 66.617188 64.175781 66.140625 64.171875 66.101562 C 64.164062 66.0625 64.875 65.53125 65.746094 64.921875 C 66.621094 64.308594 68.03125 63.039062 68.890625 62.101562 C 69.746094 61.160156 70.917969 59.597656 71.492188 58.621094 C 72.0625 57.644531 72.4375 56.753906 72.328125 56.644531 C 72.210938 56.535156 70.304688 56.246094 68.078125 56.007812 C 65.632812 55.746094 63.957031 55.441406 63.835938 55.238281 C 63.722656 55.050781 63.628906 54.550781 63.621094 53.367188 L 65.363281 53.523438 C 66.320312 53.609375 67.355469 53.734375 67.660156 53.800781 C 67.96875 53.867188 68.285156 53.867188 68.359375 53.800781 C 68.4375 53.734375 68.3125 52.453125 68.078125 50.957031 C 67.851562 49.457031 67.757812 48.136719 67.875 48.023438 C 67.992188 47.910156 68.492188 47.894531 68.988281 47.980469 Z M 82.34375 49.972656 C 82.859375 50.035156 83.308594 50.132812 83.34375 50.195312 C 83.378906 50.253906 83.597656 52.027344 83.828125 54.132812 C 84.058594 56.238281 84.308594 58.367188 84.519531 59.769531 L 90.234375 60.1875 L 90.375 62.273438 L 87.933594 62.113281 C 86.59375 62.023438 85.339844 61.898438 85.148438 61.835938 C 84.949219 61.769531 84.800781 61.953125 84.800781 62.273438 C 84.800781 62.582031 85.0625 65.242188 85.378906 68.191406 C 85.699219 71.140625 86.011719 73.644531 86.074219 73.757812 C 86.140625 73.875 87.511719 73.96875 89.117188 73.96875 C 91.46875 73.96875 92.074219 74.050781 92.183594 74.386719 C 92.257812 74.613281 92.324219 75.085938 92.324219 75.429688 C 92.320312 76.046875 92.269531 76.054688 89.328125 75.988281 C 87.679688 75.953125 84.304688 75.890625 81.828125 75.851562 C 79.351562 75.8125 77.257812 75.714844 77.171875 75.636719 C 77.089844 75.5625 76.921875 75.089844 76.578125 73.675781 L 83.964844 73.691406 L 83.824219 72.925781 C 83.75 72.503906 83.4375 69.875 83.128906 67.078125 C 82.820312 64.28125 82.570312 61.9375 82.570312 61.859375 C 82.570312 61.78125 82.164062 61.660156 81.664062 61.589844 C 81.164062 61.519531 79.785156 61.394531 76.441406 61.160156 L 76.277344 60.117188 C 76.191406 59.542969 76.160156 59.039062 76.207031 59 C 76.257812 58.960938 77.617188 59.050781 79.226562 59.203125 C 80.835938 59.359375 82.179688 59.453125 82.214844 59.417969 C 82.25 59.378906 82.027344 57.25 81.722656 54.679688 C 81.414062 52.109375 81.21875 49.976562 81.285156 49.933594 C 81.351562 49.890625 81.828125 49.910156 82.34375 49.972656 Z M 93.824219 53.089844 C 94.226562 53.089844 98.566406 53.589844 103.46875 54.203125 C 108.375 54.8125 112.511719 55.375 112.664062 55.453125 C 112.820312 55.53125 112.945312 55.96875 112.945312 56.429688 C 112.945312 57.246094 112.921875 57.261719 111.761719 57.128906 C 111.109375 57.050781 107.191406 56.609375 103.050781 56.148438 C 98.914062 55.683594 95.488281 55.335938 95.4375 55.378906 C 95.390625 55.421875 95.699219 59.464844 96.121094 64.363281 C 96.542969 69.261719 96.9375 73.335938 97 73.410156 C 97.058594 73.488281 101.015625 73.675781 114.476562 74.109375 L 114.617188 75.917969 L 97.109375 75.5 L 97.226562 76.265625 C 97.332031 76.976562 97.269531 77.03125 96.363281 77.03125 C 95.621094 77.03125 95.390625 76.914062 95.390625 76.542969 C 95.386719 76.277344 94.953125 71.480469 94.417969 65.894531 C 93.882812 60.308594 93.371094 55.136719 93.273438 54.410156 C 93.105469 53.125 93.121094 53.089844 93.824219 53.089844 Z M 108.210938 57.605469 L 109.019531 58.0625 C 109.660156 58.425781 109.777344 58.632812 109.601562 59.074219 C 109.476562 59.378906 109.132812 60.195312 108.835938 60.882812 C 108.535156 61.570312 107.960938 62.667969 107.554688 63.320312 C 107.144531 63.972656 106.816406 64.660156 106.820312 64.851562 C 106.828125 65.042969 107.699219 66.074219 108.757812 67.148438 C 109.816406 68.21875 110.9375 69.40625 111.808594 70.488281 L 110.574219 71.742188 L 108.207031 69.097656 C 106.90625 67.648438 105.769531 66.492188 105.683594 66.527344 C 105.597656 66.558594 104.71875 67.519531 103.730469 68.652344 C 102.746094 69.785156 101.464844 71.101562 99.84375 72.4375 L 98.210938 70.765625 L 99.515625 69.769531 C 100.234375 69.21875 101.542969 68 102.425781 67.054688 C 103.304688 66.109375 104.027344 65.210938 104.027344 65.058594 C 104.027344 64.90625 103.117188 64 102.003906 63.039062 C 100.890625 62.082031 99.570312 60.988281 98.160156 59.910156 L 99.429688 58.679688 L 102.214844 61.027344 C 103.75 62.320312 105.097656 63.378906 105.210938 63.382812 C 105.324219 63.386719 106.046875 62.089844 106.816406 60.5 Z M 108.210938 57.605469 " fill-opacity="1" fill-rule="evenodd"/><g clip-path="url(#47d2e54afd)"><g transform="matrix(1, 0, 0, 1, 63, 44)"><g clip-path="url(#3951fcf11d)"><g clip-path="url(#c9ff0091eb)"><path fill="#ffc31e" d="M 0.574219 0.0117188 L 56.121094 0.0117188 L 56.121094 46.632812 L 0.574219 46.632812 Z M 0.574219 0.0117188 " fill-opacity="1" fill-rule="nonzero"/></g></g></g></g><g fill="#000000" fill-opacity="1"><g transform="translate(53.054583, 79.446424)"><g><path d="M 27.007812 -30.652344 L 34.210938 -30.652344 L 34.210938 -26.296875 L 27.007812 -26.296875 Z M 17.335938 -30.652344 L 24.328125 -30.652344 L 24.328125 -26.296875 L 17.335938 -26.296875 Z M 7.871094 -30.652344 L 14.65625 -30.652344 L 14.65625 -26.296875 L 7.871094 -26.296875 Z M 5.023438 -33.082031 L 5.023438 -23.867188 L 37.183594 -23.867188 L 37.183594 -33.082031 Z M 10.550781 -14.070312 L 31.613281 -14.070312 L 31.613281 -10.972656 L 10.550781 -10.972656 Z M 10.550781 -8.917969 L 31.613281 -8.917969 L 31.613281 -5.695312 L 10.550781 -5.695312 Z M 10.550781 -19.261719 L 31.613281 -19.261719 L 31.613281 -16.164062 L 10.550781 -16.164062 Z M 7.496094 -21.441406 L 7.496094 -3.515625 L 34.796875 -3.515625 L 34.796875 -21.441406 Z M 24.414062 -1.382812 C 29.144531 0.0820312 33.875 1.925781 36.597656 3.265625 L 39.863281 1.589844 C 36.683594 0.210938 31.574219 -1.632812 26.839844 -3.097656 Z M 14.65625 -3.140625 C 11.640625 -1.464844 6.574219 0.0820312 2.21875 0.964844 C 2.929688 1.507812 4.019531 2.722656 4.523438 3.308594 C 8.75 2.175781 14.027344 0.210938 17.460938 -1.84375 Z M 14.65625 -3.140625 "/></g></g></g></svg>