<?xml version="1.0" encoding="UTF-8"?> <svg xmlns="http://www.w3.org/2000/svg" width="211" height="143" viewBox="0 0 211 143" fill="none"><path d="M12.4999 70C5.49989 27.5 -0.500085 0 0.999906 0C1.25344 0 1.36063 0.289274 1.39204 0.647794C1.42252 0.456307 1.45823 0.241068 1.49983 0C3.72333 1.03378 46.1062 15.995 208.5 48.5V70.5C208.611 72.1245 207.737 63.5283 208.5 92.5C209.267 121.472 210.166 138.83 210 139C209.83 139.17 167.416 141.094 112.5 141.5C57.5834 141.906 21.6031 142.1 21.4999 142C21.3967 141.9 15.9617 112.034 12.4999 70Z" fill="#FFC31E"></path><path fill-rule="evenodd" clip-rule="evenodd" d="M91.2624 63.5192C91.9186 63.641 92.5601 63.8441 92.6891 63.9696C92.8145 64.0952 93.1168 65.7787 93.3601 67.706C93.6034 69.6333 93.8725 71.339 93.9573 71.4904C94.0458 71.6418 95.0707 71.8522 96.2357 71.9556C97.5408 72.0737 98.6062 72.3949 99.0081 72.7863C99.6348 73.3992 99.6311 73.5173 98.9269 75.4594C98.5214 76.5781 97.5997 78.4869 95.5647 81.9205L96.4827 82.6589C96.9878 83.065 98.4845 84.3093 99.8081 85.428C101.135 86.543 102.227 87.6248 102.238 87.8278C102.249 88.0309 101.961 88.5884 100.936 89.9434L98.5398 87.706C97.2237 86.4802 96.0182 85.5867 95.8633 85.727C95.7085 85.8673 95.9149 88.8062 96.3242 92.2583C96.7297 95.7104 97.1463 99.1588 97.4338 101.304H95.9592C94.5804 101.304 94.4735 101.226 94.3002 100.104C94.197 99.4431 93.773 96.1608 93.3564 92.8121C92.9398 89.4634 92.4863 86.5836 92.3463 86.4211C92.2025 86.255 91.008 87.0451 89.6919 88.1749C88.3757 89.3046 87.2144 90.2351 87.1112 90.2461C87.0117 90.2535 86.4697 89.6739 85.913 88.9539C85.3563 88.2339 84.8955 87.6026 84.8881 87.5509C84.8808 87.4992 85.8209 86.794 86.9748 85.9818C88.1287 85.1695 89.9979 83.4859 91.1333 82.2417C92.2651 80.9975 93.8135 78.9225 94.573 77.6266C95.3288 76.3344 95.8265 75.1529 95.679 75.0089C95.5278 74.8612 93.0025 74.481 90.0605 74.1634C86.8236 73.8164 84.608 73.4103 84.4457 73.1407C84.2946 72.8934 84.1692 72.2325 84.1619 70.6597L86.466 70.8664C87.7342 70.9809 89.102 71.147 89.5075 71.2356C89.9131 71.3242 90.3296 71.3242 90.4292 71.2356C90.5324 71.147 90.3665 69.4487 90.0605 67.4623C89.7582 65.476 89.6366 63.7259 89.7877 63.5746C89.9426 63.4232 90.6061 63.401 91.2624 63.5192V63.5192ZM108.929 66.159C109.611 66.2403 110.208 66.3732 110.252 66.4544C110.3 66.5319 110.588 68.8838 110.894 71.675C111.2 74.4662 111.532 77.2906 111.812 79.1514L119.369 79.7053L119.554 82.4743L116.328 82.2602C114.555 82.142 112.896 81.9759 112.641 81.891C112.376 81.8024 112.18 82.046 112.18 82.4743C112.18 82.8804 112.527 86.4101 112.947 90.32C113.368 94.2299 113.784 97.5527 113.869 97.7041C113.954 97.8555 115.768 97.981 117.895 97.981C121.006 97.981 121.803 98.0881 121.95 98.5348C122.05 98.8376 122.134 99.4615 122.134 99.9194C122.131 100.735 122.061 100.75 118.171 100.661C115.993 100.613 111.528 100.529 108.251 100.477C104.973 100.425 102.201 100.296 102.09 100.196C101.98 100.097 101.758 99.4689 101.305 97.5934L111.074 97.6118L110.89 96.5965C110.791 96.039 110.378 92.55 109.968 88.8431C109.563 85.1363 109.231 82.0239 109.231 81.9205C109.231 81.8171 108.693 81.6584 108.033 81.5661C107.373 81.4738 105.548 81.3076 101.121 80.9975L100.907 79.613C100.792 78.8524 100.748 78.1841 100.815 78.1324C100.881 78.077 102.68 78.1989 104.807 78.4019C106.934 78.605 108.715 78.7305 108.759 78.6825C108.807 78.6346 108.512 75.8101 108.107 72.4023C107.701 68.9945 107.443 66.1627 107.532 66.1073C107.62 66.052 108.247 66.0741 108.929 66.159V66.159ZM124.122 70.2905C124.652 70.2905 130.393 70.955 136.881 71.7673C143.37 72.5795 148.844 73.3253 149.047 73.4287C149.25 73.5321 149.416 74.1118 149.416 74.721C149.416 75.8064 149.386 75.8249 147.849 75.6477C146.986 75.548 141.803 74.9609 136.328 74.3481C130.853 73.7315 126.323 73.2737 126.256 73.329C126.193 73.3844 126.599 78.7453 127.156 85.2434C127.716 91.7414 128.24 97.1429 128.321 97.2426C128.398 97.3423 133.633 97.5934 151.443 98.1656L151.628 100.565L128.468 100.012L128.619 101.027C128.759 101.968 128.678 102.042 127.48 102.042C126.499 102.042 126.19 101.887 126.19 101.396C126.186 101.042 125.611 94.684 124.907 87.274C124.199 79.864 123.521 73.0078 123.392 72.0442C123.167 70.3421 123.189 70.2905 124.122 70.2905V70.2905ZM143.152 76.2827L144.221 76.8882C145.069 77.3682 145.228 77.6414 144.992 78.2284C144.826 78.6346 144.372 79.7163 143.978 80.6283C143.583 81.5402 142.824 82.9949 142.286 83.8588C141.744 84.7228 141.309 85.6347 141.316 85.8895C141.324 86.1442 142.474 87.514 143.875 88.9354C145.276 90.3569 146.758 91.9334 147.915 93.3659L146.282 95.0274L143.148 91.5236C141.427 89.6 139.923 88.0641 139.808 88.1121C139.694 88.1564 138.533 89.4265 137.228 90.9292C135.923 92.4318 134.23 94.1782 132.085 95.9504L129.924 93.7351L131.65 92.4134C132.601 91.6823 134.334 90.0652 135.499 88.8136C136.664 87.5583 137.618 86.3694 137.618 86.1664C137.618 85.9633 136.413 84.7597 134.942 83.4896C133.471 82.2196 131.723 80.7649 129.854 79.336L131.535 77.7041L135.222 80.8203C137.25 82.5334 139.034 83.9401 139.185 83.9438C139.336 83.9474 140.291 82.2269 141.309 80.1188L143.152 76.2827Z" fill="#121212"></path></svg> 