<?xml version="1.0" encoding="UTF-8"?> <svg xmlns="http://www.w3.org/2000/svg" width="278" height="279" viewBox="0 0 278 279" fill="none"><path d="M139 0.165588L142.968 86.2208L159.717 1.71811L150.814 87.4035L179.971 6.34097L158.397 89.7424L199.31 13.9309L165.547 93.1855L217.301 24.3184L172.103 97.6556L233.544 37.2714L177.92 103.053L247.675 52.5005L182.868 109.257L259.378 69.6656L186.835 116.129L268.391 88.3832L189.734 123.516L274.515 108.235L191.5 131.252L277.611 128.778L192.093 139.166L277.611 149.553L191.5 147.079L274.515 170.096L189.734 154.815L268.391 189.948L186.835 162.202L259.378 208.666L182.868 169.074L247.675 225.831L177.92 175.278L233.544 241.06L172.103 180.676L217.301 254.013L165.547 185.146L199.31 264.4L158.397 188.589L179.971 271.99L150.814 190.928L159.717 276.613L142.968 192.11L139 278.166L135.032 192.11L118.283 276.613L127.186 190.928L98.029 271.99L119.603 188.589L78.6902 264.4L112.453 185.146L60.6985 254.013L105.897 180.676L44.456 241.06L100.08 175.278L30.3254 225.831L95.1323 169.074L18.6225 208.666L91.1646 162.202L9.60855 189.948L88.2655 154.815L3.48502 170.096L86.4997 147.079L0.388672 149.553L85.9067 139.166L0.388672 128.778L86.4997 131.252L3.48502 108.235L88.2655 123.516L9.60855 88.3832L91.1646 116.129L18.6225 69.6656L95.1323 109.257L30.3254 52.5005L100.08 103.053L44.456 37.2714L105.897 97.6556L60.6985 24.3184L112.453 93.1855L78.6902 13.9309L119.603 89.7424L98.029 6.34097L127.186 87.4035L118.283 1.71811L135.032 86.2208L139 0.165588Z" fill="#F0B90B"></path></svg> 