<?xml version="1.0" encoding="UTF-8"?> <svg xmlns="http://www.w3.org/2000/svg" width="1200" height="440" viewBox="0 0 1200 440" fill="none"><path opacity="0.2" d="M1694.73 294.683C1694.73 294.683 1658.99 55.4248 1602.9 56.9372C1546.8 58.4496 1551.16 307.545 1469.1 292.341C1387.03 277.135 1284.65 31.5263 1258.86 47.3949C1233.07 63.2634 1191.74 226.494 1162.94 222.212C1134.14 217.933 1097.54 67.1993 1088.98 72.7699C1080.42 78.3405 974.602 343.895 922.552 309.614C870.502 275.336 816.318 69.7294 774.928 106.809C733.537 143.888 668.653 243.695 627.532 219.798C586.41 195.901 518.059 52.4888 493.325 106.818C468.592 161.149 350.279 217.443 318.093 190.494C285.908 163.548 238.706 -26.7967 191.712 4.25276C144.718 35.3022 204.399 183.445 139.745 190.528C75.0907 197.611 43.6176 143.951 36.2192 94.422C28.8208 44.8929 -105.45 57.223 -90.1514 159.643C-74.8523 262.064 -25.8955 464.16 67.505 429.61C160.905 395.061 86.7319 181.283 175.765 211.754C264.797 242.225 181.871 248.018 268.056 308.817C354.241 369.616 459.226 129.934 486.252 185.115C513.264 240.299 623.095 472.782 671.54 420.058C719.985 367.334 707.57 284.224 741.458 291.178C775.346 298.132 709.19 452.198 876.094 438.422C1043 424.647 1114.13 272.413 1149.52 289.441C1184.92 306.469 1175.51 400.563 1243.88 386.917C1312.23 373.275 1694.73 294.683 1694.73 294.683Z" fill="white" fill-opacity="0.13"></path></svg> 