<?xml version="1.0" encoding="UTF-8"?> <svg xmlns="http://www.w3.org/2000/svg" width="1200" height="1197" viewBox="0 0 1200 1197" fill="none"><g clip-path="url(#clip0_7_2468)"><path d="M1201 0H0V1197H1201V0Z" fill="#181818"></path><mask id="mask0_7_2468" style="mask-type:luminance" maskUnits="userSpaceOnUse" x="0" y="0" width="1201" height="1197"><path d="M1201 0H0V1197H1201V0Z" fill="white"></path></mask><g mask="url(#mask0_7_2468)"><path d="M-195.84 761.139C-182.103 752.13 -173.086 743.043 -167.309 736.253C-160.504 728.255 -154.513 719.115 -141.163 705.55C-137.678 702.01 -136.076 700.59 -134.003 698.557C-107.566 672.638 -104.552 645.085 -93.3585 645.109C-81.8265 645.133 -72.7398 674.402 -65.8965 671.917C-65.4089 671.74 -65.296 671.797 -64.7795 671.184C-58.9235 664.239 -47.6341 673.088 -39.167 679.073C-30.7 685.058 -18.7956 655.602 -8.94264 659.358C0.910363 663.114 11.7049 668.046 18.1615 660.799C24.6181 653.55 93.0295 524.327 113.266 518.327C133.503 512.328 198.314 659.538 217.965 654.11C237.615 648.683 247.507 648.803 251.691 655.959C255.875 663.114 270.665 632.524 283.695 638.245C296.729 643.965 323.655 704.102 342.638 711.176C356.262 716.254 369.43 707.367 381.615 712.304C390.587 715.94 394.74 724.922 395.506 726.237C403.791 740.479 397.807 752.159 406.404 758.759C410.901 762.211 413.283 759.588 420.136 762.963C431.803 768.709 429.341 778.5 437.767 785.165C451.888 796.34 472.505 779.666 506.884 789.891C513.319 791.804 513.488 792.654 513.471 792.929C513.168 797.822 443.133 797.781 372.3 797.738C344.082 797.722 309.161 797.501 309.125 798.706C309.092 799.78 336.895 800.3 336.936 802.311C336.998 805.418 270.693 807.611 227.191 808.03C211.066 808.186 173.852 808.317 173.062 802.763C172.55 799.163 187.33 794.631 186.864 792.247C186.181 788.761 164.739 790.865 164.739 790.865C106.798 796.52 -150.625 807.846 -151.504 801.519C-151.845 799.055 -113.826 789.951 -113.857 789.833C-113.912 789.62 -244.759 795.285 -256.349 791.555C-256.855 791.392 -258.268 790.937 -258.381 790.102C-258.698 787.717 -247.886 786.254 -238.437 781.265C-221.392 772.269 -220.448 757.962 -208.676 756.966C-205.664 756.712 -201.333 757.275 -195.84 761.139Z" fill="#FFCB3C"></path><path d="M127.544 648.114C157.276 665.367 152.76 678.869 154.266 708.876C155.772 738.882 188.888 748.633 193.404 766.638C196.736 779.918 199.654 798.818 200.958 807.832C210.612 808.155 220.64 808.097 227.191 808.033C270.693 807.611 336.998 805.421 336.936 802.314C336.895 800.303 309.094 799.783 309.125 798.708C309.161 797.504 344.082 797.724 372.3 797.741C443.135 797.784 513.168 797.825 513.473 792.931C513.49 792.656 513.322 791.806 506.887 789.893C472.507 779.669 451.891 796.343 437.769 785.168C429.345 778.503 431.805 768.711 420.139 762.966C413.286 759.59 410.903 762.214 406.406 758.762C397.81 752.162 403.791 740.481 395.508 726.239C394.745 724.925 390.589 715.943 381.618 712.306C369.432 707.367 356.265 716.256 342.64 711.179C323.657 704.102 296.729 643.967 283.698 638.248C270.665 632.529 255.875 663.119 251.691 655.961C247.507 648.806 237.615 648.683 217.965 654.113C198.314 659.543 133.503 512.328 113.266 518.33C113.266 518.33 97.8118 630.86 127.544 648.114Z" fill="#F0B90B"></path><path d="M408.203 759.882L408.196 759.884L408.214 759.889L408.203 759.882Z" fill="black" stroke="#010101" stroke-width="1.21232" stroke-miterlimit="10" stroke-linecap="round" stroke-linejoin="round"></path><path d="M381.623 786.047C381.623 786.047 405.655 784.076 407.348 788.577C409.041 793.078 420.05 792.235 420.895 793.36C421.743 794.485 419.954 789.515 421.46 786.14C422.966 782.764 431.81 790.454 441.029 792.328C450.214 794.196 471.561 787.09 471.726 787.035C457.033 788.558 446.234 791.862 437.769 785.163C429.345 778.498 431.805 768.707 420.139 762.961C416.101 760.974 413.617 761.063 411.338 760.771C416.548 762.504 426.146 766.986 423.434 775.918C419.766 788.017 392.307 777.328 381.623 786.047Z" fill="#2B2B2B"></path><path d="M342.64 711.176C333.275 707.685 321.974 691.275 311.364 674.859C311.364 674.859 330.578 707.843 330.578 719.375C330.578 730.91 304.329 729.222 307.999 744.412C311.669 759.602 305.741 788.576 305.741 788.576C305.741 788.576 315.337 761.289 318.443 745.537C321.546 729.784 347.798 737.941 359.932 721.063C363.61 715.95 368.376 712.756 373.271 710.776C363.497 710.675 353.207 715.114 342.64 711.176Z" fill="#2B2B2B"></path><path d="M269.61 728.379C269.61 728.379 231.507 683.652 232.353 668.742C233.025 656.902 238.144 653.404 242.628 650.491C237.027 649.753 229.047 651.048 217.962 654.11C215.699 654.735 212.834 653.318 209.512 650.364L209.51 650.376C209.51 650.376 219.742 661.802 220.307 673.806C220.876 685.807 269.61 728.379 269.61 728.379Z" fill="#2B2B2B"></path><path d="M12.3895 697.997C13.1414 726.879 55.2917 744.508 55.2917 744.508C55.2917 744.508 31.2068 720.877 30.8297 713.001C30.8153 712.687 30.9666 712.251 31.202 711.694C33.2125 706.932 41.9533 704.203 47.5764 706.623C55.491 710.03 57.917 723.939 58.6088 723.671C58.6689 723.647 58.6761 723.534 58.6785 723.501C59.4135 709.944 57.1724 705.871 57.1724 705.871C51.6406 695.821 37.1494 703.312 24.8679 691.617C23.6525 690.461 14.7243 681.737 15.7764 671.927C15.7764 671.927 15.8652 671.099 18.1615 660.797C11.705 668.046 0.910377 663.112 -8.94263 659.356C-8.94263 659.361 11.6377 669.116 12.3895 697.997Z" fill="#F0B90B"></path></g><mask id="mask1_7_2468" style="mask-type:luminance" maskUnits="userSpaceOnUse" x="0" y="0" width="1201" height="1197"><path d="M1201 0H0V1197H1201V0Z" fill="white"></path></mask><g mask="url(#mask1_7_2468)"><path d="M-27.4839 769.589C-12.4954 767.784 230.251 763.494 230.251 763.494C230.251 763.494 727.196 750.121 885.982 756.334C1044.77 762.546 1059.71 773.111 1104.12 772.194C1148.54 771.277 1233.28 769.793 1233.28 769.793V1229.56H-27.4839V769.589Z" fill="#121212"></path><path d="M1233.28 769.793C1233.28 769.793 1148.54 771.277 1104.12 772.194C1059.71 773.111 1044.77 762.546 885.982 756.334C839.312 754.507 763.425 754.373 679.533 755.096C679.869 755.872 680.186 756.641 680.559 757.426C686.806 770.61 819.622 874.976 1034.7 845.238C1105.35 835.47 1173.54 837.124 1233.28 843.751V769.793Z" fill="#222222"></path><path d="M389.35 905.152C204.297 890.68 313.922 811.623 559.491 756.571C391.404 759.158 230.249 763.494 230.249 763.494C230.249 763.494 -12.4976 767.786 -27.4861 769.589V1229.56H432.005C730.006 1079.95 661.727 926.454 389.35 905.152Z" fill="#121212"></path></g><mask id="mask2_7_2468" style="mask-type:luminance" maskUnits="userSpaceOnUse" x="0" y="0" width="1201" height="1197"><path d="M1201 0H0V1197H1201V0Z" fill="white"></path></mask><g mask="url(#mask2_7_2468)"><path d="M1036.86 749.393C1050.6 740.384 1059.61 731.297 1065.39 724.507C1072.19 716.511 1078.19 707.369 1091.54 693.804C1095.02 690.264 1096.62 688.844 1098.7 686.811C1125.13 660.892 1128.15 633.339 1139.34 633.363C1150.87 633.387 1159.96 662.656 1166.8 660.171C1167.29 659.994 1167.4 660.051 1167.92 659.438C1173.78 652.493 1185.06 661.342 1193.53 667.327C1202 673.312 1213.9 643.856 1223.76 647.612C1233.61 651.368 1244.4 656.3 1250.86 649.053C1257.32 641.804 1325.73 512.581 1345.97 506.582C1366.2 500.58 1431.01 647.792 1450.66 642.364C1470.31 636.937 1480.21 637.057 1484.39 644.215C1488.57 651.371 1503.36 620.78 1516.39 626.502C1529.43 632.221 1556.35 692.358 1575.34 699.433C1588.96 704.51 1602.13 695.624 1614.32 700.56C1623.29 704.197 1627.44 713.179 1628.21 714.493C1636.49 728.735 1630.51 740.415 1639.11 747.016C1643.6 750.468 1645.98 747.844 1652.84 751.22C1664.5 756.965 1662.04 766.757 1670.47 773.422C1684.59 784.597 1705.21 767.922 1739.59 778.147C1746.02 780.06 1746.19 780.91 1746.17 781.185C1745.87 786.079 1675.83 786.038 1605 785.995C1576.78 785.978 1541.86 785.758 1541.82 786.962C1541.79 788.037 1569.59 788.556 1569.63 790.567C1569.7 793.675 1503.39 795.865 1459.89 796.287C1443.77 796.442 1406.55 796.574 1405.76 791.02C1405.25 787.419 1420.03 782.887 1419.56 780.503C1418.88 777.017 1397.44 779.122 1397.44 779.122C1339.5 784.776 1082.07 796.102 1081.2 789.775C1080.86 787.312 1118.88 778.207 1118.84 778.09C1118.79 777.877 987.942 783.541 976.353 779.811C975.846 779.648 974.433 779.193 974.321 778.358C974.003 775.974 984.815 774.511 994.264 769.522C1011.31 760.525 1012.25 746.219 1024.03 745.223C1027.03 744.964 1031.37 745.529 1036.86 749.393Z" fill="#FFCB3C"></path><path d="M1159.52 658.544C1159.52 658.544 1162.98 670.82 1168.88 675.749C1168.97 675.821 1169.13 675.946 1169.28 675.898C1170.6 675.481 1167.36 662.436 1169.63 664.871C1172.08 667.497 1174.34 661.682 1176.41 661.871C1178.48 662.058 1189.01 666.935 1194.28 672.187C1199.55 677.437 1217.05 710.446 1217.05 709.32C1217.05 708.195 1199.17 673.032 1200.44 669.798C1200.97 668.45 1201.79 666.446 1202.49 664.471C1199.28 667.538 1196.23 669.235 1193.53 667.33C1185.06 661.345 1173.78 652.496 1167.92 659.441C1167.4 660.054 1167.29 659.997 1166.8 660.174C1163.41 661.407 1159.47 654.843 1154.96 647.905C1157.31 651.953 1158.68 655.573 1159.52 658.544Z" fill="#F0B90B"></path><path d="M1098.69 686.814C1096.62 688.847 1095.02 690.266 1091.53 693.807C1078.18 707.371 1072.19 716.512 1065.39 724.51C1059.61 731.299 1050.59 740.385 1036.86 749.396C1031.36 745.529 1027.03 744.967 1024.02 745.22C1012.25 746.216 1011.3 760.521 994.262 769.52C984.813 774.509 974.001 775.971 974.318 778.356C974.429 779.191 975.844 779.646 976.35 779.809C982.874 781.908 1027.2 781.032 1064.7 779.902C1075.61 760.47 1094.97 735.553 1120.74 740.827C1161.97 749.266 1145.64 777.398 1145.64 777.398C1145.64 777.398 1160.79 782.461 1169.26 755.457C1177.72 728.453 1142.16 728.453 1125.67 705.384C1109.18 682.318 1139.34 633.37 1139.34 633.37C1128.14 633.342 1125.13 660.894 1098.69 686.814Z" fill="#F0B90B"></path></g><mask id="mask3_7_2468" style="mask-type:luminance" maskUnits="userSpaceOnUse" x="0" y="0" width="1201" height="1197"><path d="M1201 0H0V1197H1201V0Z" fill="white"></path></mask><g mask="url(#mask3_7_2468)"><path d="M1084.09 732.284C1084.09 732.284 1079.8 719.753 1035.34 719.753C1003.84 719.753 971.165 728.853 955.117 728.049C944.526 727.517 933.729 726.895 925.483 732.789C923.739 734.034 916.06 739.748 915.138 748.005C913.613 761.663 931.544 773.456 939.722 778.835C979.641 805.085 1048.72 792.857 1072.55 787.884C1076.4 769.35 1080.25 750.818 1084.09 732.284Z" fill="#373737"></path><path d="M929.168 740.354C930.809 743.66 933.597 747.831 938.281 749.676C945.067 752.353 949.46 747.637 954.711 749.102C967.22 752.592 968.244 786.604 969.988 786.448C971.537 786.309 966.308 759.882 976.752 753.504C983.753 749.229 992.826 757.004 1001.72 750.976C1006.62 747.656 1004.9 744.596 1009.48 741.348C1018.92 734.652 1029.25 745.492 1042.28 740.464C1053.02 736.323 1054.37 725.739 1060.34 726.651C1068.16 727.846 1071.58 746.892 1072.89 746.519C1074.07 746.181 1069.02 731.31 1073.47 728.42C1075.52 727.087 1079.54 728.286 1082.01 730.57C1092.48 740.242 1074.13 768.309 1083.84 776.683C1088.45 780.66 1094.86 776.279 1100.85 781.854C1104.27 785.038 1107.43 791.346 1105.46 795.644C1101.58 804.135 1082.51 794.31 1051.98 802.397C1039.51 805.701 1033.57 809.754 1024.55 806.833C1016.07 804.087 1012.67 797.702 1005.44 798.516C999.523 799.184 997.887 803.903 992.47 807.997C981.481 816.299 971.96 809.153 943.138 809.759C920.391 810.237 911.29 815.004 905.578 808.497C901.61 803.977 901.108 796.103 903.675 790.717C906.99 783.762 913.231 785.558 917.237 779.556C924.729 768.333 910.046 751.352 917.019 743.43C918.537 741.704 921.693 739.708 929.168 740.354Z" fill="#2B2B2B"></path><path d="M1062.99 727.812L1067.24 799.584C1068.48 799.45 1069.68 799.352 1070.86 799.265L1072.89 746.518C1071.74 746.844 1068.95 732.181 1062.99 727.812Z" fill="#191919"></path><path d="M1054.26 730.213C1053.73 730.865 1053.17 731.568 1052.58 732.301C1053.54 731.544 1054.07 730.85 1054.26 730.213Z" fill="#191919"></path><path d="M1050.07 735.195C1048.11 737.216 1045.66 739.16 1042.28 740.464C1033.76 743.751 1026.4 740.273 1019.68 739.33C1014.55 755.678 1006.58 781.203 1000.77 800.317C1002.07 799.405 1003.52 798.732 1005.44 798.514C1011.34 797.851 1014.69 801.969 1020.32 805.002C1027.68 784.516 1041.79 746.873 1050.07 735.195Z" fill="#191919"></path><path d="M983.934 811.717C988.517 795.964 995.888 769.484 1000.87 751.467C997.587 753.38 994.291 753.552 991.089 753.227C988.228 769.827 983.823 796.273 981.431 811.978C982.286 811.93 983.122 811.851 983.934 811.717Z" fill="#191919"></path><path d="M952.292 809.828C952.921 809.849 953.534 809.876 954.142 809.905C950.945 795.047 944.973 767.239 941.459 750.445C940.453 750.344 939.401 750.119 938.279 749.676C933.595 747.831 930.806 743.66 929.166 740.354C927.482 740.208 926.045 740.213 924.77 740.301L952.292 809.828Z" fill="#191919"></path></g><mask id="mask4_7_2468" style="mask-type:luminance" maskUnits="userSpaceOnUse" x="0" y="0" width="1201" height="1197"><path d="M1201 0H0V1197H1201V0Z" fill="white"></path></mask><g mask="url(#mask4_7_2468)"><path d="M289.991 782.843C289.991 782.843 296.695 831.041 291.185 832.08C285.675 833.119 265.025 835.939 265.025 835.939C265.025 835.939 238.826 904.915 255.109 911.561C259.788 913.471 286.119 908.578 301.61 918.475C317.1 928.372 338.576 916.787 352.859 920.799C367.143 924.809 387.272 931.297 419.507 931.417C443.301 931.505 456.349 924.927 474.011 926.301C480.035 926.77 477.287 927.297 495.235 931.417C528.181 938.984 544.882 942.676 556.133 938.292C568.726 933.385 572.63 924.431 581.62 926.392C588.973 927.993 592.528 935.326 595.124 939.058C610.701 961.457 661.775 954.962 697.795 950.028C766.742 940.583 761.232 927.749 797.884 930.349C823.723 932.183 847.724 940.069 862.042 926.284C867.874 920.67 875.519 908.173 887.448 908.181C892.175 908.183 894.166 910.146 896.782 908.973C901.041 907.06 973.91 893.051 968.107 860.518C968.381 845.865 951.696 815.193 951.97 800.542L289.991 782.843Z" fill="#2B2B2B"></path><path d="M292.165 831.173L293.633 841.223L356.205 830.524L347.831 784.387L289.991 782.841C289.991 782.841 295.78 824.484 292.165 831.173Z" fill="#191919"></path><path d="M951.973 800.539L944.198 800.331C946.465 810.1 957.003 852.173 963.416 877.7C967.293 872.66 969.258 866.958 968.109 860.516C968.383 845.864 951.699 815.193 951.973 800.539Z" fill="#191919"></path><path d="M865.645 846.537L875.584 879.287L891.586 852.283L902.633 885.033L935.399 817.235L922.14 873.51L945.199 811.681C945.199 811.681 937.2 823.337 937.2 822.691C937.2 822.044 935.039 812.037 935.039 812.037L905.422 864.274L891.37 836.265L874.292 860.396L881.858 819.028L824.138 834.292L816.428 932.377C822.567 933.164 828.471 933.899 834.015 934.153C834.116 912.492 834.27 874.485 834.15 857.976C835.048 875.545 837.974 915.705 837.974 914.333C837.974 912.609 844.891 845.96 844.891 845.96L853.949 931.515C855.583 930.835 857.144 930.009 858.621 929.008L865.645 846.537Z" fill="#191919"></path><path d="M797.313 930.315C797.507 930.327 797.687 930.334 797.884 930.349C798.617 930.402 799.34 930.473 800.07 930.533L816.428 834.292L797.258 846.973C797.524 849.611 797.399 902.504 797.313 930.315Z" fill="#191919"></path><path d="M590.664 889.38C590.664 888.557 572.505 922.954 571.064 924.965C569.622 926.976 574.811 911.75 574.811 911.75L562.128 925.252L572.793 891.635C572.793 891.635 559.899 922.666 553.044 939.235C554.113 938.974 555.153 938.675 556.133 938.292C568.726 933.384 572.63 924.431 581.62 926.391C588.973 927.993 592.528 935.326 595.124 939.058C596.325 940.784 597.759 942.319 599.359 943.717C596.496 926.061 590.664 890.003 590.664 889.38Z" fill="#191919"></path><path d="M748.043 873.511C748.043 873.511 670.216 891.49 668.489 891.636C666.762 891.782 697.457 900.259 697.457 900.259L700.483 939.825L691.836 920.081C691.836 920.081 695.403 937.325 697.956 950.006C704.874 949.056 711.011 948.072 716.545 947.074C715.659 936.686 714.751 925.714 714.751 924.39C714.751 923.098 720.151 933.969 725.553 945.331C726.836 945.063 728.085 944.795 729.29 944.529C723.576 924 716.481 898.016 716.481 897.245C716.481 895.95 748.043 873.511 748.043 873.511Z" fill="#191919"></path><path d="M676.271 900.259C676.271 900.259 680.535 932.461 683.081 951.967C687.287 951.448 691.389 950.902 695.336 950.365C688.226 931.965 676.271 900.259 676.271 900.259Z" fill="#191919"></path><path d="M290.75 780.408C282.072 791.135 345.929 792.409 322.593 805.554C299.258 818.7 268.52 815.42 265.169 835.082C261.818 854.741 318.342 843.753 311.282 850.341C304.223 856.927 287.858 859.706 301.549 863.072C315.241 866.438 356.464 861.557 380.241 877.642C404.019 893.728 405.863 896.459 442.359 881.968C478.855 867.477 518.77 856.429 553.719 868.349C588.665 880.266 570.441 893.493 674.028 891.425C750.829 889.89 780.153 859.323 899.251 821.558C935.423 810.088 952.431 805.873 951.973 800.544C950.997 789.237 872.563 786.484 757.514 782.782C698.235 780.877 688.553 774.087 652.458 780.41C608.729 788.068 299.428 769.68 290.75 780.408Z" fill="#373737"></path><path d="M303.279 844.672C308.369 839.925 280.419 844.306 265.673 839.757C269.199 847.456 286.523 847.701 298.926 847.801C300.521 846.858 302.044 845.824 303.279 844.672Z" fill="#191919"></path><path d="M289.933 782.313C289.806 787.609 308.587 790.45 319.725 794.384C319.425 789.007 300.939 786.124 289.933 782.313Z" fill="#191919"></path><path d="M943.936 795.155C943.772 800.352 926.776 804.623 891.25 815.887C772.154 853.652 742.83 884.219 666.027 885.753C562.44 887.822 580.667 874.595 545.718 862.677C510.768 850.76 470.854 861.808 434.358 876.299C397.862 890.79 396.015 888.056 372.24 871.973C350.747 857.434 315.005 860.025 298.223 858.169C295.336 859.989 295.011 861.464 301.552 863.07C315.243 866.436 356.466 861.555 380.244 877.64C404.021 893.725 405.866 896.457 442.362 881.966C478.858 867.475 518.772 856.427 553.721 868.344C588.668 880.261 570.444 893.488 674.03 891.42C750.832 889.885 780.155 859.319 899.254 821.553C935.425 810.084 952.434 805.868 951.973 800.539C951.795 798.477 949.013 796.703 943.936 795.155Z" fill="#191919"></path><path d="M268.087 911.977C271.75 911.946 275.872 911.999 280.095 912.348C288.865 894.379 299.611 872.155 299.503 871.389C299.376 870.472 279.643 896.591 268.087 911.977Z" fill="#191919"></path><path d="M314.085 922.441C312.555 905.956 310.06 879.242 310.06 880.436C310.06 881.545 306.301 903.818 303.62 919.566C306.923 921.249 310.439 922.13 314.085 922.441Z" fill="#191919"></path><path d="M482.141 886.254L484.303 873.511L477.385 891.636L469.171 875.266C469.171 875.266 478.683 907.154 478.25 907.707C478.017 908.006 474.998 917.529 472.279 926.21C472.855 926.239 473.427 926.253 474.013 926.298C480.037 926.768 477.289 927.292 495.237 931.414C495.621 931.503 495.975 931.582 496.354 931.671L484.087 890.345L507.218 868.85L482.141 886.254Z" fill="#191919"></path><path d="M451.417 927.972C452.933 927.713 454.432 927.469 455.919 927.247C457.74 913.531 460.658 891.547 460.953 889.486C461.215 887.671 455.835 909.588 451.417 927.972Z" fill="#191919"></path><path d="M439.77 929.896V889.486L427.642 931.179C432.012 930.914 436.009 930.447 439.77 929.896Z" fill="#191919"></path><path d="M466.144 903.189L458.23 926.911C461.198 926.514 464.165 926.231 467.213 926.145L466.144 903.189Z" fill="#191919"></path><path d="M395.021 889.666C395.195 889.452 395.28 889.342 395.235 889.38C395.202 889.406 395.116 889.53 395.021 889.666Z" fill="#181818"></path><path d="M372.971 915.051C372.971 915.051 382.05 899.182 382.266 898.535C382.482 897.889 369.295 908.676 369.295 908.676L391.041 884.851L374.268 889.484L366.269 880.396L370.809 889.378L357.406 903.187L345.66 891.851L361.645 923.277C366.754 924.692 372.526 926.181 379.129 927.493L377.078 922.437L381.296 927.905C383.162 928.254 385.089 928.59 387.089 928.906C383.796 921.602 380.65 914.46 380.753 914.046C380.957 913.227 393.229 892.241 395.021 889.666C392.725 892.459 372.971 915.051 372.971 915.051Z" fill="#191919"></path></g><mask id="mask5_7_2468" style="mask-type:luminance" maskUnits="userSpaceOnUse" x="0" y="0" width="1201" height="1197"><path d="M1201 0H0V1197H1201V0Z" fill="white"></path></mask><g mask="url(#mask5_7_2468)"><path d="M603.344 732.3C461.03 732.3 332.35 756.324 332.35 780.568L345.66 818.065C345.66 842.309 461.028 861.964 603.344 861.964C745.66 861.964 864.987 834.017 864.987 809.773L875.202 779.275C875.202 755.031 745.658 732.3 603.344 732.3Z" fill="#2B2B2B"></path><path d="M536.808 724.312C528.072 727.084 518.409 728.248 508.835 727.371C494.836 726.091 475.855 724.192 463.816 722.327C442.825 719.079 445.708 729.852 431.209 728.932C416.713 728.013 407.838 715.813 394.355 725.351C380.873 734.889 381.329 742.391 366.254 745.858C351.179 749.324 340.325 753.253 335.511 765.896C330.698 778.538 329.348 800.195 344.103 810.848C358.859 821.504 355.611 850.72 372.339 841.783C389.066 832.846 391.487 791.533 401.355 809.558C411.222 827.582 405.962 835.765 418.762 833.186C431.562 830.608 430.282 812.962 437.195 818.09C444.108 823.22 441.375 831.453 450.545 828.829C459.716 826.205 464.234 826.117 464.842 829.921C465.452 833.725 466.139 841.436 471.635 838.171C477.131 834.905 483.275 824.642 486.859 828.829C490.443 833.016 481.867 856.901 506.827 856.13C531.786 855.357 515.332 829.112 536.04 826.639C556.747 824.166 538.314 846.878 547.531 848.283C556.747 849.688 557.514 829.576 564.427 833.186C571.339 836.796 569.276 862.06 592.004 852.005C614.732 841.953 626.869 835.439 635.199 841.917C643.529 848.395 667.914 827.352 675.017 843.416C682.12 859.48 703.817 873.686 711.881 861.04C719.944 848.395 712.265 824.678 728.008 828.547C743.75 832.413 736.455 840.663 747.975 840.921C759.495 841.18 749.794 820.46 760.214 822.957C770.631 825.454 777.59 832.214 788.8 826.191C800.008 820.168 807.113 817.977 812.296 819.653C817.48 821.329 833.417 802.052 848.775 803.635C864.136 805.217 868.666 798.885 873.936 784.401C879.206 769.918 872.31 743.478 847.005 736.775C821.702 730.072 784.589 729.507 779.338 724.506C774.088 719.502 707.982 712.016 689.657 712.107C671.332 712.201 625.096 717.546 598.984 717.278C578.514 717.075 552.21 719.423 536.808 724.312Z" fill="#F0B90B"></path><path d="M512.034 847.943C487.075 848.714 495.65 824.829 492.067 820.642C488.483 816.455 482.338 826.718 476.843 829.983C471.347 833.248 470.66 825.537 470.05 821.733C469.44 817.929 464.922 818.018 455.753 820.639C446.582 823.263 449.316 815.03 442.403 809.9C438.125 806.725 436.979 812.277 433.698 817.577C434.64 816.979 435.725 817.003 437.19 818.09C444.103 823.22 441.37 831.453 450.541 828.829C459.712 826.205 464.23 826.119 464.837 829.923C465.448 833.727 466.135 841.438 471.63 838.173C477.126 834.908 483.27 824.644 486.854 828.832C490.438 833.019 481.863 856.904 506.822 856.133C517.415 855.805 520.542 850.885 522.224 845.147C519.937 846.758 516.713 847.799 512.034 847.943Z" fill="#191919"></path><path d="M377.549 833.595C360.821 842.532 364.069 813.316 349.313 802.66C334.558 792.004 335.91 770.351 340.721 757.708C340.796 757.516 340.882 757.344 340.959 757.155C338.699 759.511 336.859 762.352 335.509 765.898C330.695 778.541 329.345 800.197 344.101 810.85C358.856 821.506 355.609 850.722 372.336 841.785C377.133 839.224 380.751 833.995 383.707 828.271C381.887 830.498 379.857 832.363 377.549 833.595Z" fill="#191919"></path><path d="M552.739 840.095C543.522 838.69 561.955 815.978 541.247 818.451C533.369 819.392 530.873 823.775 529.425 828.886C531.07 827.78 533.194 826.981 536.033 826.641C556.74 824.168 538.307 846.88 547.524 848.285C552.597 849.058 555.109 843.317 557.495 838.596C556.185 839.748 554.643 840.385 552.739 840.095Z" fill="#191919"></path><path d="M423.972 825.001C411.172 827.577 416.432 819.394 406.565 801.372C401.987 793.01 399.011 797.427 395.465 805.452C397.212 804.439 399.085 805.421 401.353 809.565C411.22 827.589 405.96 835.772 418.76 833.193C426.129 831.709 428.829 825.245 431.113 820.994C429.348 822.854 427.08 824.374 423.972 825.001Z" fill="#191919"></path><path d="M853.981 795.45C838.62 793.867 822.685 813.144 817.501 811.468C812.318 809.792 805.213 811.983 794.005 818.006C782.797 824.029 775.839 817.268 765.419 814.772C760.226 813.527 760.031 818.054 759.717 822.873C759.88 822.902 760.034 822.921 760.207 822.961C770.624 825.458 777.583 832.219 788.793 826.196C800.001 820.172 807.106 817.982 812.289 819.658C817.473 821.334 833.41 802.057 848.768 803.639C861.581 804.961 866.855 800.752 871.311 790.92C867.499 794.803 862.354 796.311 853.981 795.45Z" fill="#191919"></path><path d="M753.183 832.736C741.663 832.478 748.958 824.23 733.215 820.362C726.091 818.612 723.768 822.516 722.608 828.482C724.013 828.027 725.764 828.003 728.003 828.554C743.746 832.42 736.451 840.67 747.971 840.928C753.111 841.043 754.024 836.983 754.387 832.671C754.01 832.717 753.616 832.746 753.183 832.736Z" fill="#191919"></path><path d="M680.222 835.23C673.12 819.167 648.735 840.21 640.404 833.732C632.074 827.254 619.937 833.765 597.209 843.82C574.482 853.872 576.545 828.611 569.632 825.001C565.777 822.987 563.831 828.355 561.266 833.253C562.181 832.666 563.204 832.556 564.42 833.193C571.333 836.803 569.269 862.067 591.997 852.012C614.725 841.96 626.862 835.446 635.192 841.924C643.522 848.402 667.907 827.359 675.01 843.423C682.113 859.486 703.81 873.692 711.874 861.047C712.875 859.477 713.634 857.734 714.225 855.895C704.752 862.577 686.602 849.661 680.222 835.23Z" fill="#191919"></path><path d="M607.879 805.724C736.996 805.724 841.666 787.893 841.666 765.898C841.666 743.902 736.996 726.071 607.879 726.071C478.762 726.071 374.092 743.902 374.092 765.898C374.092 787.893 478.762 805.724 607.879 805.724Z" fill="#414141"></path><path d="M692.115 793.184C676.237 794.357 659.64 795.171 642.658 795.65L545.545 730.917C565.625 729.863 586.571 729.312 607.877 729.312C609.606 729.312 611.335 729.313 613.065 729.336L692.115 793.184Z" fill="#373737"></path><path d="M716.471 791.078C712.436 791.485 708.352 791.868 704.221 792.203L628.798 729.504C636.412 729.624 643.955 729.815 651.401 730.103L716.471 791.078Z" fill="#373737"></path><path d="M616.79 800.307C487.673 800.307 383.004 782.477 383.004 760.481C383.004 757.735 384.637 755.051 387.745 752.461C378.915 756.66 374.092 761.182 374.092 765.896C374.092 787.892 478.762 805.722 607.881 805.722C720.876 805.722 815.147 792.067 836.929 773.913C804.567 789.302 718.229 800.307 616.79 800.307Z" fill="#191919"></path></g><mask id="mask6_7_2468" style="mask-type:luminance" maskUnits="userSpaceOnUse" x="0" y="0" width="1201" height="1197"><path d="M1201 0H0V1197H1201V0Z" fill="white"></path></mask><g mask="url(#mask6_7_2468)"><path d="M231.159 805.227C230.215 812.648 231.281 818.138 232.456 821.817C234.5 828.212 239.364 836.914 237.284 840.799C236.52 842.226 235.379 843.832 235.379 843.832C233.676 846.152 232.406 846.839 228.147 853.969C222.512 863.401 217.885 883.427 215.226 877.832C212.567 872.237 210.622 870.535 209.973 875.802C209.325 881.071 201.984 894.817 201.984 894.817C201.984 894.817 175.92 828.923 175.817 828.176C173.655 812.552 231.159 805.227 231.159 805.227Z" fill="#F0B90B"></path><path d="M65.7091 850.703C65.7091 850.703 43.0943 899.615 53.8144 901.454C64.5345 903.292 72.7302 896.424 90.1158 900.058C107.504 903.692 118.481 904.123 136.772 898.521C169.8 888.407 196.426 904.454 201.984 894.815C205.818 888.165 193.409 880.463 192.679 863.617C192.059 849.279 200.276 837.098 207.811 828.712C160.444 836.043 113.077 843.373 65.7091 850.703Z" fill="#2B2B2B"></path><path d="M183.967 832.401C183.957 832.404 183.95 832.403 183.94 832.406L179.982 896.532C182.535 896.876 184.911 897.219 187.099 897.492L183.967 832.401Z" fill="#F0B90B"></path><path d="M167.232 895.22C171.414 895.467 175.322 895.917 178.911 896.391L176.314 833.589C175.596 833.699 174.878 833.812 174.159 833.922C172.207 850.862 168.952 879.274 167.232 895.22Z" fill="#F0B90B"></path><path d="M109.015 884.171L100.062 901.849C103.481 902.342 106.723 902.646 109.935 902.732L109.015 884.171Z" fill="#191919"></path><path d="M90.1158 900.058C91.5835 900.365 92.991 900.64 94.3746 900.899L96.3298 859.746C96.3298 859.746 89.0758 883.621 84.6609 899.228C86.3831 899.398 88.1846 899.654 90.1158 900.058Z" fill="#191919"></path><path d="M117.784 902.488C118.58 885.16 120.256 847.113 120.256 847.113L110.951 902.751C113.216 902.78 115.479 902.694 117.784 902.488Z" fill="#191919"></path><path d="M129.237 840.871C129.122 840.888 129.007 840.907 128.894 840.924C127.176 850.967 121.284 886.072 118.656 902.414C121.325 902.143 124.068 901.708 126.962 901.092C127.587 884.066 128.819 850.522 129.237 840.871Z" fill="#191919"></path><path d="M223.583 803.166C229.631 803.685 231.08 804.516 231.159 805.227C231.522 808.516 202.669 811.911 202.191 819.878C201.967 823.608 208.165 824.968 207.811 828.712C207.463 832.42 201.105 834.041 181.039 840.799C165.399 846.066 165.608 846.274 162.02 846.959C149.224 849.401 142.11 846.969 125.161 853.969C101.451 863.76 69.168 860.052 65.7091 850.703C62.2503 841.355 100.245 831.355 123.331 822.222C146.416 813.089 171.296 799.268 189.121 801.557C206.947 803.845 223.583 803.166 223.583 803.166Z" fill="#373737"></path></g></g><defs><clipPath id="clip0_7_2468"><rect width="1201" height="1197" fill="white"></rect></clipPath></defs></svg> 