<?xml version="1.0" encoding="UTF-8"?> <svg xmlns="http://www.w3.org/2000/svg" width="100" height="27" viewBox="0 0 100 27" fill="none"><rect x="0.451456" y="0.451456" width="99.0971" height="26.0971" rx="8.57767" fill="#F0B90B" stroke="#F0B90B" stroke-width="0.902913"></rect><path d="M25.1108 16.4525C27.303 16.4525 28.103 15.1458 28.103 13.0879C28.103 12.3002 27.9992 11.311 27.2786 10.7248C26.5642 10.1508 25.52 10.0469 24.7261 9.97367C24.3414 9.93092 24.0056 9.91871 23.6697 9.83322L23.4194 9.76605C23.4866 10.9446 23.4988 11.8605 23.4988 12.7765C23.4988 13.8756 23.4743 14.9748 23.4255 16.2388C24.085 16.3854 24.5979 16.4525 25.1108 16.4525ZM23.1568 17.5212C22.6072 17.4051 22.0943 17.3074 22.0943 16.6968C22.0943 16.3915 22.1309 16.08 22.1431 15.7747C22.192 14.7977 22.2042 13.8207 22.2042 12.8437C22.2042 11.9582 22.1859 11.0728 22.1309 10.1935C22.1065 9.82711 22.0516 9.44852 22.0516 9.08214C22.0516 8.80735 22.0943 8.65469 22.2653 8.50203C22.6011 8.22114 22.9675 8.41043 23.3278 8.49592C23.8407 8.61194 24.3598 8.67301 24.8788 8.73407C25.4284 8.79514 26.0024 8.86231 26.552 8.99665C27.0954 9.12488 27.6084 9.32028 28.0419 9.64392C29.0922 10.4255 29.3914 11.7323 29.3914 13.0574C29.3914 13.2284 29.3914 13.4055 29.3792 13.5764C29.2327 16.2205 27.7427 17.7776 25.1475 17.7776C24.4819 17.7776 23.8102 17.6677 23.1568 17.5212ZM31.6447 17.399C30.6799 16.8189 30.2585 15.8236 30.2585 14.6695C30.2585 13.2345 30.7776 11.8972 32.0294 11.2194C32.4141 11.0179 32.8537 10.8835 33.2812 10.8835C34.3925 10.8835 35.5589 11.5491 36.1023 12.5261C36.2855 12.862 36.426 13.2833 36.426 13.6436C36.426 14.5779 35.7482 14.6084 34.991 14.6695L34.0689 14.7244C33.2629 14.7611 32.469 14.8527 31.663 14.8954L31.4554 14.9076L31.4859 15.1213C31.5653 15.6465 31.7729 16.0739 32.2553 16.367C32.5973 16.5686 33.0247 16.6785 33.4155 16.6785C34.0628 16.6785 34.5025 16.4098 34.8505 16.1655C35.1253 15.9701 35.394 15.7198 35.7237 15.7198C36.0046 15.7198 36.2245 15.964 36.2245 16.2632C36.2245 16.4098 36.1756 16.538 36.0901 16.6724C35.626 17.3441 34.2521 17.8936 33.4155 17.8936C32.7927 17.8936 32.1881 17.7166 31.6447 17.399ZM32.1515 12.6055C31.7851 12.9658 31.6752 13.3383 31.5409 13.7413C32.2858 13.723 32.3835 13.7108 33.3484 13.6314C33.9529 13.5825 34.2277 13.5947 35.2658 13.5276C35.1619 13.2894 35.0337 12.8925 34.4841 12.5017C34.13 12.2452 33.6964 12.0865 33.2812 12.0865C32.8476 12.0865 32.4324 12.3307 32.1515 12.6055ZM42.1415 16.19C42.3369 16.4647 42.5385 16.7334 42.7216 17.0143C42.801 17.1364 42.8438 17.2403 42.8438 17.3685C42.8438 17.7043 42.5751 17.9669 42.2392 17.9669C41.8668 17.9669 41.6591 17.5883 41.4943 17.3257C41.0851 16.7334 40.6699 16.1411 40.2547 15.5488L40.1142 15.3351L39.9493 15.5366C39.5769 16.0129 39.1983 16.4892 38.8319 16.9777C38.6609 17.2036 38.5266 17.4234 38.3556 17.6189C38.1846 17.8082 38.0075 17.9181 37.8121 17.9181C37.4885 17.9181 37.2259 17.6311 37.2259 17.2952C37.2259 17.167 37.2625 17.0571 37.3419 16.9472C37.4579 16.7762 37.5984 16.6174 37.7266 16.4525L38.496 15.4511C38.7708 15.1091 39.0517 14.7855 39.4364 14.3458L39.3509 14.2176C39.0151 13.723 38.6792 13.2284 38.3189 12.746C38.1968 12.5811 38.0686 12.4223 37.9281 12.2636C37.7388 12.0682 37.5556 11.9033 37.4091 11.7079C37.3419 11.6163 37.3114 11.5369 37.3114 11.4575C37.3114 11.1095 37.5862 10.8163 37.9159 10.8163C38.2884 10.8163 38.6059 11.1888 38.8197 11.427C39.0578 11.7079 39.2776 12.0132 39.4242 12.2147L40.218 13.3566C40.5966 12.8192 40.8409 12.5322 41.0729 12.233C41.3172 11.9277 41.5553 11.6163 41.7568 11.2682C41.9156 10.9873 42.0988 10.798 42.3369 10.798C42.6178 10.798 42.9476 11.1339 42.9476 11.4209C42.9476 11.5125 42.917 11.6102 42.8743 11.714C42.74 11.9827 42.5018 12.3307 42.2392 12.6788C41.9767 13.033 41.6958 13.3688 41.4943 13.6253C41.3233 13.839 41.1584 14.0466 40.8958 14.3642L40.9752 14.4863C41.3599 15.0603 41.7507 15.6282 42.1415 16.19ZM44.462 15.4694C44.7245 15.4694 44.9871 15.7381 45.2069 16.0312C45.4817 16.4037 45.8176 16.5991 46.2572 16.6724C46.6114 16.7273 46.935 16.7395 47.2587 16.7395C47.5945 16.7395 48.1441 16.7029 48.3762 16.2205C48.4128 16.135 48.4372 16.0373 48.4372 15.9396C48.4372 15.4755 47.9792 15.2252 47.6129 15.103C47.2404 14.9748 46.8679 14.871 46.4832 14.7794C45.8909 14.6389 45.3413 14.5351 44.8955 14.2115C44.3704 13.8329 44.175 13.3077 44.175 12.6299C44.175 12.1048 44.4375 11.659 44.865 11.3476C45.3291 11.0056 45.9825 10.8713 46.5748 10.8713C47.0816 10.8713 47.6067 10.9629 48.0708 11.1461C48.8097 11.4392 49.2433 11.7567 49.3287 12.5322V12.5994C49.3287 12.9169 49.0601 13.1734 48.7364 13.1734C48.425 13.1734 48.2785 12.9658 48.193 12.7154C48.083 12.4406 47.8632 12.2208 47.1793 12.0865C46.7641 12.0132 46.3733 12.001 45.9886 12.0926C45.6466 12.1903 45.3046 12.4406 45.3046 12.7826C45.3046 13.1978 45.8237 13.3566 46.1229 13.4421C46.5259 13.5581 47.0633 13.668 47.6067 13.8268C48.6937 14.1443 49.628 14.6389 49.628 15.7747C49.628 16.825 48.9624 17.6311 47.9548 17.8326C47.6861 17.8875 47.4113 17.8936 47.1427 17.8936C46.648 17.8936 45.9092 17.8448 45.4695 17.6921C44.9199 17.5028 44.236 16.9472 44.0162 16.422C43.9673 16.2999 43.9368 16.1961 43.9368 16.0862C43.9368 15.7686 44.1872 15.4694 44.462 15.4694ZM55.6611 16.9533C55.0687 17.6066 54.3238 17.8936 53.4444 17.8936C51.6247 17.8936 50.5806 16.3121 50.5806 14.5107C50.5806 13.9978 50.6722 13.4848 50.8676 13.0146C51.4232 11.6651 52.1804 10.8713 53.6215 10.8713C54.5436 10.8713 55.4657 11.2682 55.9236 12.0682C56.0641 12.3185 56.174 12.5811 56.174 12.8376C56.174 13.1307 56.0336 13.3016 55.7588 13.3749C55.3618 13.497 55.1359 13.2406 54.9955 12.9108C54.7512 12.3185 54.165 12.0926 53.6215 12.0926C52.4186 12.0926 51.9117 13.2406 51.7835 14.181C51.7652 14.3214 51.753 14.4557 51.753 14.5962C51.753 15.5183 52.2598 16.6724 53.4078 16.6724C54.2444 16.6724 54.623 16.3548 55.1115 15.7808C55.3191 15.5305 55.5267 15.3351 55.7588 15.3351C56.0213 15.3351 56.2717 15.5854 56.2717 15.8419C56.2717 16.19 55.942 16.6357 55.6611 16.9533ZM61.0835 12.1475C60.9736 12.233 60.8026 12.2697 60.5706 12.3002C60.3202 12.3429 60.0882 12.3674 59.8745 12.4651C59.447 12.6727 58.9524 12.9963 58.7692 13.5398C58.6776 13.7963 58.6898 14.0588 58.6898 14.297C58.6898 14.6267 58.6959 14.9504 58.6959 15.274C58.6959 15.8419 58.6837 16.4037 58.6837 16.9716C58.6837 17.3624 58.6715 17.6127 58.4395 17.802C58.3295 17.8875 58.2135 17.9303 58.0853 17.9303C57.7555 17.9303 57.4808 17.6494 57.4808 17.3074C57.4991 16.6602 57.5113 15.9946 57.5113 15.3473C57.5113 14.5962 57.5052 13.839 57.493 13.0818C57.4808 12.5078 57.3586 11.6835 57.5663 11.1827C57.6456 10.9934 57.78 10.8591 58.0731 10.8591C58.415 10.8591 58.6593 11.1705 58.6227 11.543L58.5738 12.001L58.928 11.714C59.4165 11.3232 60.0149 11.0484 60.6194 11.0484C61.0713 11.0484 61.2728 11.201 61.2728 11.6407C61.2728 11.8483 61.2057 12.0559 61.0835 12.1475ZM63.007 17.399C62.0422 16.8189 61.6209 15.8236 61.6209 14.6695C61.6209 13.2345 62.1399 11.8972 63.3917 11.2194C63.7764 11.0179 64.2161 10.8835 64.6435 10.8835C65.7549 10.8835 66.9212 11.5491 67.4647 12.5261C67.6479 12.862 67.7883 13.2833 67.7883 13.6436C67.7883 14.5779 67.1105 14.6084 66.3533 14.6695L65.4313 14.7244C64.6252 14.7611 63.8314 14.8527 63.0254 14.8954L62.8177 14.9076L62.8483 15.1213C62.9277 15.6465 63.1353 16.0739 63.6177 16.367C63.9596 16.5686 64.3871 16.6785 64.7779 16.6785C65.4252 16.6785 65.8648 16.4098 66.2129 16.1655C66.4877 15.9701 66.7564 15.7198 67.0861 15.7198C67.367 15.7198 67.5868 15.964 67.5868 16.2632C67.5868 16.4098 67.538 16.538 67.4525 16.6724C66.9884 17.3441 65.6145 17.8936 64.7779 17.8936C64.155 17.8936 63.5505 17.7166 63.007 17.399ZM63.5139 12.6055C63.1475 12.9658 63.0376 13.3383 62.9032 13.7413C63.6482 13.723 63.7459 13.7108 64.7107 13.6314C65.3152 13.5825 65.59 13.5947 66.6281 13.5276C66.5243 13.2894 66.3961 12.8925 65.8465 12.5017C65.4923 12.2452 65.0588 12.0865 64.6435 12.0865C64.21 12.0865 63.7948 12.3307 63.5139 12.6055ZM69.7485 17.399C68.7837 16.8189 68.3623 15.8236 68.3623 14.6695C68.3623 13.2345 68.8814 11.8972 70.1332 11.2194C70.5179 11.0179 70.9575 10.8835 71.385 10.8835C72.4963 10.8835 73.6627 11.5491 74.2061 12.5261C74.3893 12.862 74.5298 13.2833 74.5298 13.6436C74.5298 14.5779 73.852 14.6084 73.0948 14.6695L72.1727 14.7244C71.3667 14.7611 70.5728 14.8527 69.7668 14.8954L69.5592 14.9076L69.5897 15.1213C69.6691 15.6465 69.8767 16.0739 70.3591 16.367C70.7011 16.5686 71.1285 16.6785 71.5193 16.6785C72.1666 16.6785 72.6063 16.4098 72.9543 16.1655C73.2291 15.9701 73.4978 15.7198 73.8275 15.7198C74.1084 15.7198 74.3283 15.964 74.3283 16.2632C74.3283 16.4098 74.2794 16.538 74.1939 16.6724C73.7298 17.3441 72.3559 17.8936 71.5193 17.8936C70.8965 17.8936 70.2919 17.7166 69.7485 17.399ZM70.2553 12.6055C69.8889 12.9658 69.779 13.3383 69.6447 13.7413C70.3896 13.723 70.4873 13.7108 71.4522 13.6314C72.0567 13.5825 72.3315 13.5947 73.3696 13.5276C73.2658 13.2894 73.1375 12.8925 72.5879 12.5017C72.2338 12.2452 71.8002 12.0865 71.385 12.0865C70.9514 12.0865 70.5362 12.3307 70.2553 12.6055ZM80.7461 17.9425C80.398 17.9425 80.1354 17.7288 80.0988 17.4051C80.0072 16.6357 79.9644 15.848 79.9644 15.0786C79.9644 14.5046 80.0011 13.9367 80.0011 13.3627C80.0011 12.6238 79.7263 12.1109 78.8714 12.1109C78.2608 12.1109 77.6562 12.3613 77.2776 12.8925C76.838 13.497 76.8685 14.2848 76.8563 14.9626C76.8441 15.274 76.838 15.5854 76.838 15.8969C76.838 16.3426 76.8685 16.709 76.8685 17.0693C76.8685 17.5761 76.6365 17.8631 76.1663 17.8631C75.7449 17.8631 75.6839 17.3563 75.6656 17.0449C75.6472 16.7579 75.6411 16.477 75.6411 16.19C75.6411 15.0786 75.7449 13.9672 75.7449 12.8498C75.7449 12.3857 75.7266 11.9277 75.6778 11.4636C75.6778 11.4392 75.6717 11.4209 75.6717 11.3965C75.6717 11.0545 75.9526 10.798 76.3006 10.798C76.6609 10.798 76.8074 11.0484 76.8685 11.488L76.9174 11.8239L77.1799 11.6102C77.7173 11.1766 78.4501 10.9079 79.1401 10.9079C79.6958 10.9079 80.2148 11.0606 80.5873 11.4514C81.0819 11.9705 81.1857 12.7032 81.1857 13.4665C81.1857 13.955 81.1613 14.4496 81.1613 14.9443C81.1613 15.3717 81.1735 15.7992 81.204 16.2266C81.2346 16.5686 81.3017 16.9105 81.3017 17.2525C81.3017 17.7288 81.1674 17.9425 80.7461 17.9425ZM83.7199 17.399C82.7551 16.8189 82.3337 15.8236 82.3337 14.6695C82.3337 13.2345 82.8528 11.8972 84.1046 11.2194C84.4893 11.0179 84.9289 10.8835 85.3564 10.8835C86.4677 10.8835 87.6341 11.5491 88.1775 12.5261C88.3607 12.862 88.5012 13.2833 88.5012 13.6436C88.5012 14.5779 87.8234 14.6084 87.0662 14.6695L86.1441 14.7244C85.3381 14.7611 84.5442 14.8527 83.7382 14.8954L83.5306 14.9076L83.5611 15.1213C83.6405 15.6465 83.8481 16.0739 84.3305 16.367C84.6725 16.5686 85.0999 16.6785 85.4907 16.6785C86.138 16.6785 86.5777 16.4098 86.9257 16.1655C87.2005 15.9701 87.4692 15.7198 87.7989 15.7198C88.0798 15.7198 88.2997 15.964 88.2997 16.2632C88.2997 16.4098 88.2508 16.538 88.1653 16.6724C87.7012 17.3441 86.3273 17.8936 85.4907 17.8936C84.8679 17.8936 84.2633 17.7166 83.7199 17.399ZM84.2267 12.6055C83.8603 12.9658 83.7504 13.3383 83.6161 13.7413C84.361 13.723 84.4587 13.7108 85.4236 13.6314C86.0281 13.5825 86.3029 13.5947 87.341 13.5276C87.2371 13.2894 87.1089 12.8925 86.5593 12.5017C86.2052 12.2452 85.7716 12.0865 85.3564 12.0865C84.9228 12.0865 84.5076 12.3307 84.2267 12.6055ZM93.2031 12.1475C93.0932 12.233 92.9222 12.2697 92.6901 12.3002C92.4398 12.3429 92.2077 12.3674 91.994 12.4651C91.5666 12.6727 91.072 12.9963 90.8888 13.5398C90.7972 13.7963 90.8094 14.0588 90.8094 14.297C90.8094 14.6267 90.8155 14.9504 90.8155 15.274C90.8155 15.8419 90.8033 16.4037 90.8033 16.9716C90.8033 17.3624 90.7911 17.6127 90.559 17.802C90.4491 17.8875 90.3331 17.9303 90.2048 17.9303C89.8751 17.9303 89.6003 17.6494 89.6003 17.3074C89.6186 16.6602 89.6308 15.9946 89.6308 15.3473C89.6308 14.5962 89.6247 13.839 89.6125 13.0818C89.6003 12.5078 89.4782 11.6835 89.6858 11.1827C89.7652 10.9934 89.8995 10.8591 90.1926 10.8591C90.5346 10.8591 90.7788 11.1705 90.7422 11.543L90.6934 12.001L91.0475 11.714C91.536 11.3232 92.1345 11.0484 92.739 11.0484C93.1909 11.0484 93.3924 11.201 93.3924 11.6407C93.3924 11.8483 93.3252 12.0559 93.2031 12.1475Z" fill="#0F0F0F"></path><path d="M10.898 8.07736C10.4718 8.19305 9.9238 8.47923 9.34535 8.87501L8.86433 9.20381L8.66948 9.10639C8.55988 9.05159 8.40766 8.95417 8.3285 8.89328C8.09103 8.70452 8.06059 8.75932 8.23108 9.06985C8.59641 9.74572 9.56455 10.6895 10.5449 11.3471C11.1355 11.7368 11.1538 11.7429 11.7992 11.5785C12.0366 11.5237 12.1219 11.5298 12.3106 11.6028C12.4385 11.6576 12.609 11.7003 12.7003 11.7003C13.0291 11.7003 14.3078 10.7869 14.9289 10.105C15.2942 9.7031 15.8727 8.89328 15.8727 8.77759C15.8727 8.68016 15.7813 8.70452 15.6535 8.84457C15.5012 9.00897 15.2455 9.14292 15.075 9.14292C14.9959 9.14292 14.7827 9.02114 14.6001 8.87501C14.2226 8.58274 13.7598 8.3331 13.2544 8.15652C12.7978 7.99212 11.3608 7.94341 10.898 8.07736Z" fill="#0F0F0F"></path><path d="M8.21278 10.4946C7.97531 10.9878 7.90225 11.4384 7.83527 12.8511C7.72567 15.2866 7.62216 15.9808 7.2142 17.0768C7.08024 17.4421 6.98891 17.7526 7.00109 17.7709C7.01935 17.7892 7.28727 17.6065 7.5978 17.369C7.90225 17.1255 8.18842 16.9428 8.22496 16.955C8.26149 16.9672 8.48678 17.2899 8.73034 17.6674C8.9678 18.051 9.19309 18.3737 9.22963 18.3859C9.26007 18.398 9.50972 18.2093 9.77763 17.9779L10.2647 17.5456L10.3743 17.6917C10.4413 17.7709 10.7701 18.2824 11.1172 18.8304C11.8174 19.9507 11.9453 20.1273 12.0305 20.0786C12.061 20.0603 12.4263 19.5001 12.8404 18.8425C13.2483 18.1849 13.6076 17.6187 13.6258 17.5882C13.6502 17.5578 13.8816 17.7283 14.1556 17.9657C14.4235 18.2032 14.667 18.398 14.7036 18.398C14.7401 18.398 14.9776 18.0692 15.2333 17.6674C15.489 17.2655 15.7265 16.9367 15.7569 16.9367C15.7935 16.9367 16.0797 17.1437 16.3963 17.3995C16.7129 17.6552 16.9808 17.8561 16.9991 17.844C17.0113 17.8318 16.9017 17.4969 16.7555 17.1072C16.3232 15.9625 16.2989 15.7859 16.1162 12.5223C16.0553 11.3593 16.0127 11.1462 15.7691 10.586L15.6108 10.2328L15.4586 10.3729C15.3794 10.452 15.2272 10.6164 15.1298 10.7443L14.941 10.9818L15.0506 11.4202C15.1541 11.8342 15.1541 11.8707 15.0567 12.1752C14.9288 12.5527 14.5209 12.9485 14.1434 13.0459C13.7354 13.1494 13.5893 13.2468 13.571 13.4112C13.5467 13.6304 13.6989 13.7948 14.2834 14.1541C14.5696 14.3307 14.8071 14.5011 14.8192 14.5316C14.8314 14.5681 14.6122 14.7325 14.3382 14.8969C13.3579 15.4875 13.1083 15.8894 12.4263 17.9657C12.1949 18.6538 12.0062 19.2322 11.994 19.2444C11.9514 19.2992 11.9087 19.1835 11.7383 18.5746C11.5008 17.7283 10.9954 16.407 10.7275 15.932C10.4839 15.4875 10.2587 15.2744 9.66803 14.9274C9.43665 14.7873 9.21136 14.6412 9.18092 14.5986C9.12612 14.5377 9.25398 14.4281 9.70456 14.1297L10.3013 13.74V13.4721V13.1981L9.95421 13.0946C9.47318 12.9546 9.19918 12.7658 9.02869 12.4735C8.82776 12.1204 8.79732 11.8525 8.90083 11.4262C8.97998 11.0731 8.97998 11.0548 8.83994 10.8174C8.76078 10.6834 8.61465 10.4946 8.51723 10.4033L8.33456 10.2328L8.21278 10.4946Z" fill="#0F0F0F"></path><path d="M9.54028 11.7612C9.54028 12.0169 9.68033 12.2726 9.87517 12.3579C10.1187 12.4675 10.6972 12.4553 10.6972 12.3396C10.6972 12.2483 9.73513 11.5785 9.60726 11.5785C9.57073 11.5785 9.54028 11.6637 9.54028 11.7612Z" fill="#0F0F0F"></path><path d="M13.9791 11.749C13.8573 11.8403 13.632 11.9865 13.4737 12.0778C13.0657 12.3214 13.0962 12.431 13.5772 12.431C14.1678 12.431 14.5453 12.1265 14.4479 11.7368C14.3992 11.5359 14.2652 11.542 13.9791 11.749Z" fill="#0F0F0F"></path><path d="M11.6836 12.2847C11.306 12.4796 11.099 12.8936 11.0077 13.6547C10.959 14.014 10.9103 14.1845 10.8433 14.2271C10.7885 14.2575 10.6728 14.3428 10.5936 14.4098L10.4475 14.5315L10.8311 14.9334C11.2573 15.3779 11.5131 15.8102 11.7688 16.5287C11.9636 17.0889 11.988 17.0828 12.2803 16.346C12.536 15.6823 12.8283 15.2135 13.2058 14.8299L13.5102 14.5133L13.2423 14.3306L12.9683 14.1418L12.9318 13.6365C12.8526 12.6014 12.2803 11.9864 11.6836 12.2847Z" fill="#0F0F0F"></path></svg> 