<?xml version="1.0" encoding="UTF-8"?> <svg xmlns="http://www.w3.org/2000/svg" width="100" height="27" viewBox="0 0 100 27" fill="none"><rect x="0.451456" y="0.451456" width="99.0971" height="26.0971" rx="8.57767" fill="#F0B90B" stroke="#F0B90B" stroke-width="0.902913"></rect><path d="M37.4078 9.99809C37.1819 9.99809 36.9559 9.96145 36.73 9.94924C36.1621 9.9126 35.6308 9.88818 34.892 9.89428L34.9042 10.0958C34.9958 11.4758 35.0813 12.8498 35.124 14.2237C35.1423 14.8038 35.1607 15.3778 35.1607 15.9579C35.1607 16.5075 35.1973 17.0998 35.0507 17.4662C34.9347 17.7471 34.7088 17.9303 34.4218 17.9303C33.8966 17.9303 33.8173 17.6433 33.8173 17.0265C33.8173 16.5258 33.8661 16.0251 33.86 15.3656C33.8417 13.6253 33.7257 11.8789 33.6157 10.1446L33.6096 9.96145H33.4326C32.8891 9.94924 32.3517 9.94313 31.8144 9.9065C31.5579 9.89428 31.2953 9.87596 31.045 9.83933C30.703 9.79048 30.471 9.5279 30.471 9.18594C30.471 8.70354 30.8312 8.53867 31.2281 8.53867C31.4419 8.53867 31.6495 8.58141 31.8632 8.59973C32.4372 8.65469 33.0173 8.67911 33.5913 8.67911C34.1958 8.67911 34.7943 8.61194 35.3988 8.61194C36.1316 8.61194 36.8582 8.67301 37.591 8.67301C37.9452 8.67301 38.2566 8.97833 38.2566 9.3325C38.2566 9.83322 37.9513 9.99809 37.4078 9.99809ZM39.0748 17.399C38.11 16.8189 37.6887 15.8236 37.6887 14.6695C37.6887 13.2345 38.2077 11.8972 39.4595 11.2194C39.8442 11.0179 40.2839 10.8835 40.7114 10.8835C41.8227 10.8835 42.989 11.5491 43.5325 12.5261C43.7157 12.862 43.8561 13.2833 43.8561 13.6436C43.8561 14.5779 43.1783 14.6084 42.4211 14.6695L41.4991 14.7244C40.693 14.7611 39.8992 14.8527 39.0932 14.8954L38.8855 14.9076L38.9161 15.1213C38.9955 15.6465 39.2031 16.0739 39.6855 16.367C40.0274 16.5686 40.4549 16.6785 40.8457 16.6785C41.493 16.6785 41.9326 16.4098 42.2807 16.1655C42.5555 15.9701 42.8242 15.7198 43.1539 15.7198C43.4348 15.7198 43.6546 15.964 43.6546 16.2632C43.6546 16.4098 43.6058 16.538 43.5203 16.6724C43.0562 17.3441 41.6823 17.8936 40.8457 17.8936C40.2228 17.8936 39.6183 17.7166 39.0748 17.399ZM39.5817 12.6055C39.2153 12.9658 39.1054 13.3383 38.971 13.7413C39.716 13.723 39.8137 13.7108 40.7785 13.6314C41.3831 13.5825 41.6578 13.5947 42.6959 13.5276C42.5921 13.2894 42.4639 12.8925 41.9143 12.5017C41.5601 12.2452 41.1266 12.0865 40.7114 12.0865C40.2778 12.0865 39.8626 12.3307 39.5817 12.6055ZM45.053 11.1461C45.053 10.3706 45.0408 9.60118 45.0408 8.82567C45.0408 8.48982 45.2972 8.22724 45.6209 8.22724C45.9873 8.22724 46.2132 8.44707 46.2315 8.81956C46.2437 9.13099 46.2376 9.44241 46.2376 9.74773C46.2376 10.7858 46.2132 11.8239 46.2071 12.862C46.1949 14.1626 46.1766 15.4572 46.1766 16.7579C46.1766 17.0265 46.1705 17.3257 46.085 17.5517C46.0117 17.7593 45.8835 17.8875 45.6331 17.8875C45.2667 17.8875 45.0041 17.6433 45.0041 17.2769V16.6479C45.0041 14.816 45.053 12.978 45.053 11.1461ZM48.7473 17.399C47.7825 16.8189 47.3612 15.8236 47.3612 14.6695C47.3612 13.2345 47.8802 11.8972 49.1321 11.2194C49.5168 11.0179 49.9564 10.8835 50.3839 10.8835C51.4952 10.8835 52.6615 11.5491 53.205 12.5261C53.3882 12.862 53.5286 13.2833 53.5286 13.6436C53.5286 14.5779 52.8508 14.6084 52.0936 14.6695L51.1716 14.7244C50.3655 14.7611 49.5717 14.8527 48.7657 14.8954L48.5581 14.9076L48.5886 15.1213C48.668 15.6465 48.8756 16.0739 49.358 16.367C49.6999 16.5686 50.1274 16.6785 50.5182 16.6785C51.1655 16.6785 51.6051 16.4098 51.9532 16.1655C52.228 15.9701 52.4967 15.7198 52.8264 15.7198C53.1073 15.7198 53.3271 15.964 53.3271 16.2632C53.3271 16.4098 53.2783 16.538 53.1928 16.6724C52.7287 17.3441 51.3548 17.8936 50.5182 17.8936C49.8953 17.8936 49.2908 17.7166 48.7473 17.399ZM49.2542 12.6055C48.8878 12.9658 48.7779 13.3383 48.6435 13.7413C49.3885 13.723 49.4862 13.7108 50.451 13.6314C51.0556 13.5825 51.3303 13.5947 52.3684 13.5276C52.2646 13.2894 52.1364 12.8925 51.5868 12.5017C51.2326 12.2452 50.7991 12.0865 50.3839 12.0865C49.9503 12.0865 49.5351 12.3307 49.2542 12.6055ZM57.9741 12.288C57.5344 12.117 57.0398 12.0193 56.6063 12.1842C55.788 12.5017 55.4644 13.7963 55.4644 14.4863C55.4644 15.3167 55.8002 16.4342 56.9299 16.4342C57.1864 16.4342 57.4306 16.3732 57.6627 16.2938C58.4992 16.0007 59.0732 15.1885 59.0732 14.2787C59.0732 13.5703 58.7496 12.5994 57.9741 12.288ZM60.38 11.4758C60.2884 12.3674 60.2579 13.2589 60.2579 14.1565C60.2579 14.8527 60.2762 15.5488 60.2762 16.2449C60.2762 18.9561 59.8365 20.5011 56.9421 20.5011C56.0017 20.5011 55.2873 20.3118 54.7316 19.5607C54.5606 19.3409 54.3591 19.06 54.3591 18.7852C54.3591 18.5165 54.6583 18.2478 54.9575 18.2478C55.1835 18.2478 55.385 18.3699 55.5132 18.5653C55.5865 18.6936 55.6537 18.8218 55.7453 18.9256C56.0384 19.2859 56.5391 19.2981 56.9421 19.2981C58.6763 19.2981 58.9755 18.773 59.0793 17.1303L59.1038 16.6968L58.7679 16.9655C58.2428 17.3868 57.5833 17.6189 56.9116 17.6189C55.2262 17.6189 54.2736 16.1167 54.2736 14.4496C54.2736 13.6253 54.6034 12.6605 55.0613 11.9705C55.5315 11.2682 56.307 10.9263 57.1497 10.9263C57.7604 10.9263 58.4199 11.1461 58.8717 11.5491L59.1404 11.7812L59.1893 11.4331C59.2442 11.0606 59.4579 10.7919 59.7694 10.7919C60.1419 10.7919 60.4533 11.1217 60.38 11.4758ZM65.5338 12.1475C65.4239 12.233 65.2529 12.2697 65.0208 12.3002C64.7705 12.3429 64.5384 12.3674 64.3247 12.4651C63.8973 12.6727 63.4027 12.9963 63.2195 13.5398C63.1279 13.7963 63.1401 14.0588 63.1401 14.297C63.1401 14.6267 63.1462 14.9504 63.1462 15.274C63.1462 15.8419 63.134 16.4037 63.134 16.9716C63.134 17.3624 63.1218 17.6127 62.8897 17.802C62.7798 17.8875 62.6638 17.9303 62.5356 17.9303C62.2058 17.9303 61.931 17.6494 61.931 17.3074C61.9493 16.6602 61.9616 15.9946 61.9616 15.3473C61.9616 14.5962 61.9554 13.839 61.9432 13.0818C61.931 12.5078 61.8089 11.6835 62.0165 11.1827C62.0959 10.9934 62.2302 10.8591 62.5233 10.8591C62.8653 10.8591 63.1096 11.1705 63.0729 11.543L63.0241 12.001L63.3782 11.714C63.8667 11.3232 64.4652 11.0484 65.0697 11.0484C65.5216 11.0484 65.7231 11.201 65.7231 11.6407C65.7231 11.8483 65.6559 12.0559 65.5338 12.1475ZM68.1962 16.6724C68.6419 16.6724 69.1671 16.5014 69.5335 16.2754C70.3212 15.793 70.3639 15.4328 70.4189 14.6145L70.4372 14.3275C69.7655 14.5351 69.3258 14.645 69.0083 14.7244C68.4465 14.8527 68.2878 14.871 68.0069 15.0053C67.5794 15.2129 67.3718 15.4877 67.3718 15.9884C67.3718 16.5563 67.8664 16.6724 68.1962 16.6724ZM71.3348 17.9669C70.9135 17.9669 70.6998 17.5883 70.596 17.0937L70.5288 16.7762L70.2845 16.9838C69.7105 17.5028 68.8923 17.8265 68.1229 17.8265C67.0054 17.8265 66.1688 17.167 66.1688 16.0129C66.1688 14.6939 66.9505 14.1626 68.0985 13.8085C69.332 13.4238 70.0586 13.4726 70.3884 13.1001C70.5838 12.862 70.5593 12.5506 70.2723 12.3552C69.8998 12.0926 69.393 12.0865 69.0083 12.0865C68.5259 12.0865 68.0313 12.1475 67.7565 12.5139C67.7015 12.5872 67.6588 12.6666 67.6283 12.7337C67.5123 12.9963 67.3168 13.1856 67.0176 13.1856C66.5902 13.1856 66.3581 12.6971 66.5047 12.3552C66.9199 11.2988 67.897 10.9385 69.0083 10.9385C70.4983 10.9385 71.6402 11.3476 71.6402 12.9536C71.6402 13.2833 71.6035 13.6131 71.573 13.9428C71.5302 14.3519 71.5119 14.7611 71.5119 15.1763C71.5119 15.5976 71.5241 16.0434 71.6096 16.4709C71.6768 16.8128 71.9211 17.1181 71.9211 17.4662C71.9211 17.7593 71.6646 17.9669 71.3348 17.9669ZM82.4973 17.2769C82.4973 17.6189 82.2347 17.8936 81.905 17.8936C81.4348 17.8936 81.3188 17.5883 81.3188 17.0265C81.3188 16.764 81.3493 16.5014 81.3493 16.2388C81.3493 15.3656 81.3554 14.4924 81.2699 13.6253C81.2516 13.4299 81.2211 13.1429 81.1478 12.8803C81.0135 12.4101 80.7509 12.0987 80.2624 12.0987C78.8823 12.0987 78.3694 13.0391 78.3694 14.2665C78.3694 14.9382 78.3877 15.5488 78.4182 16.1533C78.4488 16.593 78.4915 17.0265 78.4976 17.4662V17.4906C78.4976 17.8326 78.2351 18.1196 77.8992 18.1196C77.5511 18.1196 77.3008 17.8814 77.2886 17.5456C77.2336 16.19 77.1603 14.8343 77.1603 13.4726C77.1603 12.9536 77.1237 12.3368 76.7024 12.117C76.568 12.0498 76.4276 12.0376 76.3176 12.0376C75.2857 12.0376 74.6995 13.149 74.5102 13.9245C74.3941 14.4008 74.3941 15.1641 74.3941 15.6282C74.3941 16.2449 74.4186 16.5991 74.4186 16.9472C74.4186 17.4357 74.2476 17.7104 73.8201 17.7104C73.4721 17.7104 73.2645 17.5028 73.2278 17.1426C73.1851 16.8067 73.2034 16.4709 73.2034 16.1533C73.2034 15.0847 73.2767 14.0161 73.2767 12.9475C73.2767 12.4345 73.2278 12.001 73.2278 11.5735C73.2278 11.0728 73.3866 10.7858 73.8262 10.7858C74.1743 10.7858 74.4002 11.0728 74.4308 11.4758L74.4613 11.9033L74.7544 11.598C75.2307 11.0972 75.8169 10.8347 76.4947 10.8347C77.1603 10.8347 77.7099 11.1339 78.0396 11.7079L78.1618 11.9216L78.3389 11.7567C78.9068 11.201 79.609 10.8957 80.3906 10.8957C81.9355 10.8957 82.3141 12.0315 82.4485 13.5032C82.5278 14.413 82.5095 15.329 82.5095 16.2388C82.5095 16.5869 82.4973 16.9288 82.4973 17.2769Z" fill="#0F0F0F"></path><path d="M16.1989 13.8996L18.2757 14.5751L23.2066 11.688C23.2782 11.6463 23.3514 11.7393 23.2898 11.7936L19.5568 15.0843L19.4182 16.9266C19.4159 16.9575 19.4235 16.9882 19.4399 17.0149C19.4563 17.0415 19.4808 17.0627 19.5101 17.0757C19.5395 17.0887 19.5722 17.0929 19.604 17.0877C19.6359 17.0824 19.6653 17.068 19.6884 17.0464L20.8377 15.9639L22.9389 17.4871C23.1653 17.6515 23.4932 17.5356 23.5542 17.27L25.0172 10.9079C25.1008 10.545 24.7293 10.2386 24.3671 10.3714L16.1886 13.3709C15.9319 13.4651 15.939 13.815 16.1989 13.8996Z" fill="#0F0F0F"></path></svg> 