<?xml version="1.0" encoding="UTF-8"?> <svg xmlns="http://www.w3.org/2000/svg" width="1200" height="252" viewBox="0 0 1200 252" fill="none"><path fill-rule="evenodd" clip-rule="evenodd" d="M272.971 6.96189C272.971 6.96189 243.324 3.79588 218.869 10.3538C194.782 17.1376 205.53 21.8847 179.959 21.8847C154.02 21.8847 136.602 16.6839 125.857 21.4329C114.739 26.1801 106.218 27.5372 96.9543 20.9812C87.3199 14.1974 77.3154 17.5893 60.2678 16.6858C42.85 15.5546 52.1141 7.64141 32.105 1.76303C11.7226 -3.88949 -0.132954 6.05841 -11.9916 3.79779C-23.4801 1.31129 -29.7796 23.2418 -29.0361 30.4774C-28.2926 37.7129 -36.076 48.1125 -53.4938 48.5662C-70.5382 49.0179 -57.1988 74.3423 -57.9392 83.3848C-58.6796 92.4292 -25.3279 97.4022 -25.3279 97.4022C-25.3279 97.4022 -11.6183 125.213 -10.8748 137.196C-9.76419 149.178 -14.5798 168.624 -6.79953 174.049C0.983889 179.25 5.05912 192.59 5.05912 205.024C5.05912 217.458 5.05913 222.659 15.0637 223.113C25.4384 223.565 19.1389 151.891 22.8471 139.005C26.9223 126.116 12.8425 117.072 29.887 109.385C47.3048 101.923 15.4339 83.8346 73.2433 86.7747C131.423 89.7149 146.246 75.9215 161.81 94.462C177.374 113.003 179.968 108.707 207.39 111.194C234.443 113.454 222.954 97.8539 238.518 97.4022C254.081 96.7245 268.164 99.211 272.24 93.5585C275.945 87.6801 302.256 92.2014 325.6 91.2979C349.318 90.3944 340.054 100.794 350.058 110.968C360.063 120.916 371.181 108.933 383.78 126.116C396.379 143.3 389.339 148.727 397.863 162.518C406.387 176.31 407.127 190.103 411.946 183.997C416.391 177.667 425.285 163.873 422.691 148.725C420.467 133.35 414.911 105.088 430.474 101.922C446.408 98.5296 444.927 103.956 453.078 111.418C461.231 119.105 474.571 114.584 476.052 127.018C477.906 139.454 485.686 173.369 493.469 161.837C501.253 150.532 490.505 126.564 504.588 119.783C518.671 113.227 521.632 104.182 523.856 100.79C526.451 97.3983 529.045 84.2844 555.724 89.0335C582.403 93.7825 607.974 93.7825 645.772 94.9118C683.199 95.8153 689.498 91.5199 698.022 102.373C706.546 113.452 704.692 115.487 727.295 114.582C749.899 113.45 741.005 119.103 755.088 122.721C769.171 126.113 764.722 109.833 785.475 109.155C806.227 108.703 835.13 110.512 854.769 110.512C874.408 110.512 861.069 121.817 879.227 136.74C897.015 151.437 900.35 143.296 902.574 157.315C904.798 171.107 905.169 166.36 912.209 175.404C919.248 184.449 916.284 202.536 922.583 205.024C928.883 207.285 923.324 144.203 924.808 131.767C926.291 119.331 917.027 101.244 928.513 99.8867C940.001 98.3037 951.116 114.358 956.675 112.775C962.234 110.966 990.027 95.8172 1004.11 98.5296C1018.19 101.47 1016.71 114.81 1033.01 116.844C1049.31 118.653 1045.98 130.41 1067.84 141.941C1089.71 153.246 1075.63 154.829 1091.93 155.732C1108.6 156.638 1119.35 149.854 1129.73 151.437C1139.73 152.794 1139.73 127.47 1157.15 118.427C1174.19 109.383 1158.63 101.244 1184.57 101.244C1210.14 101.244 1198.65 106.445 1213.1 115.941C1227.56 125.437 1227.93 119.333 1236.45 108.931C1244.61 98.7574 1247.94 105.991 1256.46 110.288C1265.35 114.584 1255.72 133.576 1259.8 141.263C1264.24 149.176 1282.03 143.976 1282.03 161.613C1282.03 179.25 1277.21 197.563 1284.99 198.466C1292.78 199.371 1290.55 102.825 1291.29 97.1725C1292.03 91.5199 1292.4 87.9022 1302.04 87.6763C1311.67 87.4504 1319.09 87.6763 1319.09 80.4408C1319.09 72.9794 1317.98 59.6396 1317.98 54.2129C1317.98 48.7863 1315.38 46.9774 1300.19 48.1087C1284.99 49.0122 1270.91 44.9427 1238.67 38.1608C1206.81 31.6048 1217.55 33.4118 1181.61 35.4484C1145.66 37.2573 1121.58 37.7091 1104.9 42.0044C1088.6 46.2998 1111.57 59.4137 1009.29 53.3095C906.646 46.9793 908.871 45.6222 869.96 40.4214C830.679 35.2206 849.577 33.6376 804.74 34.0913C760.273 34.543 745.08 40.1956 684.676 37.7091C624.646 35.4484 584.624 32.0565 557.202 30.0218C529.78 28.2129 534.598 15.3249 492.353 13.9696C450.107 12.3866 447.142 9.22062 409.715 18.9446C372.288 28.4407 379.328 32.2843 346.35 25.0488C313.362 17.8133 299.279 6.50824 272.971 6.96189Z" fill="#3B3B3B"></path><path fill-rule="evenodd" clip-rule="evenodd" d="M-43.1222 46.981C-46.0869 47.8845 -49.4217 48.564 -53.4969 48.564C-70.5414 49.0158 -57.202 74.3401 -57.9424 83.3826C-58.6828 92.427 -25.3311 97.4 -25.3311 97.4C-25.3311 97.4 -11.6215 125.211 -10.8779 137.193C-9.76737 149.176 -14.583 168.622 -6.8027 174.047C0.980715 179.248 5.05595 192.587 5.05595 205.022C5.05595 217.456 5.05595 222.657 15.0605 223.111C25.4353 223.562 19.1358 151.889 22.8439 139.002C26.9192 126.114 12.8394 117.07 29.8838 109.383C47.3016 101.921 15.4307 83.8325 73.2401 86.7726C131.42 89.7128 146.243 75.9193 161.807 94.4599C177.37 113 179.965 108.705 207.387 111.192C234.439 113.452 222.951 97.8518 238.515 97.4C254.078 96.7224 268.161 99.2089 272.236 93.5564C275.942 87.678 302.253 92.1992 325.597 91.2958C349.315 90.3923 340.05 100.792 350.055 110.966C360.06 120.914 371.178 108.931 383.777 126.114C396.376 143.298 389.336 148.724 397.86 162.516C406.384 176.307 407.124 190.101 411.943 183.995C416.388 177.665 425.282 163.871 422.688 148.722C420.463 133.348 414.907 105.085 430.471 101.919C446.405 98.5275 444.924 103.954 453.075 111.415C461.228 119.103 474.568 114.582 476.048 127.016C477.903 139.452 485.683 173.367 493.466 161.835C501.25 150.529 490.502 126.562 504.585 119.78C518.667 113.224 521.629 104.18 523.853 100.788C526.448 97.3962 529.042 84.2823 555.721 89.0313C582.4 93.7803 607.971 93.7803 645.768 94.9097C683.195 95.8132 689.495 91.5178 698.019 102.371C706.542 113.45 704.688 115.485 727.292 114.58C749.896 113.448 741.002 119.101 755.084 122.719C769.167 126.111 764.719 109.831 785.472 109.153C806.224 108.701 835.127 110.51 854.766 110.51C874.405 110.51 861.066 121.815 879.224 136.738C897.012 151.435 900.347 143.294 902.571 157.313C904.795 171.105 905.166 166.358 912.205 175.402C919.245 184.446 916.281 202.533 922.58 205.022C928.88 207.282 923.321 144.201 924.804 131.765C926.288 119.329 917.024 101.242 928.509 99.8846C939.998 98.3016 951.113 114.356 956.672 112.773C962.231 110.964 990.024 95.8151 1004.1 98.5274C1018.19 101.468 1016.7 114.807 1033.01 116.842C1049.31 118.651 1045.98 130.408 1067.84 141.939C1089.7 153.244 1075.62 154.827 1091.93 155.73C1108.6 156.636 1119.35 149.852 1129.72 151.435C1139.73 152.792 1139.73 127.468 1157.15 118.425C1174.19 109.381 1158.63 101.242 1184.57 101.242C1210.14 101.242 1198.65 106.443 1213.1 115.939C1227.55 125.435 1227.92 119.331 1236.45 108.929C1244.6 98.7552 1247.94 105.989 1256.46 110.286C1265.35 114.582 1255.72 133.574 1259.79 141.261C1264.24 149.174 1282.03 143.973 1282.03 161.611C1282.03 179.248 1277.21 197.56 1284.99 198.464C1292.77 199.369 1290.55 102.823 1291.29 97.1703C1292.03 91.5178 1292.4 87.9 1302.04 87.6742C1311.67 87.4483 1319.08 87.6742 1319.08 80.4386C1319.08 74.1085 1318.34 63.4811 1317.97 57.151C1311.3 57.8286 1302.78 58.2822 1299.07 56.6992C1292.4 53.7591 1283.88 53.0814 1273.51 55.1162C1263.5 57.3768 1258.31 56.9251 1249.79 51.0467C1241.26 45.3942 1217.92 49.4637 1207.17 49.6896C1196.05 49.9154 1197.91 56.9251 1193.46 63.0293C1189.02 69.3595 1170.49 66.4212 1154.93 66.4212C1139.73 66.4212 1139.36 70.7166 1133.8 74.1085C1128.61 77.2745 1117.13 77.5004 1096.38 75.012C1075.62 72.2996 1046.35 63.707 1033.38 62.124C1020.04 60.7668 1007.81 65.7417 992.989 65.7417C978.165 65.7417 971.866 58.2803 954.451 59.1857C937.403 59.8633 851.805 53.0815 812.524 49.0119C772.873 44.9424 720.992 49.4637 698.759 49.2378C676.526 49.0119 605.007 40.4193 593.888 40.4193C583.143 40.4193 583.884 50.8208 572.395 51.4984C561.277 52.4019 455.666 51.9502 442.327 48.1065C428.987 44.2629 429.357 43.3575 413.053 39.288C396.749 35.2185 396.009 41.3228 382.296 41.7745C368.586 42.0004 317.817 37.9309 301.513 35.8961C284.839 33.6355 284.839 49.01 267.421 49.01C249.633 49.01 218.876 53.7571 207.761 44.0351C196.272 34.3131 195.532 30.4695 179.968 30.4695C164.404 30.4695 160.699 41.0969 145.136 41.5486C129.572 42.0004 118.454 33.6355 100.299 33.6355C81.7702 33.6355 41.3786 34.3131 26.9254 34.539C12.4723 34.7648 -0.496912 39.0602 -11.9854 49.6876C-23.1036 60.5409 -46.4476 65.9676 -51.2664 58.7321C-56.4616 51.2764 -43.1222 46.981 -43.1222 46.981Z" fill="#2A2A2A"></path><path fill-rule="evenodd" clip-rule="evenodd" d="M-60.1698 71.4001C-59.0592 76.1492 -57.9455 80.6704 -57.9455 83.3828C-58.3157 85.1916 -57.2051 86.5488 -55.7212 87.904C-54.9809 85.8693 -52.3864 84.0604 -46.0869 84.2862C-32.0039 84.9639 -25.7044 86.7728 -18.2943 83.8345C-10.8842 80.6685 5.79317 81.1221 0.234039 84.0604C-0.136152 84.738 -13.8489 93.3307 -25.3342 97.4002C-25.3342 97.4002 -11.6246 125.211 -10.8811 137.194C-10.5109 137.645 -10.5109 138.325 -10.5109 138.777C-9.40033 138.551 -8.28662 138.551 -6.80586 138.777C3.93908 140.36 -1.61691 130.184 -2.73062 121.593C-3.8412 113.001 9.86841 108.253 13.5735 111.192C17.6487 114.132 3.93908 134.254 9.49822 151.891C15.4275 169.526 15.7977 178.344 12.0927 188.292C9.49822 194.848 4.30927 188.518 0.234039 182.64C3.1987 188.97 5.05279 197.111 5.05279 205.024C5.05279 217.46 5.05279 222.659 15.0574 223.113C25.4321 223.564 19.1326 151.891 22.8408 139.004C26.916 126.116 12.8362 117.072 29.8807 109.385C47.2985 101.923 15.4275 83.8345 73.2369 86.7747C131.416 89.7148 146.24 75.9214 161.803 94.4619C175.513 110.742 178.848 109.385 197.75 110.514C194.785 108.028 194.045 104.636 194.785 101.244C196.266 96.043 189.596 93.5565 184.78 92.1994C180.335 91.0681 175.886 86.5469 175.886 84.9639C171.068 81.7978 179.962 78.8596 185.151 80.6685C190.71 82.7032 198.49 86.9986 211.833 87.904C224.802 88.8075 229.621 88.5816 228.137 98.7573C227.396 103.504 224.802 107.35 221.467 110.062C230.361 106.67 226.656 97.6261 238.511 97.4002C254.075 96.7226 268.158 99.209 272.233 93.5565C275.938 87.6781 302.25 92.1994 325.594 91.2959C349.311 90.3924 340.047 100.792 350.052 110.966C360.056 120.914 371.175 108.931 383.774 126.114C396.373 143.298 389.333 148.725 397.857 162.516C406.38 176.308 407.121 190.101 411.94 183.995C416.385 177.665 425.279 163.871 422.684 148.723C420.46 133.348 414.904 105.086 430.468 101.919C446.402 98.5276 444.921 103.954 453.071 111.416C461.225 119.103 474.565 114.582 476.045 127.016C477.899 139.452 485.68 173.367 493.463 161.835C501.246 150.53 490.498 126.562 504.581 119.781C518.664 113.225 521.626 104.18 523.85 100.788C526.445 97.3963 529.039 84.2824 555.718 89.0315C582.397 93.7805 607.968 93.7805 645.765 94.9098C683.192 95.8133 689.492 91.518 698.015 102.371C706.539 113.45 704.685 115.485 727.289 114.58C749.892 113.448 740.998 119.101 755.081 122.719C769.164 126.111 764.716 109.831 785.468 109.153C806.221 108.701 835.124 110.51 854.763 110.51C874.402 110.51 861.062 121.815 879.221 136.738C897.009 151.435 900.344 143.294 902.568 157.313C904.792 171.105 905.162 166.358 912.202 175.402C919.242 184.447 916.277 202.534 922.577 205.022C924.058 205.7 924.801 201.856 925.171 195.978C922.577 193.265 920.353 189.194 919.612 186.933C918.128 182.186 918.128 165.68 917.018 154.601C915.907 143.748 910.718 143.974 901.454 136.512C891.82 129.051 887.744 124.076 889.225 117.746C890.706 111.19 905.159 108.25 905.159 108.25C914.053 108.927 920.353 115.937 924.798 125.885C924.058 114.354 918.869 101.014 928.503 99.8828C939.992 98.2998 951.107 114.354 956.666 112.771C962.225 110.962 990.017 95.8133 1004.1 98.5257C1018.18 101.466 1016.7 114.806 1033 116.84C1049.3 118.649 1045.97 130.406 1067.83 141.937C1089.7 153.242 1075.62 154.825 1091.92 155.728C1108.59 156.634 1119.34 149.85 1129.72 151.433C1139.72 152.79 1139.72 127.466 1157.14 118.423C1174.18 109.379 1158.62 101.24 1184.56 101.24C1210.13 101.24 1198.65 106.441 1213.1 115.937C1227.55 125.433 1227.92 119.329 1236.44 108.927C1244.6 98.7535 1247.93 105.987 1256.45 110.284C1263.49 113.676 1258.68 126.111 1258.68 135.155C1262.38 132.443 1267.57 129.277 1267.94 126.111C1268.31 121.136 1274.61 121.136 1274.61 121.136C1285.73 118.875 1286.47 139.676 1279.05 144.198C1275.35 146.684 1269.42 146.458 1264.6 145.103C1271.27 148.043 1282.02 148.043 1282.02 161.609C1282.02 179.244 1277.2 197.559 1284.98 198.462C1292.77 199.367 1290.54 102.821 1291.28 97.1686C1292.02 91.516 1292.39 87.8983 1302.03 87.6724C1311.66 87.4465 1319.08 87.6724 1319.08 80.4369C1319.08 79.0798 1319.08 77.4967 1319.08 75.6898C1312.41 75.9156 1303.51 73.655 1300.55 76.5932C1296.47 81.1145 1286.09 81.3423 1284.98 71.1666C1283.87 60.9928 1264.6 64.3828 1253.86 63.7052C1243.48 63.0276 1226.43 61.4446 1224.21 68.906C1221.99 76.3674 1215.69 84.5064 1197.9 84.7322C1180.48 84.9581 1168.63 80.4369 1160.1 82.6975C1151.21 85.184 1136.02 96.7149 1127.12 98.7496C1118.23 100.559 1108.96 100.784 1100.07 99.4273C1091.18 98.0701 1061.9 102.367 1036.71 99.2014C1011.14 95.8095 1031.15 81.3404 1011.51 75.4601C991.868 69.5817 962.962 74.5566 955.552 82.2439C948.142 89.7053 905.156 90.157 872.174 89.7052C838.823 89.2535 846.976 81.1126 827.337 79.7573C807.699 78.6261 806.585 79.7573 794.356 86.767C782.127 93.5508 773.233 86.0894 758.04 86.9929C742.846 87.6705 716.908 90.1589 709.494 89.4794C702.084 88.8018 707.64 85.4099 701.341 84.7322C695.041 83.8288 697.266 74.5585 681.702 74.1048C666.508 73.6531 643.535 69.1299 625.006 68.0006C606.848 66.6434 616.482 72.0701 587.209 72.5218C557.936 72.9736 517.914 66.4176 509.391 67.7747C500.867 69.3577 501.237 74.5585 494.197 75.9137C487.157 77.2709 482.709 80.435 473.074 83.8269C463.44 87.2188 449.357 86.0875 438.612 76.8172C428.237 67.5469 433.793 64.3809 418.23 64.3809C402.666 64.3809 383.397 60.7631 379.319 62.572C375.614 64.6068 365.236 72.7458 351.896 72.9736C338.557 73.1994 341.151 74.7825 339.297 80.2091C337.817 85.4099 327.439 82.6956 311.135 82.018C295.201 81.3404 297.425 82.6956 278.153 80.2091C258.514 77.4967 257.771 70.0353 243.691 68.6782C229.608 67.3211 233.686 71.1647 230.352 77.0431C226.646 82.6956 221.828 80.435 204.783 76.5913C188.109 72.7477 182.55 67.9987 166.616 64.155C151.052 60.3114 128.819 70.711 115.106 69.5817C101.396 68.2245 107.323 60.0855 87.3136 56.9195C67.3044 53.5276 54.7023 49.0063 35.4335 49.0063C16.1648 49.0063 6.90061 60.989 -1.99338 67.9987C-11.2576 74.7825 -17.5571 74.5547 -33.8612 77.0431C-42.3818 78.182 -52.3864 75.0179 -60.1698 71.4001ZM1070.43 117.75C1072.28 117.975 1097.48 120.236 1113.04 118.427C1128.98 116.844 1138.98 114.358 1143.8 120.236C1148.25 125.889 1131.94 136.516 1131.2 139.906C1130.46 143.524 1089.33 142.846 1083.77 137.42C1078.21 131.767 1075.99 128.601 1063.76 123.854C1051.53 118.881 1055.6 114.358 1070.43 117.75ZM756.559 95.1396C755.078 96.7226 745.07 103.053 745.07 107.122C744.7 110.966 748.405 120.01 755.445 119.105C762.488 118.201 766.193 93.3307 756.559 95.1396ZM477.523 96.0449C475.299 96.0449 464.183 91.2959 460.849 96.9484C457.514 102.601 458.995 110.966 473.448 115.037C487.901 119.107 503.464 116.394 505.315 111.645C506.796 107.124 516.434 102.375 503.461 99.8886C490.862 97.4002 489.011 102.827 477.523 96.0449ZM389.327 97.8538C388.216 98.0797 376.357 103.506 375.617 106.672C375.247 109.613 385.992 115.491 392.664 127.474C399.334 139.456 397.483 158.223 404.523 160.257C411.563 162.066 422.681 160.483 417.863 145.335C413.417 130.412 409.339 111.194 411.563 106.445C413.414 101.697 408.228 79.765 389.327 97.8538Z" fill="#313131"></path><path fill-rule="evenodd" clip-rule="evenodd" d="M500.127 104.636C497.902 105.767 494.197 107.348 483.822 105.993C473.448 104.638 463.813 106.219 465.664 110.514C467.145 115.035 478.263 121.367 495.311 117.07C511.985 113.003 509.761 105.087 500.127 104.636Z" fill="#3B3B3B"></path><path fill-rule="evenodd" clip-rule="evenodd" d="M402.669 97.8536C402.669 97.8536 394.145 99.8883 395.259 105.089C395.999 110.064 403.783 124.533 406.004 136.744C408.228 148.952 415.268 157.771 418.973 153.249C422.678 148.728 415.268 116.848 415.268 109.612C414.898 102.375 413.414 95.591 402.669 97.8536Z" fill="#3B3B3B"></path><path fill-rule="evenodd" clip-rule="evenodd" d="M212.94 96.2709C210.346 96.4968 202.195 98.3057 190.707 97.6281C179.218 96.9504 173.659 100.568 176.624 103.958C179.588 107.124 200.711 112.097 214.421 109.159C227.76 106.219 221.091 94.462 212.94 96.2709Z" fill="#3B3B3B"></path><path fill-rule="evenodd" clip-rule="evenodd" d="M124.744 46.3018C124.744 46.3018 117.334 44.0412 105.845 43.5894C94.3567 42.9118 105.105 56.9292 110.664 59.4157C115.853 62.1281 134.011 57.3809 139.937 55.1203C145.496 53.0856 133.268 47.2072 124.744 46.3018Z" fill="#3B3B3B"></path><path fill-rule="evenodd" clip-rule="evenodd" d="M355.608 49.9191C355.608 49.9191 348.938 51.5021 329.669 53.5369C310.771 55.3457 302.987 58.2859 291.132 59.6411C279.273 60.9982 275.568 68.9114 292.613 71.6238C310.03 74.1103 327.445 72.5273 332.264 65.7454C336.709 59.1894 335.969 55.3458 350.052 56.2492C364.135 57.1527 380.069 60.5446 385.254 56.701C390.81 52.8592 373.393 47.4326 355.608 49.9191Z" fill="#3B3B3B"></path><path fill-rule="evenodd" clip-rule="evenodd" d="M932.578 72.0774C932.578 72.0774 897.376 70.2685 890.703 74.7897C884.033 79.311 853.276 79.311 875.88 83.6083C898.486 87.9037 940.729 84.7395 932.578 72.0774Z" fill="#3B3B3B"></path><path fill-rule="evenodd" clip-rule="evenodd" d="M1130.83 123.402C1130.83 123.402 1125.64 119.559 1113.79 122.499C1101.56 125.439 1102.67 128.377 1090.07 128.603C1077.47 128.829 1070.06 129.281 1075.99 135.159C1082.29 141.263 1085.62 143.524 1099.7 143.524C1113.79 143.298 1127.13 144.655 1131.2 142.167C1135.28 139.68 1130.09 127.922 1133.06 126.566C1135.65 125.211 1130.83 123.402 1130.83 123.402Z" fill="#3B3B3B"></path><path fill-rule="evenodd" clip-rule="evenodd" d="M1148.99 167.265C1148.99 167.265 1128.98 169.526 1128.98 177.667C1128.98 185.806 1131.94 190.103 1131.94 197.79C1131.94 205.478 1156.4 201.408 1163.44 198.016C1170.48 194.85 1164.92 183.999 1165.66 177.215C1166.4 170.205 1155.29 164.327 1148.99 167.265Z" fill="#3B3B3B"></path><path fill-rule="evenodd" clip-rule="evenodd" d="M534.219 124.308C534.219 124.308 518.655 126.116 520.509 131.543C521.99 137.196 518.285 142.396 527.179 140.813C535.702 139.003 547.931 128.829 534.219 124.308Z" fill="#3B3B3B"></path><path fill-rule="evenodd" clip-rule="evenodd" d="M450.841 189.197C448.617 190.329 440.466 193.947 441.577 196.885C443.058 199.597 452.695 204.798 456.4 203.669C460.475 202.763 464.554 188.746 450.841 189.197Z" fill="#3B3B3B"></path><path fill-rule="evenodd" clip-rule="evenodd" d="M677.257 174.726C677.257 174.726 671.697 172.918 672.811 177.892C674.292 182.64 680.591 186.711 683.929 185.128C686.891 183.771 688.745 174.275 677.257 174.726Z" fill="#3B3B3B"></path><path fill-rule="evenodd" clip-rule="evenodd" d="M955.922 240.07C948.142 241.427 941.469 240.522 938.505 244.817C935.91 249.113 937.394 252.279 941.84 251.827C945.915 251.375 944.804 244.591 956.663 243.914C968.151 243.236 966.3 239.165 955.922 240.07Z" fill="#3B3B3B"></path><path fill-rule="evenodd" clip-rule="evenodd" d="M103.621 225.148C103.621 225.148 100.656 225.373 91.7622 227.182C83.2384 228.765 85.4627 230.8 90.2815 234.192C95.4704 237.584 125.854 224.922 103.621 225.148Z" fill="#3B3B3B"></path><path fill-rule="evenodd" clip-rule="evenodd" d="M65.8237 164.778C65.8237 164.778 57.2999 164.327 59.5242 168.17C61.3783 172.014 59.154 173.823 64.7131 172.917C70.6425 172.24 76.5718 166.361 65.8237 164.778Z" fill="#3B3B3B"></path></svg> 