<?xml version="1.0" encoding="UTF-8"?> <svg xmlns="http://www.w3.org/2000/svg" width="661" height="305" viewBox="0 0 661 305" fill="none"><path d="M550.767 217.812C548.905 216.101 547.039 214.396 545.181 212.679C535.044 203.317 524.992 193.848 515.212 184.081C510.325 179.201 505.505 174.246 500.778 169.198C496.862 165.017 493.196 160.603 489.497 156.217C482.157 147.516 474.757 138.81 466.462 131.061C466.133 130.828 465.804 130.59 465.472 130.367C460.478 127.026 455.109 125.421 449.825 123.764C438.453 120.197 427 117.424 415.644 113.698C393.342 106.377 371.177 97.9497 349.236 88.1677C338.036 83.1741 327.043 77.272 315.922 71.8742C311.041 69.5059 305.911 68.4282 301.085 65.8672C295.763 63.0446 291.46 56.1964 287.618 49.8573C284.632 44.9326 282.303 39.5865 279.731 34.2311C274.23 31.0514 268.699 27.9265 263.162 24.8125C261.736 24.0105 260.266 23.2618 258.904 22.347C257.622 21.4855 256.353 20.6036 255.093 19.7061C252.556 17.8985 250.059 16.0283 247.58 14.1345C242.616 10.3423 237.724 6.45302 232.705 2.73914C231.53 1.8698 230.348 1.01143 229.156 0.165588C226.975 1.22916 224.794 2.29429 222.613 3.35786C218.392 5.41608 214.175 7.48839 209.988 9.62336C206.49 11.4059 203.013 13.2354 199.57 15.1292C197.675 17.543 195.742 19.8831 193.784 22.2452C185.232 32.5629 176.784 43.4054 167.362 51.6085C157.667 60.0497 147.003 65.7059 136.572 71.232C134.655 72.247 132.731 73.2401 130.805 74.2269C123.692 79.927 116.513 85.5362 109.267 91.0529C101.617 96.8767 93.8962 102.599 86.1082 108.224C82.2925 110.979 78.4612 113.711 74.6157 116.42C68.286 123.905 62.0017 131.431 55.8098 139.037C48.202 148.385 40.7257 157.853 33.4577 167.487C31.7456 169.757 30.0461 172.039 28.356 174.328C28.0286 176.099 27.7013 177.871 27.377 179.642C25.7903 188.325 24.1816 196.99 22.4116 205.635C21.583 209.685 20.7575 213.741 19.9994 217.81H550.767V217.812Z" fill="#313131"></path><path d="M40.4233 161.197C39.1107 162.901 37.8529 164.654 36.7047 166.482C35.7712 167.97 34.8893 169.514 34.2205 171.151C33.5391 172.816 33.5203 174.663 33.6848 176.438C33.8947 178.703 34.4319 180.935 35.0632 183.11C36.2192 187.095 37.7573 190.955 39.424 194.736C41.3804 190.952 42.953 186.97 44.2813 182.905C46.7734 175.28 48.4573 167.407 50.4528 159.635C51.6386 155.017 52.9434 150.411 54.5755 145.937C52.9058 147.432 51.2955 149.003 49.726 150.596C46.4351 153.94 43.2992 157.464 40.4233 161.197Z" fill="#1E1E1E"></path><path d="M203.702 49.2777C203.024 46.3862 202.363 43.4884 201.735 40.5844C201.373 46.1434 201.163 51.715 201.033 57.2819C200.79 67.7531 200.837 78.2306 200.723 88.7034C200.607 99.4017 200.759 110.091 201.035 120.784C201.174 126.221 201.346 131.658 201.503 137.095C201.644 141.993 201.6 146.894 201.583 151.794C201.552 161.394 201.547 171.132 203.445 180.57C203.705 179.865 203.954 179.155 204.177 178.435C207.107 168.975 207.402 158.839 208.442 149.034C209.017 143.616 209.849 138.232 210.434 132.814C211.066 126.964 211.551 121.094 211.846 115.214C212.139 109.38 212.247 103.534 212.117 97.6912C211.993 92.1322 211.332 86.5653 210.481 81.0814C208.813 70.3549 206.176 59.8273 203.702 49.2777Z" fill="#1E1E1E"></path><path d="M244.572 44.2246C243.214 53.2485 241.986 62.2927 240.891 71.3558C239.901 79.5479 239.027 87.7541 238.253 95.9713C239.669 91.2895 241.107 86.6154 242.411 81.899C243.791 76.9039 245.02 71.8586 245.896 66.7397C246.774 61.5973 247.255 56.4235 247.113 51.1981C246.975 46.1669 246.386 41.1655 245.822 36.1703C245.395 38.8535 244.976 41.5383 244.572 44.2246Z" fill="#1E1E1E"></path><path d="M87.5931 113.261C85.4111 115.04 82.9989 116.492 80.7668 118.2C78.5567 119.891 76.4061 121.79 75.4819 124.558C74.5013 127.498 74.4919 130.721 74.6266 133.795C74.7645 136.941 75.1529 140.071 75.283 143.219C75.4427 147.095 75.4882 150.979 75.5258 154.858C75.5994 162.605 75.5633 170.366 76.0896 178.099C76.2197 177.771 76.3544 177.445 76.4797 177.114C78.6131 171.491 80.1716 165.656 81.6816 159.828C83.2151 153.913 84.6843 147.97 86.6094 142.175C88.5439 136.348 90.978 130.709 93.5626 125.165C96.1878 119.534 98.9838 113.991 101.665 108.388C103.348 104.873 104.983 101.331 106.499 97.7366C102.569 100.468 98.8914 103.622 95.2715 106.734C92.7214 108.921 90.1949 111.14 87.5931 113.261Z" fill="#1E1E1E"></path><path d="M229.833 22.0385C229.515 31.2926 228.813 40.5248 228.377 49.7727C228.161 54.3763 228.009 58.9845 228.014 63.5928C228.019 68.1995 228.183 72.8047 228.202 77.4114C228.276 95.6831 227.602 114.003 229.125 132.23C229.143 132.037 229.161 131.844 229.181 131.652C230.154 121.868 231.336 112.11 232.619 102.365C233.918 92.5018 235.323 82.654 236.725 72.8062C238.128 62.9522 239.532 53.0997 240.827 43.2299C242.129 33.3258 243.321 23.4059 244.295 13.461C244.351 12.8861 244.405 12.3113 244.459 11.7364C240.556 8.71801 236.668 5.67611 232.704 2.74229C231.656 1.96693 230.599 1.20254 229.538 0.445984C230.088 7.62155 230.078 14.8441 229.833 22.0385Z" fill="#070707"></path><path d="M293.138 67.4022C291.834 73.4296 290.299 79.4022 288.647 85.3357C286.971 91.3505 285.174 97.3278 283.354 103.299C281.554 109.206 279.729 115.106 277.98 121.03C276.429 126.281 274.944 131.552 273.592 136.862C273.685 136.722 273.78 136.586 273.871 136.445C277.201 131.299 279.971 125.787 282.61 120.236C285.304 114.567 287.853 108.825 290.666 103.217C292.044 100.468 293.56 97.8103 295.012 95.1036C296.612 92.1228 298.186 89.1294 299.752 86.1298C302.732 80.4235 305.686 74.7031 308.72 69.0266C306.146 68.1149 303.576 67.1892 301.087 65.8688C298.733 64.6204 296.579 62.5825 294.575 60.1515C294.137 62.5778 293.658 64.9947 293.138 67.4022Z" fill="#070707"></path><path d="M368.468 199.044C368.7 191.395 369.151 183.757 369.472 176.112C368.85 179.086 368.231 182.062 367.611 185.037C366.07 192.432 364.502 199.824 362.732 207.164C361.872 210.727 360.966 214.281 359.981 217.812H368.772C368.651 215.304 368.469 212.801 368.366 210.293C368.211 206.551 368.355 202.786 368.468 199.044Z" fill="#070707"></path><path d="M416.488 199.841C418.678 194.131 420.605 188.198 421.422 182.089C419.262 184.594 417.301 187.274 415.501 190.065C411.82 195.773 408.75 201.879 405.87 208.052C404.36 211.288 402.908 214.551 401.451 217.812H408.612C411.396 211.899 414.142 205.957 416.488 199.841Z" fill="#070707"></path><path d="M342.845 202.187C343.233 192.15 344.001 182.133 344.544 172.105C345.088 162.047 345.276 152.016 344.883 141.948C344.682 136.826 344.419 131.705 344.32 126.578C344.306 125.878 344.299 125.178 344.288 124.478C343.722 128.779 343.194 133.085 342.682 137.388C341.31 148.932 340.09 160.457 338.03 171.9C335.945 183.485 333.342 194.965 330.444 206.358C329.47 210.187 328.461 214.004 327.426 217.813H342.641C342.547 212.604 342.643 207.389 342.845 202.187Z" fill="#070707"></path><path d="M307.351 180.255C309.536 173.346 311.884 166.49 314.517 159.749C316.733 154.078 319.154 148.492 321.816 143.031C317.249 149.305 312.973 155.802 308.819 162.375C304.607 169.04 300.522 175.788 296.383 182.503C294.327 185.839 292.286 189.191 290.138 192.466C287.94 195.818 285.746 199.172 283.58 202.546C280.354 207.571 277.197 212.644 274.189 217.812H295.083C296.945 212.286 298.892 206.789 300.758 201.265C303.108 194.31 305.138 187.255 307.351 180.255Z" fill="#070707"></path><path d="M248.342 179.279C249.896 173.599 251.406 167.904 252.722 162.159C254.035 156.432 255.059 150.655 256.044 144.861C257.98 133.469 259.786 122.053 261.902 110.694C263.779 100.617 265.905 90.583 268.569 80.6976C268.541 80.7603 268.513 80.8229 268.486 80.8872C264.136 90.8634 260.184 101.024 256.514 111.29C252.893 121.417 249.544 131.649 246.341 141.926C243.12 152.261 240.048 162.644 236.992 173.032C233.935 183.425 230.896 193.823 227.74 204.184C226.354 208.736 224.939 213.28 223.498 217.815H237.426C238.028 215.414 238.662 213.023 239.317 210.646C242.204 200.151 245.471 189.777 248.342 179.279Z" fill="#070707"></path><path d="M469.424 149.197C471.529 159.322 474.051 169.347 476.704 179.331C479.369 189.351 482.168 199.332 484.835 209.35C485.585 212.168 486.322 214.988 487.044 217.813H550.767C548.905 216.103 547.039 214.397 545.181 212.68C535.044 203.318 524.992 193.849 515.212 184.083C510.325 179.202 505.505 174.248 500.778 169.199C496.862 165.019 493.196 160.605 489.497 156.219C482.157 147.518 474.757 138.812 466.462 131.063C466.358 130.989 466.253 130.917 466.148 130.844C467.049 136.996 468.16 143.114 469.424 149.197Z" fill="#070707"></path><path d="M440.811 205.505C443.214 197.941 445.541 190.349 447.704 182.706C449.839 175.161 451.818 167.566 453.516 159.901C455.026 153.089 456.312 146.219 457.236 139.294C456.948 139.858 456.662 140.424 456.368 140.983C451.929 149.438 446.904 157.546 441.762 165.556C439.177 169.583 436.558 173.587 433.956 177.603C431.756 180.999 429.675 184.451 427.694 187.99C423.831 194.885 420.211 201.921 416.461 208.88C414.848 211.875 413.211 214.858 411.527 217.812H436.838C438.176 213.714 439.504 209.613 440.811 205.505Z" fill="#070707"></path><path d="M200.07 173.822C199.675 163.811 199.276 153.802 198.77 143.796C198.269 133.871 197.662 123.95 196.846 114.047C196.066 104.564 195.089 95.0973 193.836 85.6693C193.66 86.3835 193.483 87.0962 193.311 87.8121C190.972 97.4609 188.822 107.157 186.814 116.886C184.776 126.757 182.887 136.663 181.112 146.589C179.345 156.474 177.691 166.383 176.129 176.306C174.602 185.999 173.163 195.706 171.789 205.422C171.205 209.551 170.638 213.681 170.077 217.812H202.111C201.826 213.105 201.57 208.396 201.34 203.686C200.851 193.735 200.463 183.779 200.07 173.822Z" fill="#070707"></path><path opacity="0.6" d="M20.2922 217.812H135.678C135.624 217.06 135.576 216.308 135.518 215.556C135.056 209.631 134.537 203.714 134.158 197.781C133.391 185.781 132.893 173.765 132.268 161.758C131.968 156.001 131.719 150.263 131.625 144.499C131.533 138.832 131.475 133.165 131.353 127.498C131.115 116.535 130.661 105.537 129.094 94.6807C124.912 102.519 120.89 110.451 117.199 118.552C113.781 126.055 110.644 133.699 107.951 141.515C106.791 144.886 105.777 148.28 104.366 151.554C102.973 154.784 101.354 157.903 99.5821 160.924C92.4191 173.139 82.9566 183.637 74.517 194.875C74.3792 195.06 74.0909 194.938 74.0377 194.744C72.924 190.728 72.2035 186.613 71.7195 182.467C70.0403 168.098 71.1352 153.321 67.697 139.21C67.6187 143.736 67.6296 148.263 67.6766 152.79C67.8693 171.521 68.618 190.458 65.4352 208.99C65.4085 209.144 65.2206 209.244 65.0827 209.198C61.1073 207.853 56.7872 207.837 52.6629 207.381C49.1684 206.994 45.4874 206.476 42.3719 204.675C39.4913 203.01 37.679 200.096 36.3679 197.04C34.8454 193.491 33.8899 189.713 32.8514 185.989C31.9132 182.626 30.9561 179.176 29.324 176.09C29.0671 180.048 29.1689 184.011 29.4195 187.968C29.7986 193.951 30.7133 200.287 29.0874 206.158C27.6918 211.195 24.3116 214.928 20.2922 217.812Z" fill="#070707"></path><path d="M368.465 209.164C370.444 189.683 372.113 170.171 373.843 150.664C375.252 134.791 376.705 118.919 378.398 103.075C378.165 104.408 377.932 105.741 377.698 107.072C375.419 120.104 372.919 133.094 370.377 146.075C367.907 158.681 365.349 171.248 362.483 183.765C359.886 195.104 357.209 206.424 354.831 217.815H367.564C367.871 214.93 368.172 212.048 368.465 209.164Z" fill="#070707"></path><path d="M396.819 178.887C397.944 171.754 399.009 164.611 400.054 157.466C400.807 152.308 401.55 147.148 402.292 141.988C400.879 147.485 399.358 152.951 397.781 158.399C395.915 164.84 393.981 171.258 392.076 177.684C390.159 184.155 388.271 190.635 386.519 197.154C384.777 203.631 383.167 210.149 381.794 216.722C381.719 217.085 381.647 217.45 381.572 217.813H389.86C391.066 211.966 392.189 206.1 393.245 200.221C394.517 193.124 395.696 186.011 396.819 178.887Z" fill="#070707"></path><path d="M278.057 33.2741C275.054 46.6463 272.234 60.0607 269.415 73.4751C266.354 88.0314 263.281 102.588 259.937 117.078C256.691 131.14 253.095 145.105 249.517 159.079C245.938 173.059 242.409 187.058 239.391 201.18C238.21 206.703 237.115 212.248 236.123 217.813H245.03C247.091 213.365 249.249 208.962 251.391 204.556C258.046 190.862 264.913 177.28 271.88 163.756C278.788 150.347 285.754 136.971 292.589 123.522C299.411 110.099 306.167 96.6387 312.899 83.1678C314.608 79.7485 316.314 76.3275 318.021 72.9065C317.321 72.5635 316.622 72.2158 315.922 71.8759C311.041 69.5075 305.911 68.4298 301.085 65.8688C295.763 63.0462 291.46 56.198 287.618 49.8589C284.632 44.9342 282.303 39.5882 279.731 34.2327C279.173 33.9101 278.614 33.5952 278.057 33.2741Z" fill="#070707"></path><path opacity="0.6" d="M191.585 185.92C192.739 155.432 193.244 124.927 193.861 94.4237C194.168 79.2409 194.57 64.058 195.429 48.8955C195.841 41.6134 196.517 34.3486 196.629 27.0524C196.671 24.2642 196.679 21.4714 196.722 18.6801C195.751 19.8706 194.771 21.0547 193.784 22.2452C185.232 32.5629 176.784 43.4053 167.362 51.6085C157.666 60.0496 147.003 65.7058 136.572 71.232C135.917 71.5782 135.261 71.9196 134.606 72.2611C133.157 82.358 131.447 92.4125 129.672 102.453C127.409 115.257 125.047 128.041 123.001 140.884C120.969 153.636 119.406 166.41 118.435 179.296C117.476 192.021 116.847 204.772 115.764 217.488C115.755 217.596 115.746 217.702 115.736 217.81H190.116C190.701 207.187 191.182 196.555 191.585 185.92Z" fill="#070707"></path><path d="M161.344 119.163C162.253 113.811 163 108.43 163.63 103.034C164.969 91.5636 165.804 80.0398 166.681 68.5253C167.04 63.8278 167.408 59.1286 167.818 54.4358C167.616 55.7641 167.409 57.0924 167.214 58.4222C165.649 69.0203 164.255 79.6482 163.205 90.3167C162.262 99.9061 161.606 109.528 161.344 119.163Z" fill="#1E1E1E"></path><path d="M170.868 105.93C170.053 113.267 169.432 120.629 169.049 128.005C168.672 135.275 168.523 142.56 168.666 149.839C168.796 156.49 169.172 163.134 169.847 169.749C169.947 169.37 170.053 168.994 170.149 168.614C171.849 161.928 172.929 155.085 173.716 148.223C174.499 141.382 174.986 134.509 175.412 127.636C175.624 124.218 175.902 120.795 175.993 117.371C176.089 113.79 175.967 110.208 175.728 106.635C175.254 99.5114 174.316 92.4329 173.662 85.3263C172.578 92.1729 171.634 99.0415 170.868 105.93Z" fill="#1E1E1E"></path><path d="M141.524 155.652C141.494 154.544 141.42 153.435 141.417 152.328C141.408 150.112 141.246 147.898 141.007 145.696C140.731 143.157 140.352 140.633 139.968 138.112C139.606 141.767 139.298 145.428 139.063 149.093C138.786 153.412 138.605 157.737 138.549 162.065C138.493 166.369 138.56 170.676 138.787 174.976C138.981 178.662 139.301 182.34 139.76 185.999C140.469 181.58 140.933 177.121 141.223 172.653C141.516 168.115 141.629 163.567 141.586 159.019C141.572 157.896 141.553 156.773 141.524 155.652Z" fill="#1E1E1E"></path><path opacity="0.6" d="M159.152 205.903C160.563 195.327 161.537 184.683 161.998 174.014C162.435 163.897 162.399 153.756 161.797 143.647C161.742 143.92 161.691 144.192 161.634 144.465C160.375 150.574 158.827 156.612 157.262 162.643C155.71 168.629 154.136 174.611 152.819 180.659C152.161 183.677 151.594 186.71 151.075 189.756C150.544 192.875 150.031 196 149.7 199.148C149.418 201.832 149.271 204.524 149.28 207.223C149.29 209.836 149.395 212.447 149.454 215.058C149.474 215.976 149.492 216.894 149.498 217.812H157.369C158.022 213.852 158.621 209.883 159.152 205.903Z" fill="#070707"></path><path d="M32.3753 196.288C30.9687 189.332 29.5621 182.376 28.1555 175.419C27.8955 176.828 27.6355 178.236 27.377 179.644C25.7903 188.326 24.1816 196.992 22.4116 205.636C21.583 209.687 20.7575 213.742 19.9994 217.812H36.7267C35.2762 210.638 33.8258 203.462 32.3753 196.288Z" fill="#070707"></path><path d="M354.156 163.795C355.254 160.58 356.361 157.362 357.591 154.198C358.733 151.255 359.716 148.241 360.338 145.132C360.65 143.569 360.885 141.982 361.005 140.391C361.126 138.796 361.059 137.167 360.974 135.572C360.797 132.283 360.354 129.016 359.848 125.765C359.414 122.976 358.921 120.184 358.507 117.382C358.065 119.155 357.647 120.935 357.257 122.719C355.537 130.571 354.251 138.52 353.149 146.488C352.079 154.215 351.203 161.967 350.208 169.704C349.76 173.183 349.322 176.665 348.918 180.15C350.567 174.666 352.306 169.21 354.156 163.795Z" fill="#1E1E1E"></path><path d="M389.249 116.781C387.8 119.924 386.539 123.157 385.405 126.436C384.289 129.662 383.295 132.931 382.353 136.216C381.414 139.49 380.493 142.765 379.738 146.091C378.212 152.802 376.932 159.571 375.526 166.311C375.392 166.952 375.256 167.591 375.12 168.23C374.023 176.167 373.395 184.161 373.939 192.159C374.066 191.775 374.199 191.393 374.321 191.008C376.597 183.848 378.16 176.464 379.512 169.065C380.87 161.627 381.996 154.148 383.339 146.708C384.692 139.197 386.526 131.802 388.086 124.335C388.721 121.296 389.339 118.253 389.96 115.209C389.762 115.75 389.488 116.259 389.249 116.781Z" fill="#1E1E1E"></path><path d="M402.983 162.074C401.632 167.614 400.44 173.197 399.414 178.811C398.398 184.371 397.543 189.965 396.875 195.583C396.3 200.414 395.874 205.263 395.602 210.122C395.669 209.95 395.74 209.779 395.805 209.607C397.956 204.004 399.67 198.227 401.166 192.404C402.68 186.508 403.971 180.554 405.241 174.599C405.868 171.655 406.49 168.711 407.132 165.77C407.749 162.942 408.141 160.075 408.419 157.191C408.983 151.344 409.123 145.464 409.577 139.609C409.591 139.43 409.605 139.252 409.621 139.073C408.886 141.258 408.175 143.453 407.498 145.657C405.83 151.078 404.328 156.555 402.983 162.074Z" fill="#1E1E1E"></path><path d="M457.289 157.544C454.656 165.733 452.784 174.166 451.208 182.636C449.769 190.364 448.588 198.14 447.33 205.903C449.206 201.839 450.867 197.67 452.287 193.409C453.718 189.116 454.906 184.736 455.829 180.294C456.739 175.91 457.458 171.433 457.726 166.953C457.939 163.388 457.829 159.8 457.729 156.211C457.579 156.656 457.431 157.099 457.289 157.544Z" fill="#1E1E1E"></path><path d="M660.489 194.252C649.305 190.568 590.705 205.679 572.811 202.071H137.843C137.321 202.258 136.798 202.441 136.276 202.627C113.423 210.816 90.6634 219.265 67.7677 227.334C54.0854 232.155 40.3421 236.754 26.5329 241.154C23.9969 243.914 2.84775 231.334 0.289856 234.072L0.285156 234.077C0.521679 236.535 1.59151 268.103 1.79827 270.935C8.6355 273.98 15.5918 276.767 22.617 279.35C24.0267 279.869 25.4411 280.378 26.8556 280.882C39.9411 283.905 53.0203 286.963 66.1121 289.965C73.4098 290.705 80.6903 291.629 87.9458 292.611C107.073 295.199 126.157 298.331 145.419 299.779C165.367 301.279 185.313 302.759 205.252 304.379C215.988 303.062 226.708 301.53 237.411 300.56C289.507 295.839 341.868 295.202 394.139 294.564C403.342 294.451 412.543 294.337 421.745 294.196C426.336 293.557 430.926 292.902 435.512 292.232C455.715 289.273 475.874 286.029 496.021 282.711C516.069 279.41 536.106 276.034 556.165 272.793C576.31 269.538 596.479 266.421 616.698 263.653C619.378 263.287 622.059 262.927 624.742 262.573C631.44 257.156 638.007 251.578 644.363 245.767C649.914 240.692 655.304 235.44 660.492 229.995C659.809 229.801 661.154 194.47 660.489 194.252Z" fill="#202020"></path><path d="M632.239 224.929C635.796 221.45 639.562 218.194 643.342 214.958C647.162 211.686 651.008 208.439 654.698 205.018C656.755 203.111 658.764 201.145 660.678 199.094C660.689 196.199 660.642 194.299 660.49 194.249C649.306 190.565 590.707 205.675 572.812 202.068H137.843C137.321 202.254 136.798 202.438 136.276 202.624C113.423 210.813 90.6634 219.262 67.7677 227.331C54.0854 232.152 40.3421 236.751 26.5329 241.151C23.9969 243.911 2.84775 231.331 0.289856 234.069L0.285156 234.074C0.292988 234.152 0.30082 234.262 0.310219 234.4C4.87777 238.433 10.3663 241.498 15.7766 244.158C22.3241 247.375 29.1425 250.007 36.0283 252.4C54.9501 258.974 74.9793 259.242 94.6827 261.49C115.769 263.896 136.801 266.744 157.913 268.957C168.285 270.044 178.756 269.941 189.145 270.893C194.386 271.374 199.544 272.309 204.7 273.254C209.099 272.779 213.486 272.204 217.867 271.603C228.072 270.199 238.238 268.921 248.509 268.128C267.554 266.659 286.49 263.832 305.595 263.116C314.943 262.765 324.32 262.881 333.674 262.861C343.254 262.84 352.832 262.845 362.412 262.836C384.351 262.815 406.302 262.724 428.236 262.109C430.767 261.849 433.297 261.584 435.82 261.275C440.808 260.668 445.745 259.614 450.69 258.727C455.69 257.831 460.693 256.952 465.702 256.11C475.613 254.443 485.565 253.061 495.482 251.428C505.352 249.802 515.197 248.03 525.046 246.284C544.48 242.839 564 239.977 583.469 236.748C593.152 235.142 602.821 233.441 612.454 231.555C618.06 230.457 623.638 229.242 629.213 228.012C630.2 226.967 631.21 225.938 632.239 224.929Z" fill="#070707"></path><path d="M2.94796 252.275C2.04573 247.518 1.20458 242.748 0.487183 237.96C0.881909 247.067 1.62907 268.619 1.7998 270.935C3.55258 271.715 5.31318 272.478 7.08005 273.225C5.72357 266.239 4.27624 259.269 2.94796 252.275Z" fill="#070707"></path><path d="M52.1682 239.656C50.5752 243.314 49.0198 246.989 47.5396 250.693C44.2361 258.954 41.2114 267.341 38.7397 275.89C38.0426 278.302 37.3879 280.736 36.7896 283.186C39.7876 283.881 42.7872 284.575 45.7852 285.271C46.0077 282.638 46.1784 279.998 46.3977 277.365C46.7282 273.377 47.3391 269.455 48.0925 265.527C49.7325 256.966 51.8377 248.395 52.1682 239.656Z" fill="#070707"></path><path d="M242.835 290.853C242.502 283.902 241.7 276.803 239.165 270.274C238.749 273.205 238.315 276.134 237.876 279.063C236.795 286.283 235.711 293.524 235.003 300.797C235.805 300.718 236.607 300.637 237.409 300.563C239.292 300.393 241.176 300.239 243.059 300.078C243.031 297.003 242.982 293.927 242.835 290.853Z" fill="#070707"></path><path d="M317.735 290.753C317.039 284.041 315.866 277.309 313.552 270.951C312.929 273.49 312.634 276.098 312.517 278.711C312.258 284.45 312.783 290.188 312.905 295.924C312.907 295.994 312.909 296.066 312.909 296.138C314.668 296.08 316.427 296.021 318.186 295.966C318.06 294.224 317.915 292.487 317.735 290.753Z" fill="#070707"></path><path d="M372.067 275.122C371.588 276.864 371.239 278.641 371.007 280.432C370.39 285.222 370.457 290.052 370.377 294.873C372.157 294.848 373.938 294.821 375.717 294.798C375.617 293.219 375.501 291.641 375.351 290.066C374.87 285.011 374.083 279.823 372.067 275.122Z" fill="#070707"></path><path d="M432.893 277.558C432.34 274.709 431.815 271.847 431.428 268.97C431.115 266.633 430.883 264.286 430.647 261.94C430.098 256.534 429.561 251.108 428.452 245.781C427.94 243.325 427.309 240.881 426.403 238.538C425.747 236.839 424.928 235.161 423.817 233.706C422.906 239.359 422.678 245.107 422.672 250.826C422.667 256.418 422.887 262.005 423.037 267.594C423.175 272.729 423.103 277.854 423.111 282.989C423.117 286.652 423.145 290.319 423.256 293.981C427.342 293.41 431.425 292.83 435.507 292.233C435.646 292.213 435.786 292.191 435.925 292.171C434.92 287.299 433.84 282.442 432.893 277.558Z" fill="#070707"></path><path d="M508.755 273.882C506.887 267.461 504.783 261.094 502.131 254.951C501.621 257.728 501.354 260.544 501.266 263.365C501.075 269.476 501.608 275.6 502.458 281.648C505.156 281.201 507.853 280.757 510.552 280.309C509.969 278.163 509.377 276.018 508.755 273.882Z" fill="#070707"></path><path d="M173.636 243.211C171.891 248.253 170.282 253.344 168.819 258.475C165.74 269.274 163.241 280.241 161.37 291.314C160.832 294.491 160.355 297.678 159.927 300.874C163.935 301.174 167.944 301.478 171.952 301.784C171.805 294.395 171.734 287.006 172.113 279.618C172.738 267.494 174.054 255.359 173.636 243.211Z" fill="#070707"></path><path d="M18.5037 263.783C19.1161 258.755 20.2298 253.799 21.1195 248.815C21.5816 246.231 22.039 243.643 22.5011 241.057C15.526 239.083 2.28072 231.94 0.289856 234.071L0.285156 234.075C0.521679 236.533 1.59151 268.102 1.79827 270.934C6.87803 273.197 12.0236 275.315 17.2145 277.315C17.65 272.807 17.9554 268.284 18.5037 263.783Z" fill="#070707"></path><path d="M221.287 296.594C220.218 290.562 219.545 284.495 218.981 278.398C217.895 266.642 217.136 254.562 213.437 243.268C212.007 248.284 210.875 253.381 209.97 258.517C208.168 268.721 207.178 279.043 206.195 289.35C205.717 294.346 205.244 299.348 204.685 304.338C204.873 304.354 205.062 304.368 205.252 304.384C210.947 303.685 216.639 302.927 222.327 302.224C221.97 300.347 221.619 298.472 221.287 296.594Z" fill="#070707"></path><path d="M257.047 250.865C256.94 250.847 256.871 250.797 256.82 250.735C256.939 252.402 257.089 254.066 257.263 255.721C257.919 261.974 258.909 268.185 259.725 274.416C260.115 277.395 260.509 280.389 260.682 283.39C260.848 286.261 260.982 289.134 261.127 292.006C261.24 294.218 261.359 296.442 261.502 298.67C263.256 298.551 265.009 298.424 266.763 298.313C266.812 290.653 266.818 282.993 267.037 275.337C267.253 267.806 267.693 260.272 268.555 252.787C264.688 252.516 260.836 251.503 257.047 250.865Z" fill="#070707"></path><path d="M406.163 285.708C405.086 280.539 404.31 275.307 403.392 270.108C401.648 260.228 399.709 250.231 396.023 240.863C395.38 245.631 394.93 250.424 394.643 255.225C394.069 264.833 394.091 274.468 394.332 284.087C394.419 287.578 394.542 291.07 394.672 294.56C399.1 294.505 403.528 294.441 407.956 294.383C407.372 291.488 406.764 288.598 406.163 285.708Z" fill="#070707"></path><path d="M571.208 252.601C568.658 246.119 566.042 239.664 563.325 233.252C562.7 231.778 562.095 230.312 561.547 228.806C561.052 227.444 560.546 226.082 559.977 224.749C558.931 222.295 557.659 219.895 555.862 217.907C555.054 220.517 555.523 223.451 555.884 226.093C556.357 229.547 556.715 233.017 557.138 236.477C557.924 242.893 558.745 249.305 559.388 255.737C559.702 258.874 559.929 262.018 560.269 265.151C560.518 267.443 560.74 269.736 560.958 272.03C566.551 271.133 572.148 270.251 577.746 269.383C575.486 263.823 573.406 258.187 571.208 252.601Z" fill="#070707"></path><path d="M660.489 194.252C655.647 192.657 641.918 194.584 626.454 196.992C625.937 204.086 625.646 211.197 625.525 218.31C625.446 223.062 625.511 227.818 625.359 232.57C625.211 237.221 624.921 241.865 624.683 246.511C624.409 251.868 624.196 257.258 624.351 262.629C624.481 262.612 624.609 262.594 624.739 262.577C631.437 257.161 638.003 251.583 644.36 245.772C649.911 240.697 655.301 235.444 660.489 230C659.809 229.801 661.154 194.47 660.489 194.252Z" fill="#070707"></path><path d="M463.263 280.852C461.948 276.234 460.798 271.559 459.664 266.892C458.53 262.229 457.402 257.555 455.889 252.999C454.617 249.163 453.063 245.374 450.878 241.964C450.984 246.486 451.169 251.006 451.45 255.522C452.009 264.574 452.914 273.609 454.239 282.581C454.568 284.806 454.922 287.025 455.304 289.242C458.642 288.725 461.979 288.209 465.315 287.683C464.612 285.41 463.915 283.137 463.263 280.852Z" fill="#070707"></path><path d="M121.328 242.933C119.572 248.312 118.186 253.805 116.936 259.322C115.692 264.812 114.58 270.331 113.363 275.827C112.26 280.81 111.347 285.8 110.586 290.847C110.343 292.457 110.108 294.075 109.87 295.695C113.232 296.165 116.593 296.627 119.958 297.066C119.943 296.58 119.933 296.093 119.918 295.607C119.845 292.919 119.774 290.23 119.76 287.54C119.746 284.744 119.859 281.977 120.07 279.189C120.985 267.143 122.508 255.008 121.328 242.933Z" fill="#070707"></path><path d="M421.743 258.453C426.334 257.814 430.924 257.159 435.51 256.489C455.713 253.531 475.873 250.286 496.019 246.968C516.067 243.666 536.104 240.291 556.163 237.05C576.308 233.797 596.477 230.678 616.696 227.91C619.376 227.544 622.058 227.183 624.741 226.829C631.439 221.414 638.005 215.835 644.361 210.024C649.912 204.949 655.302 199.697 660.49 194.252C659.81 194.055 659.134 193.852 658.47 193.633C647.286 189.948 636.28 185.665 625.276 181.48C608.126 174.957 590.707 169.932 572.812 166.325H137.843C137.321 166.511 136.798 166.695 136.276 166.881C113.423 175.07 90.6633 183.519 67.7676 191.588C54.0854 196.409 40.342 201.009 26.5328 205.408C23.9969 208.168 21.4421 210.912 18.8842 213.651C12.5984 220.382 6.4237 227.204 0.28978 234.074C0.192665 234.182 0.0971152 234.29 0 234.398C7.41209 237.763 14.9777 240.798 22.6185 243.607C24.0282 244.125 25.4426 244.634 26.8571 245.139C39.9426 248.162 53.0218 251.219 66.1136 254.222C73.4113 254.961 80.6918 255.886 87.9473 256.868C107.074 259.455 126.159 262.588 145.421 264.035C165.368 265.536 185.315 267.016 205.253 268.636C215.989 267.319 226.709 265.787 237.412 264.817C289.508 260.096 341.869 259.459 394.141 258.819C403.338 258.708 412.541 258.592 421.743 258.453Z" fill="#393939"></path><path d="M66.112 254.222C66.3908 254.25 66.6681 254.283 66.9469 254.311C73.698 250.69 80.4005 246.978 87.0779 243.237C108.653 231.148 198.383 183.359 221.633 171.458C224.982 169.744 228.335 168.037 231.684 166.325H192.313C179.424 171.945 45.4202 235.225 26.6926 245.079C26.7475 245.098 26.8007 245.118 26.8555 245.139C39.9426 248.16 53.0218 251.218 66.112 254.222Z" fill="#313131"></path><path d="M228.714 265.715C233.224 262.684 237.774 259.717 242.348 256.797C261.072 244.846 341.352 195.981 362.691 183.37C372.403 177.631 382.152 171.955 391.926 166.325H367.962C353.172 174.199 338.356 182.025 323.546 189.86C300.125 202.248 209.929 253.929 188.25 267.287C193.917 267.729 199.584 268.175 205.25 268.636C213.08 267.676 220.903 266.603 228.714 265.715Z" fill="#313131"></path><path d="M435.509 256.487C455.712 253.53 475.871 250.284 496.018 246.967C501.672 246.035 507.327 245.098 512.98 244.16C525.412 234.606 588.092 188.366 607.31 175.239C595.973 171.652 584.494 168.681 572.809 166.325H545.684C542.445 168.465 539.204 170.598 535.973 172.749C513.913 187.421 435.408 245.046 417.736 258.506C419.071 258.487 420.406 258.473 421.74 258.453C426.334 257.814 430.922 257.159 435.509 256.487Z" fill="#313131"></path><path d="M565.994 130.41C565.267 127.615 563.175 125.327 561.66 122.935C559.903 120.161 558.184 117.36 556.435 114.581C552.924 109.005 549.3 103.468 545.061 98.4118C541.324 93.9554 537.14 89.886 533.157 85.6443C529.83 85.6349 526.503 85.6662 523.177 85.7445C519.145 85.8401 515.115 86.0077 511.09 86.2536C506.643 88.2397 502.2 90.2384 497.771 92.2638C493.642 94.1528 489.524 96.0638 485.421 98.0092C481.494 99.8701 477.651 101.914 473.8 103.927C466.163 107.918 458.563 111.983 450.853 115.835C446.174 118.173 441.452 120.429 436.666 122.542C434.126 125.114 431.953 128.115 429.746 130.895C427.653 133.53 425.41 136.038 423.207 138.578C422.077 139.88 420.959 141.191 419.881 142.538C419.267 143.306 418.561 144.1 417.994 144.953C418.504 146.457 419.032 147.958 419.576 149.451C420.572 152.185 421.618 154.903 422.697 157.607C422.782 157.82 422.871 158.031 422.956 158.244C423.026 158.305 423.097 158.363 423.167 158.424C424.832 159.864 426.465 161.341 428.075 162.841C429.126 163.82 430.166 164.81 431.203 165.807C432.063 165.896 432.923 165.979 433.783 166.059C437.434 166.403 441.068 166.858 444.692 167.414C451.913 168.52 459.139 169.737 466.318 171.098C480.782 173.841 495.067 177.575 509.672 179.545C510.267 179.422 510.864 179.298 511.459 179.172C517.496 177.907 523.527 176.608 529.552 175.296C535.58 173.983 541.604 172.656 547.63 171.336C552.193 170.337 556.759 169.343 561.326 168.36C561.796 164.991 562.221 161.615 562.626 158.236C563.112 154.189 563.576 150.14 564.069 146.094C564.561 142.059 565.086 138.027 565.695 134.006C565.842 133.036 565.994 132.068 566.152 131.1C566.102 130.87 566.054 130.638 565.994 130.41Z" fill="#313131"></path><path opacity="0.6" d="M441.076 131.857C441.332 132.266 441.585 132.679 441.834 133.093C441.361 131.382 440.872 129.678 440.355 127.98C439.721 125.899 439.083 123.815 438.522 121.712C437.904 121.99 437.285 122.268 436.663 122.54C436.376 122.83 436.096 123.128 435.817 123.428C435.916 123.806 436.024 124.18 436.137 124.553C437.824 126.962 439.512 129.368 441.076 131.857Z" fill="#151515"></path><path opacity="0.6" d="M512.41 86.5277C513.843 88.4105 515.109 90.4139 516.356 92.4219C517.447 94.1826 518.517 95.951 519.728 97.6333C519.96 97.9544 520.187 98.2802 520.416 98.6029C519.008 96.1844 517.653 93.7361 516.345 91.2628C515.441 89.5539 514.561 87.834 513.696 86.1063C513.181 86.133 512.665 86.1627 512.15 86.194C512.236 86.3053 512.324 86.4149 512.41 86.5277Z" fill="#151515"></path><path opacity="0.5" d="M565.994 130.41C565.267 127.615 563.175 125.327 561.66 122.935C559.902 120.161 558.184 117.36 556.434 114.581C552.924 109.005 549.3 103.468 545.061 98.4118C541.455 94.1105 537.434 90.1711 533.578 86.0891C533.523 87.762 533.484 89.4333 533.413 91.0999C533.365 92.2277 533.258 93.354 533.243 94.4818C533.229 95.5281 533.279 96.576 533.321 97.6208C533.412 99.82 533.564 102.088 533.163 104.267C532.434 108.22 522.245 114.888 520.693 116.087C518.674 117.645 516.813 119.384 514.963 121.137C513.079 122.922 511.198 124.722 509.138 126.307C507.307 127.717 505.324 129.022 503.087 129.672C501.942 130.006 500.767 130.17 499.589 130.341C498.135 130.554 496.691 130.894 495.244 131.151C492.326 131.669 489.397 132.125 486.461 132.542C480.536 133.383 474.59 134.061 468.648 134.77C462.709 135.48 456.804 136.387 450.919 137.465C440.067 139.452 429.309 141.91 418.521 144.217C418.337 144.459 418.158 144.703 417.992 144.953C418.503 146.457 419.03 147.958 419.574 149.451C420.57 152.185 421.617 154.903 422.696 157.607C422.78 157.82 422.87 158.031 422.954 158.244C423.025 158.305 423.095 158.363 423.166 158.424C424.831 159.864 426.463 161.341 428.073 162.841C429.124 163.82 430.164 164.81 431.2 165.807C432.06 165.896 432.919 165.979 433.779 166.06C437.431 166.405 441.065 166.859 444.689 167.415C451.91 168.521 459.136 169.738 466.315 171.099C480.779 173.842 495.064 177.578 509.669 179.547C510.264 179.423 510.861 179.299 511.456 179.174C517.493 177.908 523.523 176.61 529.549 175.297C535.577 173.985 541.601 172.658 547.627 171.337C552.19 170.338 556.756 169.345 561.323 168.361C561.793 164.992 562.217 161.617 562.623 158.239C563.109 154.192 563.572 150.143 564.066 146.097C564.558 142.062 565.082 138.03 565.692 134.009C565.839 133.04 565.991 132.072 566.149 131.104C566.102 130.87 566.054 130.638 565.994 130.41Z" fill="#070707"></path><path opacity="0.6" d="M433.895 161.983C431.774 159.915 429.671 157.831 427.609 155.703C425.565 153.595 423.564 151.446 421.637 149.231C420.403 147.812 419.203 146.363 418.041 144.885C418.025 144.908 418.008 144.93 417.992 144.953C418.503 146.457 419.03 147.958 419.574 149.451C420.57 152.185 421.617 154.903 422.696 157.607C422.78 157.82 422.87 158.031 422.954 158.244C423.025 158.305 423.095 158.363 423.166 158.424C424.831 159.864 426.463 161.341 428.073 162.841C429.124 163.82 430.164 164.81 431.2 165.807C432.06 165.896 432.919 165.979 433.779 166.06C435.407 166.214 437.031 166.392 438.652 166.59C437.064 165.055 435.474 163.523 433.895 161.983Z" fill="#151515"></path><path opacity="0.6" d="M438.361 142.761C439.976 142.837 441.58 142.941 443.17 143.249C444.675 143.541 446.152 143.951 447.626 144.369C450.608 145.218 453.643 146.152 456.775 146.114C458.442 146.094 459.997 145.732 461.551 145.151C462.912 144.642 464.297 144.195 465.691 143.787C468.583 142.941 471.518 142.258 474.439 141.526C477.397 140.785 480.349 139.996 483.211 138.935C486.04 137.886 488.72 136.501 491.326 134.987C493.808 133.544 496.229 131.979 498.691 130.49C497.54 130.693 496.394 130.947 495.244 131.151C492.326 131.669 489.397 132.125 486.461 132.542C480.536 133.383 474.59 134.061 468.648 134.77C462.709 135.48 456.803 136.387 450.919 137.465C442.531 139.001 434.201 140.817 425.871 142.629C430.034 142.616 434.199 142.562 438.361 142.761Z" fill="#151515"></path><path opacity="0.6" d="M473.614 172.539C472.046 170.576 470.458 168.629 468.877 166.678C468.149 165.778 467.43 164.875 466.745 163.941C466.069 163.017 465.411 162.079 464.737 161.153C463.592 159.579 462.395 158.009 460.972 156.673C461.687 157.983 462.372 159.309 463.033 160.649C464.425 163.47 465.722 166.336 467.057 169.185C467.413 169.942 467.771 170.698 468.135 171.452C469.969 171.811 471.801 172.182 473.631 172.562C473.625 172.553 473.62 172.545 473.614 172.539Z" fill="#151515"></path><path opacity="0.6" d="M492.365 166.11C491.555 162.285 490.639 158.479 489.524 154.731C489.282 156.595 489.093 158.465 488.95 160.338C488.662 164.137 488.548 167.946 488.521 171.756C488.512 173.082 488.516 174.408 488.524 175.734C490.504 176.151 492.484 176.56 494.467 176.953C493.8 173.331 493.128 169.712 492.365 166.11Z" fill="#151515"></path><path opacity="0.6" d="M533.241 94.4801C533.227 95.5265 533.277 96.5744 533.319 97.6192C533.41 99.8184 533.562 102.086 533.161 104.265C533.094 104.635 532.943 105.028 532.724 105.437C534.706 106.71 536.67 108.014 538.617 109.34C541.522 111.322 544.394 113.357 547.241 115.423C550.114 117.507 552.962 119.624 555.8 121.754C558.627 123.876 561.442 126.011 564.262 128.145C564.691 128.469 565.12 128.792 565.549 129.116C564.614 126.885 562.933 124.945 561.658 122.932C559.901 120.158 558.182 117.357 556.433 114.578C552.923 109.002 549.298 103.465 545.059 98.4086C541.454 94.1073 537.433 90.1679 533.576 86.0859C533.521 87.7588 533.482 89.4301 533.412 91.0968C533.363 92.2261 533.257 93.3524 533.241 94.4801Z" fill="#151515"></path><path opacity="0.6" d="M560.327 168.538C559.273 167.196 558.325 165.774 557.388 164.35C556.569 163.103 555.777 161.83 554.867 160.647C553.504 158.875 552.099 157.135 550.731 155.368C547.885 151.687 545.1 147.959 542.458 144.13C539.898 140.422 537.519 136.603 535.221 132.729C533.138 129.218 531.031 125.678 528.337 122.593C528.451 122.929 528.565 123.262 528.681 123.597C530.146 127.803 531.747 131.962 533.398 136.097C535.035 140.195 536.722 144.271 538.377 148.36C539.222 150.447 539.92 152.6 540.694 154.715C541.471 156.834 542.259 158.951 543.048 161.067C543.833 163.172 544.619 165.277 545.395 167.387C545.902 168.767 546.479 170.119 547.082 171.458C547.263 171.419 547.445 171.378 547.627 171.339C551.867 170.41 556.109 169.489 560.352 168.573C560.344 168.56 560.335 168.549 560.327 168.538Z" fill="#151515"></path><path opacity="0.6" d="M516.119 164.272C514.653 159.992 513.295 155.686 512.051 151.336C510.817 147.018 509.637 142.682 508.314 138.389C507.642 136.208 506.931 134.04 506.158 131.895C505.798 130.897 505.424 129.904 505.034 128.917C504.968 128.948 504.902 128.981 504.836 129.012C504.94 132.415 505.151 135.814 505.436 139.205C505.809 143.641 506.307 148.067 506.865 152.483C507.401 156.722 508.044 160.949 508.524 165.196C508.99 169.323 509.346 173.463 509.839 177.587C509.915 178.211 509.993 178.834 510.074 179.458C510.535 179.362 510.994 179.266 511.454 179.171C514.47 178.54 517.483 177.899 520.494 177.252C519.105 172.904 517.599 168.593 516.119 164.272Z" fill="#151515"></path><path d="M460 169.339C459.592 167.952 458.509 166.84 457.712 165.669C456.788 164.309 455.884 162.935 454.963 161.573C453.118 158.839 451.216 156.126 449.014 153.666C447.073 151.496 444.915 149.527 442.853 147.469C441.188 147.518 439.525 147.586 437.863 147.679C435.847 147.792 433.834 147.939 431.825 148.127C429.632 149.192 427.442 150.263 425.258 151.347C423.224 152.358 421.194 153.38 419.173 154.419C417.238 155.414 415.348 156.498 413.454 157.566C409.698 159.685 405.961 161.84 402.165 163.889C399.861 165.135 397.535 166.339 395.174 167.472C393.945 168.798 392.906 170.335 391.846 171.762C390.842 173.114 389.76 174.404 388.698 175.711C388.152 176.38 387.615 177.053 387.098 177.744C386.804 178.137 386.462 178.546 386.193 178.983C386.472 179.727 386.76 180.469 387.056 181.207C387.598 182.559 388.165 183.901 388.748 185.237C388.793 185.342 388.842 185.447 388.887 185.552C388.923 185.582 388.959 185.61 388.995 185.638C389.852 186.331 390.692 187.045 391.52 187.77C392.062 188.243 392.598 188.723 393.132 189.203C393.563 189.235 393.995 189.261 394.427 189.29C396.26 189.404 398.085 189.573 399.906 189.792C403.537 190.229 407.171 190.723 410.783 191.288C418.064 192.429 425.269 194.069 432.608 194.821C432.904 194.748 433.2 194.678 433.496 194.606C436.495 193.876 439.492 193.13 442.485 192.377C445.48 191.624 448.472 190.864 451.465 190.107C453.732 189.534 456 188.964 458.27 188.4C458.451 186.707 458.61 185.012 458.758 183.315C458.937 181.282 459.103 179.249 459.286 177.218C459.468 175.191 459.665 173.165 459.906 171.145C459.964 170.658 460.026 170.17 460.088 169.683C460.062 169.566 460.035 169.451 460 169.339Z" fill="#313131"></path><path opacity="0.6" d="M397.53 172.063C397.665 172.263 397.798 172.465 397.93 172.669C397.665 171.821 397.394 170.976 397.107 170.134C396.757 169.102 396.404 168.072 396.089 167.028C395.784 167.177 395.478 167.326 395.173 167.473C395.034 167.624 394.899 167.775 394.764 167.931C394.819 168.119 394.88 168.303 394.943 168.488C395.826 169.666 396.71 170.842 397.53 172.063Z" fill="#151515"></path><path opacity="0.6" d="M432.492 148.243C433.239 149.162 433.905 150.144 434.559 151.128C435.134 151.991 435.698 152.859 436.331 153.681C436.452 153.838 436.571 153.998 436.691 154.156C435.947 152.969 435.231 151.766 434.537 150.549C434.058 149.709 433.59 148.862 433.129 148.011C432.872 148.033 432.614 148.056 432.357 148.08C432.401 148.135 432.446 148.19 432.492 148.243Z" fill="#151515"></path><path opacity="0.64" d="M460.001 169.339C459.592 167.953 458.509 166.84 457.712 165.669C456.788 164.309 455.884 162.935 454.963 161.573C453.118 158.839 451.216 156.126 449.014 153.666C447.141 151.571 445.067 149.665 443.073 147.685C443.073 148.523 443.079 149.36 443.071 150.195C443.065 150.758 443.03 151.325 443.04 151.889C443.049 152.412 443.092 152.936 443.129 153.459C443.209 154.557 443.322 155.689 443.156 156.786C442.855 158.775 437.865 162.274 437.106 162.899C436.121 163.711 435.219 164.611 434.321 165.517C433.407 166.439 432.495 167.371 431.489 168.197C430.595 168.931 429.625 169.616 428.516 169.976C427.949 170.161 427.364 170.263 426.778 170.368C426.054 170.498 425.337 170.691 424.618 170.842C423.166 171.149 421.707 171.424 420.246 171.679C417.295 172.194 414.331 172.63 411.369 173.079C408.409 173.529 405.47 174.077 402.543 174.711C397.145 175.88 391.804 177.28 386.444 178.609C386.356 178.732 386.27 178.858 386.19 178.986C386.469 179.73 386.757 180.473 387.053 181.21C387.595 182.562 388.162 183.904 388.745 185.241C388.79 185.346 388.839 185.45 388.884 185.555C388.92 185.585 388.956 185.613 388.992 185.642C389.849 186.334 390.688 187.048 391.517 187.773C392.059 188.246 392.595 188.726 393.129 189.207C393.56 189.238 393.992 189.265 394.424 189.291C396.257 189.406 398.082 189.575 399.903 189.794C403.534 190.231 407.168 190.724 410.78 191.29C418.061 192.43 425.266 194.07 432.605 194.822C432.901 194.75 433.197 194.68 433.493 194.608C436.492 193.878 439.489 193.132 442.482 192.379C445.477 191.625 448.469 190.865 451.462 190.109C453.729 189.536 455.997 188.965 458.267 188.402C458.448 186.708 458.606 185.013 458.755 183.317C458.934 181.284 459.1 179.251 459.283 177.219C459.465 175.192 459.662 173.167 459.903 171.146C459.961 170.659 460.022 170.172 460.085 169.685C460.062 169.566 460.035 169.452 460.001 169.339Z" fill="#070707"></path><path opacity="0.6" d="M394.421 187.249C393.328 186.248 392.241 185.239 391.176 184.208C390.12 183.187 389.083 182.144 388.083 181.066C387.443 180.377 386.819 179.671 386.215 178.948C386.207 178.959 386.199 178.972 386.193 178.983C386.472 179.727 386.76 180.469 387.056 181.207C387.598 182.559 388.165 183.901 388.748 185.237C388.793 185.342 388.842 185.447 388.887 185.552C388.923 185.582 388.959 185.61 388.995 185.638C389.852 186.331 390.692 187.045 391.52 187.77C392.062 188.243 392.598 188.723 393.132 189.203C393.563 189.235 393.995 189.261 394.427 189.288C395.243 189.338 396.059 189.402 396.874 189.474C396.055 188.735 395.236 187.994 394.421 187.249Z" fill="#151515"></path><path opacity="0.6" d="M396.348 177.561C397.158 177.573 397.961 177.6 398.762 177.728C399.52 177.85 400.265 178.031 401.009 178.217C402.515 178.594 404.048 179.013 405.614 178.944C406.448 178.908 407.22 178.701 407.988 178.385C408.661 178.107 409.346 177.863 410.036 177.636C411.47 177.166 412.926 176.777 414.377 176.365C415.844 175.947 417.309 175.506 418.723 174.929C420.122 174.359 421.44 173.623 422.719 172.824C423.938 172.063 425.124 171.24 426.331 170.456C425.758 170.576 425.189 170.72 424.618 170.841C423.166 171.148 421.707 171.422 420.246 171.677C417.295 172.193 414.331 172.628 411.369 173.078C408.409 173.527 405.47 174.075 402.543 174.71C398.372 175.612 394.233 176.655 390.095 177.694C392.18 177.623 394.263 177.528 396.348 177.561Z" fill="#151515"></path><path opacity="0.6" d="M414.46 191.895C413.644 190.937 412.818 189.99 411.996 189.037C411.617 188.599 411.242 188.159 410.885 187.703C410.531 187.252 410.188 186.793 409.836 186.34C409.237 185.571 408.614 184.805 407.881 184.16C408.26 184.804 408.625 185.457 408.976 186.116C409.717 187.506 410.412 188.918 411.125 190.322C411.314 190.695 411.507 191.067 411.7 191.439C412.624 191.589 413.545 191.744 414.468 191.906C414.466 191.901 414.463 191.898 414.46 191.895Z" fill="#151515"></path><path opacity="0.6" d="M423.737 188.378C423.271 186.477 422.752 184.587 422.133 182.731C422.043 183.668 421.978 184.606 421.936 185.546C421.853 187.451 421.856 189.359 421.905 191.265C421.922 191.929 421.944 192.592 421.97 193.256C422.967 193.433 423.964 193.605 424.962 193.77C424.572 191.968 424.178 190.167 423.737 188.378Z" fill="#151515"></path><path opacity="0.6" d="M443.04 151.889C443.049 152.413 443.092 152.936 443.129 153.459C443.209 154.557 443.322 155.689 443.156 156.786C443.128 156.972 443.059 157.171 442.955 157.38C443.967 157.986 444.971 158.604 445.966 159.237C447.452 160.182 448.92 161.154 450.378 162.141C451.849 163.138 453.307 164.151 454.761 165.172C456.208 166.189 457.653 167.212 459.097 168.233C459.316 168.388 459.537 168.543 459.756 168.698C459.253 167.597 458.381 166.654 457.71 165.667C456.786 164.308 455.883 162.934 454.961 161.571C453.116 158.838 451.215 156.125 449.012 153.664C447.139 151.57 445.065 149.664 443.071 147.684C443.071 148.522 443.077 149.358 443.07 150.193C443.065 150.758 443.029 151.324 443.04 151.889Z" fill="#151515"></path><path opacity="0.6" d="M457.776 188.503C457.227 187.849 456.73 187.153 456.238 186.454C455.807 185.844 455.391 185.22 454.916 184.642C454.207 183.778 453.475 182.93 452.762 182.067C451.281 180.272 449.827 178.45 448.444 176.577C447.105 174.763 445.853 172.891 444.641 170.99C443.543 169.267 442.432 167.53 441.035 166.029C441.098 166.195 441.16 166.361 441.223 166.525C442.023 168.606 442.889 170.661 443.782 172.703C444.666 174.727 445.576 176.738 446.47 178.759C446.926 179.79 447.31 180.856 447.731 181.901C448.154 182.949 448.582 183.995 449.011 185.04C449.437 186.08 449.865 187.122 450.286 188.163C450.562 188.846 450.872 189.512 451.196 190.173C451.287 190.15 451.376 190.128 451.467 190.104C453.574 189.572 455.68 189.042 457.789 188.516C457.786 188.514 457.781 188.508 457.776 188.503Z" fill="#151515"></path><path opacity="0.6" d="M435.592 187.078C434.79 184.96 434.041 182.828 433.349 180.671C432.661 178.53 432.003 176.381 431.272 174.254C430.9 173.175 430.51 172.1 430.089 171.04C429.893 170.546 429.69 170.056 429.48 169.569C429.447 169.586 429.415 169.603 429.383 169.619C429.489 171.32 429.649 173.016 429.846 174.708C430.103 176.921 430.424 179.127 430.774 181.328C431.109 183.441 431.499 185.544 431.807 187.661C432.107 189.717 432.351 191.783 432.664 193.838C432.711 194.148 432.761 194.46 432.813 194.77C433.042 194.715 433.27 194.661 433.499 194.604C434.996 194.239 436.494 193.871 437.991 193.5C437.224 191.348 436.401 189.214 435.592 187.078Z" fill="#151515"></path><path d="M654.843 166.038C654.303 164.204 652.87 162.733 651.817 161.184C650.595 159.386 649.399 157.569 648.182 155.768C645.741 152.152 643.226 148.564 640.312 145.309C637.745 142.439 634.889 139.834 632.164 137.112C629.962 137.176 627.761 137.267 625.562 137.389C622.896 137.538 620.233 137.734 617.573 137.983C614.672 139.391 611.774 140.809 608.888 142.244C606.195 143.581 603.51 144.933 600.838 146.307C598.279 147.623 595.779 149.056 593.272 150.469C588.304 153.272 583.36 156.122 578.34 158.835C575.294 160.481 572.216 162.074 569.094 163.574C567.466 165.33 566.093 167.362 564.691 169.249C563.362 171.038 561.931 172.744 560.526 174.472C559.805 175.357 559.094 176.248 558.41 177.161C558.02 177.681 557.568 178.223 557.211 178.8C557.581 179.785 557.962 180.765 558.353 181.741C559.071 183.53 559.821 185.306 560.592 187.073C560.653 187.213 560.715 187.35 560.776 187.49C560.823 187.529 560.872 187.567 560.92 187.604C562.053 188.521 563.163 189.465 564.262 190.424C564.977 191.049 565.687 191.683 566.393 192.319C566.964 192.36 567.535 192.397 568.105 192.432C570.529 192.582 572.944 192.806 575.355 193.097C580.157 193.675 584.964 194.329 589.743 195.077C599.373 196.586 608.905 198.755 618.612 199.748C619.003 199.653 619.395 199.56 619.786 199.465C623.754 198.5 627.717 197.513 631.678 196.515C635.64 195.519 639.598 194.514 643.558 193.513C646.556 192.754 649.555 192.001 652.558 191.254C652.798 189.014 653.006 186.771 653.203 184.528C653.438 181.84 653.659 179.149 653.9 176.463C654.142 173.781 654.402 171.102 654.72 168.43C654.796 167.785 654.876 167.141 654.961 166.497C654.925 166.341 654.889 166.189 654.843 166.038Z" fill="#313131"></path><path opacity="0.6" d="M572.211 169.644C572.389 169.909 572.565 170.177 572.739 170.446C572.389 169.325 572.031 168.208 571.652 167.094C571.188 165.73 570.721 164.365 570.306 162.985C569.902 163.183 569.498 163.379 569.094 163.573C568.91 163.772 568.73 163.974 568.553 164.177C568.627 164.425 568.707 164.671 568.788 164.915C569.955 166.472 571.125 168.029 572.211 169.644Z" fill="#151515"></path><path opacity="0.6" d="M618.455 138.137C619.443 139.352 620.323 140.651 621.191 141.954C621.951 143.096 622.697 144.244 623.535 145.331C623.694 145.539 623.851 145.749 624.011 145.957C623.027 144.388 622.079 142.795 621.162 141.186C620.527 140.076 619.908 138.956 619.299 137.83C618.959 137.859 618.618 137.889 618.278 137.92C618.336 137.992 618.397 138.063 618.455 138.137Z" fill="#151515"></path><path opacity="0.64" d="M654.843 166.038C654.303 164.204 652.87 162.733 651.817 161.184C650.595 159.386 649.399 157.569 648.181 155.768C645.741 152.152 643.225 148.564 640.312 145.309C637.834 142.54 635.091 140.018 632.452 137.397C632.452 138.505 632.46 139.612 632.449 140.716C632.441 141.464 632.394 142.211 632.408 142.958C632.421 143.65 632.475 144.343 632.527 145.033C632.634 146.487 632.782 147.984 632.563 149.435C632.165 152.066 625.565 156.695 624.562 157.52C623.259 158.595 622.065 159.784 620.878 160.984C619.669 162.204 618.461 163.435 617.133 164.528C615.95 165.5 614.666 166.405 613.2 166.883C612.449 167.127 611.676 167.262 610.899 167.4C609.942 167.57 608.994 167.826 608.04 168.028C606.12 168.433 604.191 168.797 602.259 169.134C598.355 169.815 594.434 170.391 590.518 170.987C586.603 171.582 582.715 172.307 578.844 173.145C571.705 174.691 564.639 176.544 557.549 178.3C557.432 178.463 557.319 178.629 557.214 178.798C557.584 179.783 557.965 180.764 558.356 181.74C559.074 183.529 559.824 185.305 560.594 187.072C560.656 187.211 560.718 187.349 560.779 187.488C560.826 187.527 560.875 187.565 560.923 187.603C562.056 188.519 563.166 189.464 564.264 190.422C564.98 191.047 565.69 191.682 566.396 192.317C566.966 192.358 567.538 192.394 568.108 192.43C570.532 192.581 572.947 192.805 575.358 193.096C580.16 193.674 584.967 194.327 589.746 195.076C599.376 196.584 608.908 198.754 618.615 199.747C619.006 199.651 619.398 199.559 619.789 199.463C623.757 198.498 627.72 197.512 631.681 196.514C635.643 195.518 639.601 194.512 643.561 193.511C646.559 192.753 649.558 191.999 652.561 191.252C652.801 189.012 653.009 186.769 653.206 184.526C653.441 181.838 653.662 179.147 653.903 176.461C654.145 173.779 654.405 171.101 654.723 168.429C654.799 167.783 654.879 167.14 654.964 166.496C654.925 166.341 654.889 166.189 654.843 166.038Z" fill="#070707"></path><path opacity="0.6" d="M568.098 189.731C566.65 188.408 565.214 187.073 563.804 185.709C562.407 184.357 561.036 182.977 559.714 181.552C558.867 180.639 558.043 179.705 557.243 178.751C557.233 178.767 557.222 178.782 557.213 178.798C557.582 179.783 557.963 180.764 558.355 181.74C559.072 183.529 559.822 185.305 560.593 187.072C560.654 187.211 560.717 187.349 560.778 187.488C560.825 187.528 560.873 187.565 560.922 187.603C562.054 188.519 563.165 189.464 564.263 190.422C564.979 191.047 565.688 191.682 566.395 192.317C566.965 192.358 567.537 192.394 568.107 192.43C569.188 192.498 570.265 192.581 571.343 192.678C570.259 191.697 569.177 190.717 568.098 189.731Z" fill="#151515"></path><path opacity="0.6" d="M570.646 176.915C571.717 176.933 572.779 176.967 573.838 177.138C574.841 177.299 575.828 177.539 576.811 177.785C578.802 178.283 580.831 178.836 582.903 178.745C584.006 178.696 585.027 178.424 586.042 178.005C586.932 177.639 587.839 177.315 588.753 177.016C590.649 176.395 592.577 175.88 594.496 175.335C596.436 174.782 598.374 174.198 600.244 173.435C602.094 172.68 603.838 171.707 605.531 170.65C607.143 169.643 608.712 168.556 610.31 167.517C609.552 167.677 608.798 167.868 608.043 168.028C606.123 168.433 604.195 168.797 602.262 169.134C598.358 169.815 594.438 170.391 590.522 170.987C586.606 171.582 582.718 172.307 578.848 173.145C573.331 174.339 567.856 175.717 562.382 177.092C565.132 176.997 567.888 176.873 570.646 176.915Z" fill="#151515"></path><path opacity="0.6" d="M594.605 195.875C593.526 194.609 592.434 193.354 591.346 192.097C590.845 191.517 590.35 190.934 589.876 190.331C589.41 189.734 588.954 189.127 588.489 188.528C587.698 187.512 586.874 186.497 585.903 185.643C586.404 186.495 586.886 187.358 587.351 188.231C588.332 190.068 589.251 191.937 590.194 193.795C590.445 194.288 590.699 194.78 590.956 195.272C592.178 195.471 593.398 195.677 594.616 195.89C594.613 195.884 594.61 195.879 594.605 195.875Z" fill="#151515"></path><path opacity="0.6" d="M606.876 191.223C606.259 188.709 605.573 186.21 604.755 183.753C604.635 184.992 604.549 186.232 604.494 187.476C604.383 189.996 604.389 192.52 604.452 195.04C604.473 195.917 604.505 196.796 604.538 197.673C605.857 197.906 607.175 198.135 608.496 198.353C607.981 195.972 607.459 193.591 606.876 191.223Z" fill="#151515"></path><path opacity="0.6" d="M632.408 142.958C632.421 143.65 632.475 144.343 632.527 145.033C632.634 146.487 632.782 147.984 632.563 149.435C632.525 149.681 632.435 149.944 632.298 150.22C633.636 151.022 634.964 151.841 636.28 152.677C638.246 153.927 640.188 155.213 642.116 156.52C644.062 157.838 645.992 159.178 647.915 160.528C649.831 161.872 651.739 163.227 653.65 164.577C653.941 164.782 654.232 164.987 654.522 165.193C653.856 163.736 652.704 162.487 651.815 161.183C650.594 159.384 649.397 157.567 648.18 155.766C645.739 152.151 643.224 148.562 640.31 145.307C637.832 142.538 635.09 140.016 632.45 137.396C632.45 138.503 632.458 139.611 632.447 140.715C632.442 141.462 632.395 142.211 632.408 142.958Z" fill="#151515"></path><path opacity="0.6" d="M651.902 191.39C651.175 190.524 650.519 189.603 649.869 188.68C649.3 187.874 648.749 187.047 648.121 186.284C647.181 185.14 646.214 184.019 645.273 182.879C643.312 180.504 641.39 178.095 639.56 175.617C637.789 173.217 636.133 170.741 634.529 168.227C633.076 165.946 631.606 163.65 629.76 161.665C629.843 161.884 629.924 162.104 630.009 162.321C631.067 165.074 632.214 167.791 633.395 170.493C634.565 173.17 635.768 175.831 636.949 178.502C637.552 179.865 638.06 181.276 638.617 182.658C639.177 184.044 639.744 185.427 640.309 186.81C640.873 188.187 641.437 189.564 641.996 190.942C642.361 191.844 642.771 192.726 643.199 193.6C643.318 193.571 643.437 193.539 643.558 193.509C646.344 192.805 649.131 192.104 651.921 191.409C651.914 191.404 651.908 191.396 651.902 191.39Z" fill="#151515"></path><path opacity="0.6" d="M622.557 189.504C621.497 186.704 620.507 183.882 619.591 181.03C618.682 178.198 617.81 175.354 616.843 172.542C616.351 171.113 615.836 169.694 615.278 168.289C615.02 167.636 614.751 166.988 614.472 166.342C614.429 166.364 614.387 166.388 614.343 166.41C614.484 168.659 614.696 170.904 614.956 173.142C615.297 176.069 615.72 178.988 616.182 181.898C616.625 184.692 617.142 187.476 617.55 190.275C617.946 192.997 618.269 195.727 618.684 198.447C618.746 198.857 618.812 199.269 618.879 199.679C619.182 199.606 619.484 199.534 619.786 199.46C621.768 198.978 623.749 198.491 625.728 197.999C624.716 195.153 623.629 192.332 622.557 189.504Z" fill="#151515"></path><path d="M594.829 155.965C593.955 153.988 592.134 152.55 590.725 150.967C589.092 149.129 587.485 147.269 585.857 145.426C582.593 141.731 579.247 138.079 575.505 134.855C572.208 132.014 568.625 129.514 565.172 126.86C562.714 127.255 560.259 127.679 557.813 128.138C554.846 128.694 551.89 129.305 548.945 129.973C545.9 131.976 542.86 133.989 539.832 136.019C537.01 137.913 534.2 139.82 531.404 141.752C528.728 143.6 526.134 145.574 523.533 147.524C518.373 151.393 513.249 155.312 508.019 159.087C504.844 161.378 501.628 163.615 498.348 165.753C496.782 167.959 495.54 170.438 494.244 172.758C493.016 174.957 491.663 177.08 490.339 179.221C489.661 180.319 488.994 181.422 488.361 182.546C488.001 183.187 487.575 183.859 487.258 184.559C487.818 185.609 488.388 186.653 488.969 187.69C490.036 189.59 491.135 191.472 492.258 193.339C492.346 193.486 492.437 193.632 492.526 193.779C492.586 193.815 492.645 193.851 492.705 193.887C494.108 194.748 495.491 195.644 496.862 196.558C497.756 197.154 498.644 197.761 499.529 198.37C500.175 198.332 500.82 198.29 501.465 198.246C504.203 198.06 506.943 197.958 509.687 197.931C515.154 197.877 520.639 197.905 526.105 198.044C537.119 198.325 548.122 199.361 559.147 199.054C559.572 198.89 559.998 198.729 560.422 198.564C564.73 196.902 569.026 195.215 573.32 193.519C577.613 191.822 581.904 190.115 586.195 188.414C589.446 187.125 592.699 185.842 595.952 184.564C595.893 182.019 595.799 179.473 595.691 176.929C595.562 173.881 595.415 170.835 595.291 167.786C595.169 164.746 595.069 161.704 595.034 158.662C595.027 157.928 595.022 157.195 595.022 156.46C594.966 156.292 594.901 156.128 594.829 155.965Z" fill="#313131"></path><path opacity="0.6" d="M502.733 172.102C502.972 172.373 503.207 172.647 503.442 172.924C502.886 171.718 502.321 170.518 501.733 169.325C501.014 167.863 500.291 166.402 499.623 164.915C499.2 165.196 498.776 165.474 498.35 165.752C498.173 166.001 498.002 166.255 497.833 166.51C497.952 166.778 498.077 167.041 498.204 167.302C499.739 168.878 501.277 170.451 502.733 172.102Z" fill="#151515"></path><path opacity="0.6" d="M549.956 130.015C551.242 131.232 552.418 132.56 553.582 133.893C554.602 135.062 555.604 136.24 556.702 137.336C556.912 137.546 557.119 137.759 557.327 137.969C555.996 136.352 554.699 134.708 553.435 133.038C552.561 131.885 551.704 130.721 550.856 129.548C550.479 129.63 550.101 129.714 549.725 129.799C549.801 129.871 549.879 129.943 549.956 130.015Z" fill="#151515"></path><path opacity="0.5" d="M594.829 155.965C593.955 153.988 592.134 152.55 590.725 150.967C589.092 149.129 587.485 147.268 585.857 145.426C582.593 141.731 579.247 138.079 575.505 134.855C572.324 132.114 568.878 129.688 565.536 127.137C565.698 128.38 565.87 129.62 566.019 130.859C566.119 131.697 566.176 132.543 566.301 133.378C566.417 134.153 566.58 134.921 566.738 135.687C567.07 137.3 567.455 138.957 567.422 140.615C567.361 143.624 560.64 149.776 559.637 150.849C558.334 152.243 557.17 153.753 556.014 155.27C554.838 156.816 553.665 158.373 552.335 159.792C551.152 161.054 549.846 162.256 548.272 163.006C547.465 163.39 546.618 163.653 545.769 163.922C544.721 164.254 543.695 164.68 542.656 165.044C540.564 165.778 538.454 166.469 536.338 167.13C532.063 168.466 527.752 169.685 523.448 170.925C519.145 172.166 514.894 173.548 510.677 175.053C502.9 177.83 495.252 180.942 487.562 183.948C487.454 184.149 487.352 184.351 487.26 184.556C487.819 185.606 488.389 186.65 488.971 187.687C490.037 189.587 491.137 191.468 492.26 193.336C492.348 193.483 492.438 193.628 492.528 193.776C492.587 193.812 492.647 193.848 492.706 193.884C494.11 194.745 495.493 195.641 496.863 196.554C497.758 197.151 498.646 197.757 499.531 198.367C500.176 198.329 500.822 198.287 501.467 198.243C504.205 198.057 506.945 197.955 509.689 197.928C515.156 197.873 520.641 197.902 526.106 198.041C537.121 198.321 548.123 199.358 559.149 199.051C559.573 198.887 559.999 198.725 560.424 198.561C564.73 196.898 569.028 195.212 573.321 193.516C577.615 191.819 581.905 190.112 586.197 188.411C589.447 187.122 592.701 185.839 595.954 184.561C595.894 182.015 595.8 179.47 595.692 176.926C595.564 173.878 595.417 170.831 595.293 167.783C595.171 164.743 595.07 161.701 595.036 158.659C595.028 157.925 595.023 157.191 595.023 156.457C594.966 156.292 594.901 156.128 594.829 155.965Z" fill="#070707"></path><path opacity="0.6" d="M501.061 195.22C499.246 193.948 497.44 192.662 495.66 191.34C493.897 190.029 492.16 188.683 490.468 187.28C489.384 186.381 488.324 185.455 487.287 184.503C487.279 184.522 487.268 184.54 487.26 184.559C487.819 185.609 488.389 186.653 488.971 187.69C490.037 189.59 491.137 191.472 492.26 193.339C492.348 193.486 492.438 193.632 492.528 193.779C492.587 193.815 492.647 193.851 492.706 193.887C494.11 194.748 495.493 195.644 496.863 196.558C497.758 197.154 498.646 197.761 499.531 198.37C500.176 198.332 500.822 198.29 501.467 198.246C502.687 198.163 503.909 198.099 505.131 198.049C503.773 197.107 502.415 196.168 501.061 195.22Z" fill="#151515"></path><path opacity="0.6" d="M502.042 180.482C503.245 180.344 504.442 180.227 505.653 180.263C506.799 180.297 507.941 180.421 509.08 180.552C511.384 180.82 513.74 181.143 516.049 180.737C517.277 180.521 518.382 180.067 519.46 179.45C520.405 178.909 521.373 178.413 522.355 177.943C524.388 176.97 526.474 176.112 528.544 175.217C530.638 174.314 532.724 173.374 534.71 172.246C536.675 171.129 538.485 169.784 540.229 168.35C541.888 166.984 543.488 165.537 545.127 164.14C544.301 164.43 543.485 164.755 542.66 165.044C540.567 165.778 538.457 166.469 536.341 167.13C532.066 168.466 527.756 169.685 523.451 170.925C519.148 172.166 514.897 173.548 510.681 175.053C504.67 177.199 498.737 179.545 492.802 181.888C495.874 181.381 498.944 180.837 502.042 180.482Z" fill="#151515"></path><path opacity="0.6" d="M531.675 198.227C530.279 196.966 528.872 195.72 527.469 194.47C526.822 193.893 526.181 193.314 525.564 192.706C524.953 192.104 524.353 191.492 523.744 190.889C522.709 189.865 521.636 188.848 520.423 188.033C521.111 188.914 521.777 189.811 522.425 190.721C523.794 192.637 525.097 194.598 526.427 196.542C526.781 197.059 527.137 197.573 527.495 198.086C528.894 198.13 530.291 198.184 531.689 198.243C531.684 198.235 531.679 198.232 531.675 198.227Z" fill="#151515"></path><path opacity="0.6" d="M544.749 191.216C543.689 188.488 542.553 185.789 541.278 183.154C541.324 184.559 541.41 185.964 541.53 187.366C541.775 190.208 542.151 193.035 542.591 195.851C542.744 196.832 542.907 197.811 543.073 198.79C544.585 198.859 546.098 198.921 547.609 198.973C546.68 196.378 545.747 193.785 544.749 191.216Z" fill="#151515"></path><path opacity="0.6" d="M566.302 133.376C566.418 134.152 566.581 134.919 566.739 135.685C567.071 137.299 567.457 138.956 567.424 140.613C567.418 140.893 567.355 141.202 567.242 141.531C568.86 142.233 570.467 142.958 572.065 143.703C574.451 144.817 576.817 145.973 579.169 147.156C581.542 148.349 583.902 149.569 586.255 150.801C588.598 152.027 590.937 153.265 593.275 154.5C593.631 154.688 593.988 154.875 594.344 155.063C593.383 153.528 591.908 152.297 590.724 150.965C589.09 149.128 587.483 147.267 585.855 145.425C582.591 141.73 579.245 138.077 575.503 134.853C572.322 132.112 568.876 129.686 565.535 127.136C565.696 128.378 565.869 129.619 566.017 130.858C566.121 131.696 566.177 132.541 566.302 133.376Z" fill="#151515"></path><path opacity="0.6" d="M595.243 184.813C594.301 183.948 593.43 183.013 592.566 182.073C591.811 181.251 591.071 180.407 590.255 179.642C589.035 178.499 587.787 177.382 586.565 176.242C584.02 173.867 581.512 171.449 579.098 168.939C576.761 166.508 574.541 163.976 572.377 161.391C570.414 159.048 568.431 156.689 566.069 154.735C566.194 154.969 566.318 155.202 566.445 155.436C568.035 158.366 569.717 161.244 571.437 164.099C573.14 166.928 574.878 169.735 576.593 172.556C577.469 173.996 578.244 175.502 579.071 176.97C579.902 178.443 580.738 179.91 581.576 181.378C582.409 182.839 583.244 184.299 584.071 185.762C584.613 186.721 585.201 187.65 585.808 188.566C585.937 188.514 586.067 188.464 586.197 188.413C589.217 187.214 592.24 186.022 595.263 184.835C595.257 184.827 595.249 184.819 595.243 184.813Z" fill="#151515"></path><path opacity="0.6" d="M562.073 186.993C560.474 184.008 558.952 180.993 557.507 177.93C556.074 174.89 554.682 171.829 553.186 168.817C552.426 167.288 551.64 165.772 550.81 164.281C550.424 163.587 550.026 162.899 549.621 162.216C549.575 162.248 549.531 162.281 549.486 162.31C549.973 164.812 550.539 167.296 551.159 169.768C551.97 172.999 552.871 176.209 553.815 179.404C554.722 182.471 555.708 185.516 556.574 188.594C557.417 191.586 558.178 194.601 559.041 197.588C559.171 198.039 559.306 198.49 559.44 198.942C559.769 198.816 560.097 198.689 560.426 198.563C562.576 197.732 564.725 196.896 566.871 196.055C565.32 193.01 563.688 190.007 562.073 186.993Z" fill="#151515"></path></svg> 