<?xml version="1.0" encoding="UTF-8"?> <svg xmlns="http://www.w3.org/2000/svg" width="402" height="305" viewBox="0 0 402 305" fill="none"><path d="M193.739 228.941H25.1238C17.4982 228.941 11.2946 222.737 11.2946 215.112V100.566C9.48715 102.667 7.75041 104.835 6.09336 107.044C4.55061 109.101 3.04553 111.184 1.59094 113.306V146.32C2.56093 145.384 4.76947 145.819 4.89965 147.64C5.36145 154.1 6.01135 160.734 5.00524 167.156C4.82482 168.308 2.88101 168.296 2.69035 167.156C1.9979 163.013 1.80108 158.79 1.59094 154.573V243.832C1.59094 251.562 7.88008 257.851 15.6105 257.851H131.468C140.69 249.856 151.136 243.247 162.321 238.352C172.443 233.932 182.973 230.963 193.739 228.941ZM121.549 245.097C98.8587 251.884 73.5653 249.732 50.1655 247.316C42.9622 246.571 42.7114 236.25 50.1655 235.912C73.7406 234.84 98.3667 232.122 121.549 236.415C126.131 237.264 125.529 243.906 121.549 245.097ZM133.94 240.052C133.27 240.911 132.621 241.606 131.497 241.899C130.752 242.093 129.981 242.216 129.228 242.374C127.373 242.763 125.667 241.846 125.074 240.016C124.56 238.426 125.68 236.125 127.433 235.863C128.252 235.74 129.071 235.612 129.892 235.495C131.324 235.29 132.293 235.662 133.469 236.399C134.858 237.27 134.869 238.862 133.94 240.052Z" fill="#212121"></path><path d="M373.399 11.4602C379.091 11.4602 383.989 14.9173 386.108 19.8416C385.238 16.3573 384.243 12.9084 383.155 9.48438C381.88 5.47247 388.351 2.67886 390.012 6.5939C391.739 10.6681 393.373 14.772 394.798 18.9633C396.163 22.9814 397.971 27.1647 396.838 31.4045C396.156 33.9518 392.413 35.2755 390.568 33.0597C388.491 30.5657 387.835 27.7278 387.214 24.7222C387.222 24.9106 387.228 25.0995 387.228 25.2896V175.496C392.683 167.369 396.912 158.418 400.133 149.145V15.7758C400.133 8.04542 393.844 1.75629 386.113 1.75629H201.744C200.04 5.19134 197.72 8.43316 195.044 11.4602H373.399ZM397.091 69.2311C396.788 69.6452 396.439 70.0055 396.061 70.3502C395.068 71.2538 393.329 71.2007 392.643 69.9099C392.461 69.5668 392.224 69.2582 392.038 68.921C391.665 68.2437 391.646 67.574 391.588 66.8311C391.572 66.6748 391.57 66.6204 391.581 66.6648C391.546 66.4597 391.507 66.2555 391.457 66.0533C391.415 65.8775 391.103 64.9316 391.184 65.1151C390.402 63.3479 390.814 61.3446 392.727 60.5386C394.602 59.7485 396.436 60.8146 397.08 62.6293C397.515 63.8548 397.743 65.1694 397.778 66.4695C397.804 67.4615 397.692 68.4089 397.091 69.2311ZM228.305 4.44739C241.676 3.71983 256.804 0.917511 270.018 3.5653C272.425 4.0476 272.183 7.57696 270.018 8.19534C257.095 11.8882 241.673 10.2576 228.305 10.5997C224.321 10.7014 224.378 4.66112 228.305 4.44739Z" fill="#212121"></path><path d="M352.016 241.841C352.016 244.541 354.213 246.738 356.914 246.738C359.614 246.738 361.811 244.541 361.811 241.841C361.811 239.14 359.614 236.944 356.914 236.944C354.213 236.944 352.016 239.14 352.016 241.841ZM358.096 238.959C358.503 239.091 358.855 239.317 359.152 239.637C359.324 239.859 359.495 240.08 359.666 240.302C359.681 240.337 359.695 240.371 359.71 240.406C359.799 240.535 359.722 240.03 360.042 241.193C360.201 241.785 360.201 242.376 360.042 242.968C360.033 242.988 360.025 243.008 360.016 243.028C360.016 243.029 360.016 243.029 360.016 243.03C360.015 243.034 360.014 243.038 360.013 243.042C360.013 243.042 360.013 243.043 360.013 243.043C359.939 243.314 359.83 243.575 359.684 243.826C359.514 244.046 359.345 244.265 359.176 244.484C358.881 244.801 358.532 245.026 358.129 245.157C357.742 245.36 357.324 245.453 356.876 245.437C356.872 245.437 356.867 245.436 356.862 245.435C356.572 245.397 356.283 245.357 355.993 245.319C355.985 245.316 355.977 245.315 355.969 245.313C355.679 245.246 355.402 245.107 355.14 244.962C354.639 244.666 354.239 244.267 353.943 243.765C353.641 243.245 353.489 242.683 353.487 242.081C353.525 241.429 353.614 240.918 353.957 240.351C354.113 240.094 354.285 239.836 354.51 239.637C354.807 239.317 355.159 239.091 355.566 238.959C355.822 238.81 356.099 238.736 356.395 238.735C356.686 238.656 356.977 238.656 357.267 238.735C357.564 238.735 357.84 238.81 358.096 238.959Z" fill="#FFD731"></path><path d="M347.406 241.841C347.406 239.14 345.209 236.944 342.509 236.944C339.809 236.944 337.612 239.14 337.612 241.841C337.612 244.541 339.809 246.738 342.509 246.738C345.209 246.738 347.406 244.541 347.406 241.841ZM340.983 243.853C340.794 243.773 340.605 243.693 340.416 243.613C340.256 243.49 340.096 243.366 339.936 243.243C339.812 243.082 339.689 242.923 339.565 242.762C339.485 242.573 339.405 242.384 339.326 242.196L339.241 241.565C339.229 241.238 339.297 240.934 339.445 240.651C339.502 240.45 339.604 240.276 339.751 240.128C339.856 239.95 339.998 239.808 340.176 239.702C340.324 239.555 340.498 239.453 340.699 239.397C340.884 239.29 341.084 239.236 341.298 239.235C341.613 239.165 341.929 239.179 342.244 239.278C342.433 239.358 342.622 239.437 342.811 239.517C342.971 239.64 343.131 239.764 343.291 239.888C343.294 239.891 343.296 239.894 343.299 239.897C343.591 240.191 343.793 240.538 343.905 240.938C343.933 241.147 343.961 241.356 343.989 241.565C344.001 241.89 343.934 242.193 343.786 242.474C343.691 242.767 343.528 243.02 343.298 243.233C343.296 243.236 343.293 243.24 343.291 243.243C343.076 243.474 342.821 243.638 342.527 243.733C342.342 243.84 342.143 243.895 341.929 243.895C341.613 243.966 341.298 243.951 340.983 243.853Z" fill="#FFD731"></path><path d="M333.001 241.841C333.001 239.14 330.804 236.944 328.104 236.944C325.404 236.944 323.207 239.14 323.207 241.841C323.207 244.541 325.404 246.738 328.104 246.738C330.804 246.738 333.001 244.541 333.001 241.841ZM326.945 244.711C326.645 244.409 326.438 244.053 326.323 243.643C326.294 243.429 326.265 243.214 326.237 243C326.224 242.667 326.294 242.356 326.445 242.067C326.542 241.768 326.709 241.508 326.945 241.289C327.164 241.053 327.424 240.886 327.724 240.789C328.012 240.637 328.323 240.568 328.656 240.58C329.093 240.582 329.5 240.692 329.878 240.911C330.041 241.037 330.204 241.163 330.367 241.289C330.667 241.591 330.874 241.947 330.989 242.357C331.018 242.571 331.047 242.786 331.076 243C331.088 243.333 331.019 243.644 330.867 243.932C330.77 244.232 330.603 244.492 330.367 244.711C330.148 244.947 329.889 245.114 329.588 245.211C329.3 245.363 328.99 245.432 328.656 245.42C328.22 245.418 327.812 245.308 327.435 245.089C327.272 244.963 327.109 244.837 326.945 244.711Z" fill="#FFD731"></path><path d="M186.601 297.668C192.123 295.699 198.173 295.443 203.967 296.371C209.008 297.187 214.306 298.884 219.092 297.075C223.829 295.298 226.806 290.385 227.718 285.423C227.838 284.742 227.931 284.051 227.99 283.359H159.144C157.103 285.421 153.927 286.681 150.941 286.912C146.06 287.28 141.162 285.887 136.296 286.319C128.966 286.991 122.628 291.713 117.602 297.059C116.905 297.8 116.224 298.565 115.566 299.35C115.335 300.456 115.19 301.593 115.15 302.756H179.776C181.098 300.264 183.874 298.635 186.601 297.668Z" fill="#212121"></path><path d="M206.8 273.291C208.832 273.275 210.993 273.099 212.626 271.867C215.315 269.85 215.459 265.929 215.347 262.568C215.309 261.522 215.279 260.479 215.245 259.442H174.771V274.335C178.275 273.109 181.953 272.366 185.673 272.171C192.715 271.803 199.741 273.323 206.8 273.291Z" fill="#212121"></path><path d="M387.228 175.495V215.112C387.228 215.733 387.183 216.344 387.103 216.943C391.772 212.792 396.133 208.277 400.133 203.444V149.145C396.912 158.418 392.684 167.369 387.228 175.495ZM395.878 192.268C391.894 192.268 392.375 186.1 392.127 183.394C391.941 181.365 393.993 179.643 395.878 179.643C397.773 179.643 399.815 181.374 399.63 183.394C399.381 186.096 399.866 192.268 395.878 192.268Z" fill="#292929"></path><path d="M323.069 245.633C322.271 244.577 321.798 243.263 321.798 241.841C321.798 238.364 324.627 235.535 328.104 235.535C331.581 235.535 334.411 238.364 334.411 241.841C334.411 242.4 334.337 242.943 334.199 243.459C334.908 243.305 335.61 243.146 336.308 242.98C336.24 242.611 336.202 242.23 336.202 241.841C336.202 238.364 339.032 235.535 342.509 235.535C345.201 235.535 347.502 237.23 348.406 239.609C348.738 239.502 349.068 239.394 349.391 239.28C350.121 239.027 350.848 238.763 351.573 238.493C352.69 236.718 354.666 235.535 356.914 235.535C357.415 235.535 357.901 235.595 358.368 235.706C362.754 233.735 366.991 231.47 371.069 228.941H193.739C182.973 230.963 172.444 233.932 162.321 238.352C151.136 243.248 140.69 249.857 131.468 257.852H225.766V257.846H227.175V257.852H272.995C280.626 254.458 288.841 252.094 296.974 250.34C305.605 248.477 314.371 247.184 323.069 245.633ZM262.561 248.444C256.074 252.939 245.884 251.981 238.21 252.21C228.694 252.494 219.211 252.901 209.718 253.649C203.156 254.166 201.68 243.093 208.162 242.155C217.621 240.784 227.102 239.609 236.624 238.77C244.627 238.065 255.601 236.485 262.562 241.189C265.284 243.029 265.231 246.594 262.561 248.444ZM290.081 236.549C289.498 239.577 285.95 240.885 283.39 242.127C280.754 243.405 277.662 242.614 276.472 239.795C275.366 237.174 276.791 233.936 279.632 233.213C282.293 232.536 286.151 231.071 288.588 232.865C290.222 233.292 290.619 235.135 290.081 236.549Z" fill="#292929"></path><path d="M11.2946 100.566V25.2894C11.2946 17.6638 17.4984 11.4602 25.1238 11.4602H195.043C197.72 8.4329 200.04 5.19134 201.744 1.75629H15.6102C7.87983 1.75629 1.5907 8.04542 1.5907 15.7758V113.306C3.04555 111.184 4.55037 109.101 6.09312 107.044C7.75016 104.835 9.48691 102.667 11.2946 100.566Z" fill="#212121"></path><path d="M387.103 216.943C386.204 223.706 380.403 228.941 373.399 228.941H371.069C366.99 231.47 362.754 233.734 358.368 235.706C361.146 236.364 363.22 238.864 363.22 241.841C363.22 245.318 360.391 248.147 356.914 248.147C353.436 248.147 350.607 245.318 350.607 241.841C350.607 240.611 350.962 239.464 351.573 238.493C350.848 238.763 350.12 239.026 349.391 239.28C349.068 239.394 348.737 239.502 348.406 239.608C348.67 240.302 348.815 241.055 348.815 241.84C348.815 245.318 345.986 248.147 342.509 248.147C339.421 248.147 336.846 245.915 336.308 242.98C335.61 243.145 334.907 243.305 334.199 243.459C333.483 246.154 331.022 248.147 328.104 248.147C326.049 248.147 324.221 247.158 323.069 245.632C314.371 247.183 305.605 248.476 296.974 250.339C288.841 252.093 280.626 254.457 272.995 257.851H386.114C393.844 257.851 400.133 251.561 400.133 243.831V239.811C399.755 240.816 399.156 241.733 398.315 242.468C393.309 246.849 388.084 250.973 382.697 254.876C379.178 257.425 373.767 255.456 371.748 252.005C369.414 248.015 371.124 243.587 374.619 241.055C378.907 237.949 383.013 234.637 386.998 231.151C390.26 228.296 395.086 227.921 398.315 231.151C399.13 231.965 399.743 232.986 400.133 234.097V203.443C396.133 208.277 391.772 212.792 387.103 216.943Z" fill="#1B1B1B"></path><path d="M225.766 259.442H215.244C215.279 260.479 215.308 261.522 215.346 262.568C215.458 265.929 215.314 269.85 212.625 271.867C210.993 273.099 208.832 273.275 206.799 273.291C199.741 273.323 192.715 271.803 185.672 272.171C181.953 272.366 178.275 273.109 174.771 274.335V281.95H226.47V281.854H225.765L225.766 259.442Z" fill="#1B1B1B"></path><path d="M227.367 272.795C227.303 272.392 227.24 271.989 227.175 271.586V273.158C227.239 273.037 227.301 272.916 227.367 272.795Z" fill="#1B1B1B"></path><path d="M266.268 283.359H227.99C227.931 284.051 227.838 284.742 227.719 285.423C226.806 290.385 223.829 295.299 219.092 297.075C214.306 298.884 209.009 297.188 203.967 296.371C198.173 295.443 192.123 295.699 186.601 297.668C183.874 298.635 181.098 300.264 179.777 302.757H272.741C272.677 302.215 272.607 301.677 272.518 301.141C271.519 294.902 269.147 289.004 266.268 283.359Z" fill="#292929"></path><path d="M136.296 286.32C141.162 285.888 146.06 287.28 150.941 286.912C153.927 286.682 157.103 285.421 159.144 283.359H135.24C125.565 283.359 117.47 290.233 115.567 299.351C116.224 298.566 116.905 297.801 117.602 297.059C122.628 291.713 128.966 286.992 136.296 286.32Z" fill="#212121"></path><path d="M272.518 301.141C272.607 301.677 272.677 302.215 272.741 302.757H294.576C294.204 291.998 285.335 283.359 274.486 283.359H266.268C269.147 289.004 271.519 294.902 272.518 301.141Z" fill="#1B1B1B"></path><path d="M386.998 231.152C383.013 234.638 378.907 237.95 374.619 241.056C371.124 243.588 369.415 248.015 371.748 252.005C373.767 255.457 379.178 257.425 382.697 254.876C388.084 250.974 393.309 246.85 398.315 242.469C399.156 241.733 399.754 240.817 400.133 239.812V234.098C399.743 232.987 399.13 231.966 398.315 231.152C395.086 227.922 390.26 228.297 386.998 231.152Z" fill="black"></path><path d="M395.878 179.643C393.993 179.643 391.941 181.365 392.127 183.394C392.375 186.1 391.894 192.268 395.878 192.268C399.866 192.268 399.381 186.096 399.63 183.394C399.815 181.374 397.773 179.643 395.878 179.643Z" fill="#1B1B1B"></path><path d="M262.561 241.189C255.601 236.485 244.626 238.065 236.623 238.77C227.102 239.609 217.621 240.784 208.162 242.154C201.68 243.093 203.155 254.166 209.718 253.649C219.211 252.901 228.694 252.493 238.21 252.21C245.883 251.981 256.074 252.939 262.561 248.444C265.231 246.594 265.284 243.029 262.561 241.189Z" fill="#1B1B1B"></path><path d="M288.588 232.865C286.151 231.071 282.293 232.537 279.632 233.213C276.791 233.936 275.366 237.174 276.472 239.795C277.662 242.614 280.754 243.405 283.39 242.127C285.95 240.885 289.499 239.578 290.081 236.549C290.619 235.135 290.222 233.292 288.588 232.865Z" fill="#1B1B1B"></path><path d="M121.549 236.415C98.3667 232.122 73.7406 234.84 50.1655 235.912C42.7114 236.25 42.9623 246.571 50.1655 247.316C73.5656 249.732 98.8587 251.884 121.549 245.096C125.529 243.906 126.131 237.264 121.549 236.415Z" fill="#292929"></path><path d="M133.469 236.399C132.293 235.662 131.325 235.29 129.892 235.495C129.071 235.613 128.252 235.741 127.433 235.863C125.68 236.125 124.56 238.426 125.075 240.016C125.667 241.846 127.373 242.763 129.228 242.374C129.981 242.217 130.752 242.093 131.497 241.899C132.621 241.607 133.27 240.911 133.94 240.053C134.869 238.862 134.858 237.27 133.469 236.399Z" fill="#292929"></path><path d="M228.305 10.5996C241.673 10.2575 257.095 11.8882 270.019 8.19531C272.183 7.57693 272.425 4.04757 270.019 3.56527C256.804 0.917478 241.676 3.72006 228.305 4.44735C224.378 4.66108 224.321 10.7014 228.305 10.5996Z" fill="#212121"></path><path d="M390.568 33.0597C392.413 35.2754 396.156 33.9518 396.837 31.4044C397.971 27.1647 396.163 22.9813 394.797 18.9633C393.373 14.7722 391.739 10.6683 390.011 6.59385C388.351 2.67906 381.88 5.47242 383.155 9.48433C384.243 12.9084 385.238 16.3573 386.108 19.8415C386.757 21.3499 387.143 22.9957 387.214 24.7219C387.835 27.7277 388.491 30.5657 390.568 33.0597Z" fill="#212121"></path><path d="M392.727 60.5383C390.814 61.3445 390.402 63.3475 391.184 65.1148C391.103 64.9313 391.415 65.8774 391.457 66.053C391.507 66.2552 391.546 66.4594 391.581 66.6644C391.57 66.6201 391.572 66.6744 391.588 66.8308C391.646 67.574 391.665 68.2436 392.038 68.9207C392.223 69.2579 392.461 69.5667 392.643 69.9096C393.329 71.2004 395.068 71.2535 396.061 70.3499C396.439 70.0052 396.788 69.6449 397.091 69.2307C397.692 68.4086 397.804 67.4612 397.778 66.4692C397.743 65.1691 397.515 63.8544 397.08 62.629C396.436 60.8143 394.602 59.7482 392.727 60.5383Z" fill="#212121"></path><path d="M5.00499 167.156C6.01111 160.734 5.36146 154.1 4.89941 147.64C4.76922 145.819 2.56043 145.383 1.5907 146.32V154.573C1.80084 158.791 1.99765 163.013 2.6901 167.156C2.88076 168.296 4.82458 168.308 5.00499 167.156Z" fill="#212121"></path><path d="M329.588 245.211C329.888 245.113 330.148 244.947 330.367 244.711C330.603 244.492 330.77 244.232 330.867 243.932C331.019 243.644 331.088 243.333 331.076 243C331.047 242.785 331.018 242.571 330.989 242.356C330.874 241.947 330.666 241.591 330.367 241.289C330.204 241.163 330.04 241.037 329.877 240.911C329.5 240.692 329.092 240.582 328.656 240.58C328.323 240.567 328.012 240.637 327.724 240.788C327.424 240.886 327.164 241.053 326.945 241.289C326.709 241.508 326.542 241.767 326.445 242.067C326.293 242.356 326.224 242.666 326.236 242.999C326.265 243.214 326.294 243.428 326.323 243.643C326.438 244.053 326.645 244.408 326.945 244.711C327.108 244.837 327.271 244.963 327.435 245.089C327.812 245.308 328.219 245.418 328.656 245.419C328.989 245.432 329.3 245.362 329.588 245.211Z" fill="#FFA233"></path><path d="M343.291 243.243C343.293 243.239 343.296 243.236 343.298 243.233C343.528 243.019 343.691 242.766 343.786 242.474C343.934 242.193 344.001 241.89 343.989 241.565C343.961 241.356 343.933 241.147 343.905 240.938C343.793 240.538 343.591 240.191 343.299 239.897C343.296 239.894 343.294 239.891 343.291 239.887C343.131 239.764 342.971 239.64 342.811 239.517C342.622 239.437 342.433 239.357 342.244 239.277C341.929 239.178 341.613 239.164 341.298 239.235C341.084 239.236 340.884 239.29 340.699 239.397C340.498 239.453 340.324 239.555 340.176 239.702C339.998 239.807 339.856 239.949 339.751 240.127C339.604 240.275 339.502 240.45 339.445 240.651C339.297 240.934 339.229 241.238 339.241 241.565L339.326 242.195C339.405 242.384 339.485 242.573 339.565 242.762C339.689 242.922 339.812 243.082 339.936 243.242C340.096 243.366 340.256 243.49 340.416 243.613C340.605 243.693 340.793 243.773 340.982 243.852C341.298 243.951 341.613 243.965 341.929 243.895C342.143 243.894 342.342 243.84 342.527 243.733C342.821 243.637 343.076 243.474 343.291 243.243Z" fill="#FFA233"></path><path d="M356.395 238.734C356.099 238.735 355.822 238.81 355.566 238.959C355.159 239.091 354.807 239.317 354.51 239.637C354.285 239.835 354.112 240.094 353.957 240.351C353.614 240.918 353.525 241.428 353.487 242.081C353.489 242.683 353.641 243.245 353.943 243.765C354.239 244.266 354.639 244.666 355.14 244.962C355.402 245.107 355.679 245.245 355.969 245.313C355.977 245.315 355.985 245.316 355.993 245.318C356.283 245.357 356.572 245.396 356.862 245.435C356.867 245.436 356.871 245.436 356.876 245.437C357.324 245.453 357.742 245.36 358.129 245.156C358.532 245.025 358.881 244.801 359.176 244.484C359.345 244.265 359.514 244.045 359.684 243.826C359.83 243.575 359.939 243.313 360.013 243.042V243.042C360.014 243.038 360.015 243.034 360.016 243.03C360.016 243.029 360.016 243.028 360.016 243.028C360.025 243.008 360.033 242.988 360.042 242.968C360.201 242.376 360.201 241.785 360.042 241.193C359.722 240.03 359.799 240.535 359.71 240.406C359.695 240.371 359.68 240.337 359.666 240.301C359.495 240.08 359.323 239.858 359.152 239.637C358.855 239.317 358.503 239.091 358.096 238.958C357.84 238.81 357.564 238.735 357.267 238.734C356.977 238.656 356.685 238.656 356.395 238.734Z" fill="#FFA233"></path><path d="M386.113 0.165588H15.6102C7.00285 0.165588 0 7.16818 0 15.7758V243.832C0 252.439 7.00259 259.442 15.6102 259.442H173.362V281.95H135.24C123.378 281.95 113.728 291.6 113.728 303.461V304.166H295.998V303.461C295.998 291.6 286.348 281.95 274.486 281.95H226.47H174.771V274.335V259.442H215.245H225.766V281.854H226.47H227.175V273.158V271.585V259.442H386.114C394.721 259.442 401.724 252.439 401.724 243.831V15.7758C401.724 7.16818 394.721 0.165588 386.113 0.165588ZM400.133 234.098V239.812V243.832C400.133 251.562 393.844 257.851 386.113 257.851H272.995H227.175V257.846H225.766V257.851H131.467H15.6102C7.87981 257.851 1.59067 251.562 1.59067 243.832V154.573V146.32V113.305V15.7758C1.59067 8.0454 7.87981 1.75626 15.6102 1.75626H201.744H386.113C393.844 1.75626 400.133 8.0454 400.133 15.7758V149.145V203.444V234.098ZM294.576 302.757H272.741H179.776H115.15C115.19 301.593 115.336 300.457 115.567 299.351C117.47 290.232 125.565 283.359 135.24 283.359H159.144H227.99H266.268H274.486C285.335 283.359 294.204 291.998 294.576 302.757Z" fill="black"></path><path d="M387.214 24.7222C387.143 22.996 386.757 21.3502 386.108 19.8418C383.989 14.9175 379.091 11.4604 373.399 11.4604H195.043H25.1237C17.4981 11.4604 11.2946 17.664 11.2946 25.2896V100.566V215.112C11.2946 222.738 17.4984 228.941 25.1237 228.941H193.738H371.069H373.399C380.403 228.941 386.204 223.706 387.103 216.944C387.183 216.344 387.228 215.733 387.228 215.112V175.496V25.2893C387.228 25.0992 387.221 24.9106 387.214 24.7222ZM12.8609 217.078C12.7584 216.437 12.7035 215.781 12.7035 215.112V25.2893C12.7035 18.4407 18.2751 12.8694 25.1234 12.8694H335.246H373.399C380.247 12.8694 385.819 18.4407 385.819 25.2893V215.112C385.819 221.96 380.247 227.532 373.399 227.532H25.1237C18.9445 227.532 13.8065 222.995 12.8609 217.078Z" fill="black"></path><path d="M351.573 238.493C350.962 239.464 350.607 240.612 350.607 241.841C350.607 245.318 353.437 248.147 356.914 248.147C360.391 248.147 363.22 245.318 363.22 241.841C363.22 238.865 361.147 236.365 358.368 235.706C357.901 235.595 357.414 235.535 356.914 235.535C354.666 235.535 352.69 236.718 351.573 238.493ZM361.811 241.841C361.811 244.541 359.614 246.738 356.913 246.738C354.213 246.738 352.016 244.541 352.016 241.841C352.016 239.141 354.213 236.944 356.913 236.944C359.614 236.944 361.811 239.141 361.811 241.841Z" fill="black"></path><path d="M342.509 235.535C339.032 235.535 336.203 238.364 336.203 241.841C336.203 242.23 336.24 242.611 336.308 242.981C336.846 245.916 339.421 248.147 342.509 248.147C345.986 248.147 348.815 245.318 348.815 241.841C348.815 241.055 348.67 240.303 348.406 239.609C347.503 237.23 345.2 235.535 342.509 235.535ZM337.612 241.841C337.612 239.141 339.809 236.944 342.509 236.944C345.209 236.944 347.406 239.141 347.406 241.841C347.406 244.541 345.209 246.738 342.509 246.738C339.809 246.738 337.612 244.541 337.612 241.841Z" fill="black"></path><path d="M328.104 235.535C324.627 235.535 321.798 238.364 321.798 241.841C321.798 243.263 322.271 244.577 323.069 245.633C324.221 247.159 326.049 248.147 328.104 248.147C331.022 248.147 333.483 246.155 334.199 243.46C334.337 242.943 334.411 242.4 334.411 241.841C334.411 238.364 331.582 235.535 328.104 235.535ZM323.207 241.841C323.207 239.141 325.404 236.944 328.104 236.944C330.804 236.944 333.002 239.141 333.002 241.841C333.002 244.541 330.804 246.738 328.104 246.738C325.404 246.738 323.207 244.541 323.207 241.841Z" fill="black"></path></svg> 