<?xml version="1.0" encoding="UTF-8"?> <svg xmlns="http://www.w3.org/2000/svg" width="429" height="71" viewBox="0 0 429 71" fill="none"><path d="M284.497 8.76327H314.156V13.6938H284.497V8.76327ZM320.756 4.81883H347.987V9.82523H320.756V4.81883ZM299.516 0.115845L304.75 1.25367C303.486 4.08557 302.07 7.11975 300.502 10.3562C298.985 13.5927 297.468 16.7533 295.951 19.838C294.434 22.8722 293.043 25.5777 291.779 27.9545L287.076 25.7547C288.34 23.5296 289.706 20.9506 291.172 18.0175C292.689 15.0339 294.181 11.9744 295.648 8.83912C297.114 5.7038 298.404 2.79604 299.516 0.115845ZM289.731 25.2996L292.765 21.6585C295.445 22.5688 298.252 23.6813 301.185 24.9961C304.169 26.311 307.001 27.6511 309.681 29.0164C312.361 30.3818 314.586 31.6713 316.356 32.885L313.018 37.057C311.35 35.8433 309.2 34.5285 306.571 33.1126C303.941 31.6966 301.135 30.306 298.151 28.9406C295.218 27.5246 292.411 26.311 289.731 25.2996ZM327.886 10.2045C329.909 16.4751 333.145 21.8861 337.595 26.4374C342.045 30.9887 347.532 34.2251 354.056 36.1468C353.702 36.5008 353.297 36.9559 352.842 37.5122C352.387 38.0178 351.957 38.5488 351.553 39.1051C351.148 39.6614 350.819 40.1923 350.566 40.698C343.74 38.3718 338.025 34.7055 333.423 29.6991C328.872 24.6422 325.408 18.5232 323.031 11.3423L327.886 10.2045ZM289.504 44.1115H343.436V49.042H289.504V44.1115ZM341.236 44.1115H347.381C347.381 44.1115 347.355 44.2632 347.305 44.5666C347.305 44.87 347.279 45.224 347.229 45.6286C347.229 46.0331 347.204 46.3618 347.153 46.6147C346.698 51.1154 346.217 54.807 345.712 57.6895C345.257 60.5719 344.726 62.8223 344.119 64.4405C343.563 66.0587 342.905 67.2471 342.147 68.0057C341.388 68.7137 340.554 69.1941 339.643 69.4469C338.784 69.7503 337.772 69.9273 336.609 69.9779C335.497 70.079 333.98 70.1043 332.058 70.0538C330.187 70.0032 328.139 69.9273 325.914 69.8262C325.863 69.0677 325.686 68.208 325.383 67.2471C325.079 66.2863 324.7 65.4519 324.245 64.7439C326.369 64.9462 328.341 65.0726 330.162 65.1232C332.033 65.1738 333.347 65.1991 334.106 65.1991C334.865 65.1991 335.471 65.1485 335.927 65.0474C336.382 64.9968 336.761 64.7945 337.064 64.4405C337.621 63.9348 338.152 62.974 338.657 61.558C339.163 60.0915 339.618 58.0182 340.023 55.338C340.478 52.6578 340.882 49.1938 341.236 44.9459V44.1115ZM314.839 37.7397H320.68C320.275 41.1785 319.694 44.3643 318.935 47.2974C318.177 50.2304 317.064 52.9106 315.598 55.338C314.182 57.7147 312.285 59.864 309.908 61.7856C307.532 63.7073 304.573 65.3761 301.033 66.792C297.544 68.2585 293.296 69.4975 288.29 70.5089C288.138 70.0032 287.885 69.4469 287.531 68.8401C287.228 68.2332 286.874 67.6264 286.469 67.0196C286.115 66.4633 285.736 65.9829 285.332 65.5783C290.035 64.7692 294.03 63.7578 297.317 62.5442C300.604 61.3305 303.309 59.9145 305.433 58.2963C307.557 56.6781 309.226 54.8576 310.439 52.8348C311.704 50.7614 312.664 48.4605 313.322 45.932C313.979 43.4035 314.485 40.6728 314.839 37.7397ZM312.867 8.76327H313.929L314.915 8.53571L317.949 9.3701C317.039 14.3765 315.598 18.7002 313.625 22.3412C311.704 25.9823 309.352 29.067 306.571 31.5955C303.84 34.0734 300.73 36.1215 297.241 37.7397C293.751 39.3074 289.984 40.5716 285.938 41.5324C285.736 40.8245 285.382 40.0153 284.876 39.1051C284.421 38.1948 283.941 37.4616 283.435 36.9053C287.127 36.2479 290.566 35.2618 293.751 33.947C296.988 32.5816 299.896 30.8117 302.475 28.6372C305.054 26.4121 307.228 23.7319 308.998 20.5966C310.819 17.4613 312.108 13.7697 312.867 9.52181V8.76327ZM346.091 4.81883H347.077L348.063 4.59127L351.401 5.80494C349.985 11.7216 347.81 16.8039 344.877 21.0517C341.944 25.249 338.455 28.713 334.409 31.4438C330.414 34.1745 326.091 36.3238 321.438 37.8914C321.135 37.234 320.705 36.4755 320.149 35.6158C319.593 34.7055 319.036 33.9976 318.48 33.4919C322.728 32.2782 326.723 30.4577 330.465 28.0303C334.207 25.5524 337.444 22.4677 340.174 18.7761C342.905 15.0339 344.877 10.6849 346.091 5.72909V4.81883Z" fill="#FFC31E"></path><path d="M389.632 8.45985H425.511V13.7697H389.632V8.45985ZM385.156 23.3273H429V28.713H385.156V23.3273ZM386.446 37.7397H428.621V43.1254H386.446V37.7397ZM404.575 0.191703H410.188V26.2098H404.575V0.191703ZM414.057 27.8786H419.67V62.9993C419.67 64.7187 419.442 66.0335 418.987 66.9437C418.583 67.854 417.748 68.562 416.484 69.0677C415.321 69.4722 413.703 69.7251 411.629 69.8262C409.607 69.9779 407.129 70.0538 404.196 70.0538C404.094 69.1941 403.867 68.208 403.513 67.0954C403.21 66.0335 402.83 65.1232 402.375 64.3647C404.701 64.4152 406.8 64.4405 408.671 64.4405C410.593 64.4405 411.857 64.4152 412.464 64.3647C413.071 64.3647 413.475 64.2635 413.677 64.0612C413.93 63.859 414.057 63.505 414.057 62.9993V27.8786ZM390.39 47.9042L394.714 45.3252C396.029 46.4883 397.293 47.7778 398.507 49.1938C399.771 50.6097 400.934 52.0509 401.996 53.5175C403.058 54.9334 403.892 56.2229 404.499 57.386L399.872 60.3444C399.316 59.1813 398.532 57.8665 397.52 56.3999C396.509 54.9334 395.371 53.4669 394.107 52.0004C392.893 50.4833 391.654 49.1179 390.39 47.9042ZM358.986 41.5324C361.414 40.875 364.144 40.1165 367.179 39.2568C370.263 38.3971 373.525 37.4616 376.964 36.4502C380.453 35.3882 383.892 34.3515 387.28 33.3401L388.039 38.3465C383.285 39.8636 378.481 41.406 373.626 42.9737C368.772 44.4908 364.397 45.8309 360.503 46.994L358.986 41.5324ZM373.171 0.34341H378.481V70.0538H373.171V0.34341ZM363.765 4.3637L368.696 5.1981C368.342 8.5357 367.887 11.848 367.33 15.135C366.774 18.4221 366.117 21.5321 365.358 24.4652C364.65 27.3982 363.816 30.0025 362.855 32.2782C362.551 32.0253 362.122 31.7472 361.565 31.4438C361.06 31.0898 360.529 30.7611 359.972 30.4577C359.416 30.1037 358.936 29.8508 358.531 29.6991C359.492 27.5246 360.301 25.072 360.959 22.3412C361.616 19.6105 362.172 16.7027 362.627 13.618C363.133 10.5332 363.512 7.44846 363.765 4.3637ZM364.296 15.666H386.294V21.1276H363.386L364.296 15.666Z" fill="#FFC31E"></path><rect x="245.936" y="0.115845" width="6.61744" height="70.0345" fill="#F0B90B"></rect><path d="M7.77436 0.563874C6.81187 0.84696 5.73614 1.41313 5.33982 1.80945C5.00012 2.26239 4.37733 7.41456 3.92439 13.3028C3.41484 19.1909 2.28249 33.7982 1.32 45.7444C-0.152051 64.2017 -0.265285 67.6553 0.357505 68.2781C2.16926 70.0899 13.6626 70.5994 14.6817 68.9009C15.078 68.2781 17.1162 49.9341 17.1728 46.7636C17.1728 43.3099 18.7015 45.4047 24.4765 57.0113L27.8735 63.8053L31.1573 65.0509C35.347 66.6362 42.9903 68.448 45.3682 68.448C46.3873 68.448 47.7461 68.1649 48.3689 67.8252C49.5013 67.259 49.5013 66.8061 49.1616 35.157C48.9917 17.4924 48.7086 2.48886 48.5388 1.75284C48.3123 0.677108 47.9726 0.507257 45.3682 0.507257C42.141 0.507257 34.2712 2.71533 31.5536 4.41385L29.7985 5.48957L29.4588 18.2851C29.2889 25.3056 28.8926 31.4769 28.6095 31.9864C28.2698 32.5526 27.0242 28.646 24.5897 19.3042C22.6647 11.8307 20.853 4.81017 20.5132 3.67782C20.0603 2.03592 19.4941 1.35652 18.0221 0.733726C15.8706 -0.115533 10.492 -0.228768 7.77436 0.563874Z" fill="#F0B90B"></path><path d="M71.1291 2.43225C61.1644 4.86679 54.0307 12.1138 51.9358 21.9652C50.2939 29.7218 51.2564 42.8003 54.0307 51.0665C62.0137 74.506 79.1121 73.034 95.7576 47.5562C104.363 34.3644 107.024 22.0784 103.005 14.152C100.004 8.37706 93.2664 3.56459 86.2459 2.20578C82.2827 1.46976 74.7526 1.58299 71.1291 2.43225ZM80.5842 25.7019C84.3775 27.6835 85.0569 31.76 82.2827 36.5158C79.5084 41.4415 76.1114 43.3099 73.4504 41.5548C70.6761 39.743 69.0909 32.8357 70.6195 29.2122C72.1482 25.4755 76.904 23.777 80.5842 25.7019Z" fill="#F0B90B"></path><path d="M127.18 2.43225C117.215 4.86679 110.082 12.1138 107.987 21.9652C106.345 29.7218 107.307 42.8003 110.082 51.0665C118.065 74.506 135.163 73.034 151.809 47.5562C160.414 34.3644 163.075 22.0784 159.056 14.152C156.055 8.37706 149.317 3.56459 142.297 2.20578C138.334 1.46976 130.804 1.58299 127.18 2.43225ZM136.635 25.7019C140.429 27.6835 141.108 31.76 138.334 36.5158C135.559 41.4415 132.162 43.3099 129.501 41.5548C126.727 39.743 125.142 32.8357 126.671 29.2122C128.199 25.4755 132.955 23.777 136.635 25.7019Z" fill="#F0B90B"></path><path d="M171.002 6.28218C166.699 12.0571 162.34 26.2115 163.472 30.7408L163.812 32.2129H170.662H177.513L177.117 48.2356C176.777 62.673 176.777 64.3149 177.626 64.9943C178.136 65.4472 180.684 66.07 183.288 66.3531C187.025 66.806 188.61 66.806 191.045 66.1266L194.102 65.334L194.442 55.9921C194.611 50.84 194.838 42.2908 194.895 36.9121C194.951 29.0989 195.121 27.0041 195.8 26.3247C196.593 25.5887 198.858 24.9659 204.746 24.0034C207.35 23.6071 208.086 22.4747 209.615 16.9262C211.03 11.9439 211.144 8.60349 209.955 6.90497C209.162 5.77263 208.539 5.71601 193.423 5.3763C184.76 5.14984 176.494 4.86675 175.079 4.6969C172.587 4.41381 172.361 4.47043 171.002 6.28218Z" fill="#F0B90B"></path></svg> 