<svg xmlns="http://www.w3.org/2000/svg" xmlns:xlink="http://www.w3.org/1999/xlink" width="395" zoomAndPan="magnify" viewBox="0 0 296.25 48.75" height="65" preserveAspectRatio="xMidYMid meet" version="1.0"><defs><g/></defs><g fill="#f0b90b" fill-opacity="1"><g transform="translate(4.387505, 36.736521)"><g><path d="M 28.25 -21.578125 C 28.25 -21.023438 28.132812 -20.585938 27.90625 -20.265625 C 27.675781 -19.941406 27.203125 -19.691406 26.484375 -19.515625 C 25.765625 -19.335938 24.722656 -19.222656 23.359375 -19.171875 C 22.003906 -19.128906 20.191406 -19.109375 17.921875 -19.109375 C 15.648438 -19.109375 13.832031 -19.128906 12.46875 -19.171875 C 11.113281 -19.222656 10.070312 -19.335938 9.34375 -19.515625 C 8.613281 -19.691406 8.132812 -19.941406 7.90625 -20.265625 C 7.675781 -20.585938 7.5625 -21.023438 7.5625 -21.578125 C 7.5625 -22.097656 7.675781 -22.519531 7.90625 -22.84375 C 8.132812 -23.164062 8.613281 -23.414062 9.34375 -23.59375 C 10.070312 -23.78125 11.113281 -23.894531 12.46875 -23.9375 C 13.832031 -23.988281 15.648438 -24.015625 17.921875 -24.015625 C 20.191406 -24.015625 22.003906 -23.988281 23.359375 -23.9375 C 24.722656 -23.894531 25.765625 -23.78125 26.484375 -23.59375 C 27.203125 -23.414062 27.675781 -23.164062 27.90625 -22.84375 C 28.132812 -22.519531 28.25 -22.097656 28.25 -21.578125 Z M 30.640625 -1.859375 C 30.640625 -1.316406 30.503906 -0.882812 30.234375 -0.5625 C 29.960938 -0.238281 29.382812 0.0078125 28.5 0.1875 C 27.613281 0.375 26.328125 0.488281 24.640625 0.53125 C 22.953125 0.582031 20.710938 0.609375 17.921875 0.609375 C 15.128906 0.609375 12.890625 0.582031 11.203125 0.53125 C 9.515625 0.488281 8.226562 0.375 7.34375 0.1875 C 6.457031 0.0078125 5.878906 -0.238281 5.609375 -0.5625 C 5.335938 -0.882812 5.203125 -1.316406 5.203125 -1.859375 C 5.203125 -2.390625 5.335938 -2.816406 5.609375 -3.140625 C 5.878906 -3.460938 6.457031 -3.710938 7.34375 -3.890625 C 8.226562 -4.066406 9.515625 -4.175781 11.203125 -4.21875 C 12.890625 -4.269531 15.128906 -4.296875 17.921875 -4.296875 C 20.710938 -4.296875 22.953125 -4.269531 24.640625 -4.21875 C 26.328125 -4.175781 27.613281 -4.066406 28.5 -3.890625 C 29.382812 -3.710938 29.960938 -3.460938 30.234375 -3.140625 C 30.503906 -2.816406 30.640625 -2.390625 30.640625 -1.859375 Z M 27.640625 -11.796875 C 27.640625 -11.242188 27.535156 -10.804688 27.328125 -10.484375 C 27.128906 -10.160156 26.6875 -9.910156 26 -9.734375 C 25.320312 -9.554688 24.34375 -9.441406 23.0625 -9.390625 C 21.78125 -9.335938 20.066406 -9.3125 17.921875 -9.3125 C 15.773438 -9.3125 14.0625 -9.335938 12.78125 -9.390625 C 11.5 -9.441406 10.515625 -9.554688 9.828125 -9.734375 C 9.148438 -9.910156 8.707031 -10.160156 8.5 -10.484375 C 8.300781 -10.804688 8.203125 -11.242188 8.203125 -11.796875 C 8.203125 -12.316406 8.300781 -12.738281 8.5 -13.0625 C 8.707031 -13.382812 9.148438 -13.632812 9.828125 -13.8125 C 10.515625 -14 11.5 -14.113281 12.78125 -14.15625 C 14.0625 -14.207031 15.773438 -14.234375 17.921875 -14.234375 C 20.066406 -14.234375 21.78125 -14.207031 23.0625 -14.15625 C 24.34375 -14.113281 25.320312 -14 26 -13.8125 C 26.6875 -13.632812 27.128906 -13.382812 27.328125 -13.0625 C 27.535156 -12.738281 27.640625 -12.316406 27.640625 -11.796875 Z M 27.640625 -11.796875 "/></g></g></g><g fill="#f0b90b" fill-opacity="1"><g transform="translate(40.227205, 36.736521)"><g><path d="M 16.671875 -8.421875 C 16.671875 -9.421875 16.671875 -10.332031 16.671875 -11.15625 C 16.671875 -11.988281 16.679688 -12.738281 16.703125 -13.40625 C 16.441406 -13.257812 16.171875 -13.207031 15.890625 -13.25 C 15.617188 -13.300781 15.316406 -13.425781 14.984375 -13.625 C 14.554688 -13.882812 14.242188 -14.148438 14.046875 -14.421875 C 13.859375 -14.703125 13.800781 -15.09375 13.875 -15.59375 C 13.675781 -15.1875 13.367188 -14.695312 12.953125 -14.125 C 12.535156 -13.550781 12.003906 -12.84375 11.359375 -12 L 11.25 -11.859375 C 11.925781 -11.890625 12.476562 -11.882812 12.90625 -11.84375 C 13.332031 -11.8125 13.660156 -11.71875 13.890625 -11.5625 C 14.117188 -11.40625 14.28125 -11.191406 14.375 -10.921875 C 14.46875 -10.660156 14.539062 -10.34375 14.59375 -9.96875 C 14.613281 -9.46875 14.578125 -9.066406 14.484375 -8.765625 C 14.390625 -8.460938 14.164062 -8.21875 13.8125 -8.03125 C 13.46875 -7.84375 12.945312 -7.691406 12.25 -7.578125 C 11.5625 -7.472656 10.644531 -7.375 9.5 -7.28125 C 8.332031 -7.1875 7.398438 -7.128906 6.703125 -7.109375 C 6.003906 -7.097656 5.460938 -7.148438 5.078125 -7.265625 C 4.703125 -7.390625 4.441406 -7.59375 4.296875 -7.875 C 4.160156 -8.164062 4.066406 -8.5625 4.015625 -9.0625 C 3.960938 -9.664062 4.007812 -10.117188 4.15625 -10.421875 C 4.300781 -10.734375 4.660156 -10.988281 5.234375 -11.1875 C 5.421875 -11.5625 5.707031 -12.007812 6.09375 -12.53125 C 6.476562 -13.0625 6.957031 -13.695312 7.53125 -14.4375 L 6.484375 -14.953125 C 5.628906 -15.328125 4.972656 -15.6875 4.515625 -16.03125 C 4.054688 -16.382812 3.816406 -16.789062 3.796875 -17.25 C 3.773438 -17.71875 3.960938 -18.289062 4.359375 -18.96875 C 4.753906 -19.65625 5.34375 -20.535156 6.125 -21.609375 C 6.914062 -22.691406 7.566406 -23.539062 8.078125 -24.15625 C 8.597656 -24.78125 9.046875 -25.21875 9.421875 -25.46875 C 9.804688 -25.71875 10.15625 -25.804688 10.46875 -25.734375 C 10.78125 -25.660156 11.140625 -25.46875 11.546875 -25.15625 C 11.921875 -24.851562 12.203125 -24.582031 12.390625 -24.34375 C 12.585938 -24.101562 12.6875 -23.835938 12.6875 -23.546875 C 12.6875 -23.265625 12.582031 -22.929688 12.375 -22.546875 C 12.175781 -22.160156 11.882812 -21.679688 11.5 -21.109375 C 11.125 -20.585938 10.828125 -20.15625 10.609375 -19.8125 C 10.390625 -19.476562 10.25 -19.195312 10.1875 -18.96875 C 10.132812 -18.75 10.144531 -18.566406 10.21875 -18.421875 C 10.289062 -18.273438 10.421875 -18.144531 10.609375 -18.03125 C 11.160156 -18.550781 11.625 -18.800781 12 -18.78125 C 12.382812 -18.757812 12.816406 -18.554688 13.296875 -18.171875 C 13.585938 -17.910156 13.816406 -17.664062 13.984375 -17.4375 C 14.148438 -17.207031 14.21875 -16.960938 14.1875 -16.703125 C 14.382812 -17.203125 14.660156 -17.8125 15.015625 -18.53125 C 15.378906 -19.25 15.832031 -20.109375 16.375 -21.109375 C 17.113281 -22.492188 17.726562 -23.597656 18.21875 -24.421875 C 18.71875 -25.253906 19.15625 -25.851562 19.53125 -26.21875 C 19.914062 -26.59375 20.28125 -26.78125 20.625 -26.78125 C 20.96875 -26.78125 21.359375 -26.660156 21.796875 -26.421875 C 22.148438 -26.222656 22.421875 -26.007812 22.609375 -25.78125 C 22.804688 -25.5625 22.90625 -25.269531 22.90625 -24.90625 C 22.90625 -24.550781 22.804688 -24.101562 22.609375 -23.5625 C 22.421875 -23.03125 22.125 -22.34375 21.71875 -21.5 C 22.195312 -21.53125 22.734375 -21.550781 23.328125 -21.5625 C 23.929688 -21.570312 24.613281 -21.578125 25.375 -21.578125 C 25.332031 -21.691406 25.28125 -21.800781 25.21875 -21.90625 C 25.15625 -22.019531 25.101562 -22.148438 25.0625 -22.296875 C 24.789062 -22.847656 24.59375 -23.300781 24.46875 -23.65625 C 24.351562 -24.007812 24.320312 -24.304688 24.375 -24.546875 C 24.425781 -24.785156 24.554688 -24.992188 24.765625 -25.171875 C 24.984375 -25.359375 25.304688 -25.546875 25.734375 -25.734375 C 26.140625 -25.921875 26.484375 -26.046875 26.765625 -26.109375 C 27.054688 -26.171875 27.304688 -26.132812 27.515625 -26 C 27.734375 -25.875 27.953125 -25.648438 28.171875 -25.328125 C 28.390625 -25.003906 28.628906 -24.554688 28.890625 -23.984375 C 29.171875 -23.335938 29.363281 -22.820312 29.46875 -22.4375 C 29.582031 -22.050781 29.59375 -21.726562 29.5 -21.46875 C 30.21875 -21.425781 30.789062 -21.351562 31.21875 -21.25 C 31.644531 -21.15625 31.976562 -21.03125 32.21875 -20.875 C 32.457031 -20.71875 32.617188 -20.519531 32.703125 -20.28125 C 32.785156 -20.039062 32.828125 -19.742188 32.828125 -19.390625 C 32.828125 -18.984375 32.78125 -18.648438 32.6875 -18.390625 C 32.59375 -18.128906 32.394531 -17.921875 32.09375 -17.765625 C 31.800781 -17.609375 31.363281 -17.488281 30.78125 -17.40625 C 30.207031 -17.320312 29.457031 -17.265625 28.53125 -17.234375 C 28.582031 -16.992188 28.628906 -16.722656 28.671875 -16.421875 C 28.722656 -16.128906 28.769531 -15.78125 28.8125 -15.375 C 29.507812 -15.332031 30.066406 -15.257812 30.484375 -15.15625 C 30.898438 -15.0625 31.226562 -14.9375 31.46875 -14.78125 C 31.707031 -14.625 31.863281 -14.421875 31.9375 -14.171875 C 32.007812 -13.921875 32.046875 -13.617188 32.046875 -13.265625 C 32.046875 -12.898438 32.007812 -12.59375 31.9375 -12.34375 C 31.863281 -12.09375 31.710938 -11.890625 31.484375 -11.734375 C 31.253906 -11.578125 30.9375 -11.453125 30.53125 -11.359375 C 30.125 -11.265625 29.601562 -11.191406 28.96875 -11.140625 L 28.96875 -9.28125 C 29.601562 -9.238281 30.125 -9.164062 30.53125 -9.0625 C 30.9375 -8.96875 31.253906 -8.84375 31.484375 -8.6875 C 31.710938 -8.53125 31.863281 -8.332031 31.9375 -8.09375 C 32.007812 -7.863281 32.046875 -7.566406 32.046875 -7.203125 C 32.046875 -6.847656 32.007812 -6.546875 31.9375 -6.296875 C 31.863281 -6.046875 31.710938 -5.832031 31.484375 -5.65625 C 31.253906 -5.488281 30.929688 -5.359375 30.515625 -5.265625 C 30.097656 -5.171875 29.554688 -5.113281 28.890625 -5.09375 C 28.867188 -4.757812 28.84375 -4.441406 28.8125 -4.140625 C 28.789062 -3.835938 28.769531 -3.566406 28.75 -3.328125 C 29.65625 -3.285156 30.390625 -3.222656 30.953125 -3.140625 C 31.515625 -3.054688 31.941406 -2.9375 32.234375 -2.78125 C 32.535156 -2.625 32.734375 -2.40625 32.828125 -2.125 C 32.921875 -1.851562 32.96875 -1.523438 32.96875 -1.140625 C 32.96875 -0.640625 32.890625 -0.25 32.734375 0.03125 C 32.585938 0.320312 32.253906 0.546875 31.734375 0.703125 C 31.222656 0.859375 30.484375 0.957031 29.515625 1 C 28.546875 1.050781 27.25 1.078125 25.625 1.078125 C 24.476562 1.078125 23.507812 1.0625 22.71875 1.03125 C 21.9375 1.007812 21.269531 0.976562 20.71875 0.9375 C 20.550781 1.507812 20.328125 1.890625 20.046875 2.078125 C 19.773438 2.265625 19.414062 2.359375 18.96875 2.359375 C 18.457031 2.359375 18.050781 2.238281 17.75 2 C 17.457031 1.769531 17.226562 1.273438 17.0625 0.515625 C 16.894531 -0.234375 16.785156 -1.316406 16.734375 -2.734375 C 16.691406 -4.160156 16.671875 -6.054688 16.671875 -8.421875 Z M 3.578125 -1.796875 C 3.460938 -2.273438 3.429688 -2.664062 3.484375 -2.96875 C 3.546875 -3.28125 3.765625 -3.554688 4.140625 -3.796875 C 4.515625 -4.035156 5.0625 -4.25 5.78125 -4.4375 C 6.507812 -4.632812 7.507812 -4.863281 8.78125 -5.125 C 10.019531 -5.363281 11.007812 -5.535156 11.75 -5.640625 C 12.5 -5.753906 13.082031 -5.773438 13.5 -5.703125 C 13.914062 -5.628906 14.210938 -5.453125 14.390625 -5.171875 C 14.566406 -4.898438 14.71875 -4.523438 14.84375 -4.046875 C 14.9375 -3.566406 14.953125 -3.171875 14.890625 -2.859375 C 14.828125 -2.554688 14.617188 -2.289062 14.265625 -2.0625 C 13.910156 -1.832031 13.367188 -1.613281 12.640625 -1.40625 C 11.910156 -1.207031 10.921875 -0.988281 9.671875 -0.75 C 8.429688 -0.488281 7.4375 -0.3125 6.6875 -0.21875 C 5.9375 -0.125 5.34375 -0.109375 4.90625 -0.171875 C 4.476562 -0.242188 4.175781 -0.410156 4 -0.671875 C 3.820312 -0.941406 3.679688 -1.316406 3.578125 -1.796875 Z M 20.828125 -17.3125 C 20.867188 -17.050781 20.90625 -16.757812 20.9375 -16.4375 C 20.976562 -16.113281 21.023438 -15.75 21.078125 -15.34375 C 21.929688 -15.414062 23.101562 -15.453125 24.59375 -15.453125 C 24.632812 -15.828125 24.671875 -16.148438 24.703125 -16.421875 C 24.742188 -16.703125 24.800781 -16.960938 24.875 -17.203125 C 23.132812 -17.203125 21.785156 -17.238281 20.828125 -17.3125 Z M 21.1875 -5.09375 C 21.1875 -4.757812 21.1875 -4.4375 21.1875 -4.125 C 21.1875 -3.8125 21.171875 -3.523438 21.140625 -3.265625 C 22.023438 -3.335938 23.195312 -3.375 24.65625 -3.375 C 24.613281 -3.613281 24.582031 -3.863281 24.5625 -4.125 C 24.550781 -4.382812 24.535156 -4.679688 24.515625 -5.015625 C 23.828125 -5.015625 23.207031 -5.019531 22.65625 -5.03125 C 22.101562 -5.039062 21.613281 -5.0625 21.1875 -5.09375 Z M 24.453125 -11.078125 C 23.773438 -11.078125 23.164062 -11.082031 22.625 -11.09375 C 22.09375 -11.101562 21.625 -11.117188 21.21875 -11.140625 L 21.21875 -9.28125 C 22.03125 -9.351562 23.109375 -9.390625 24.453125 -9.390625 Z M 24.453125 -11.078125 "/></g></g></g><g fill="#f0b90b" fill-opacity="1"><g transform="translate(76.066905, 36.736521)"><g><path d="M 5.734375 1.296875 C 5.234375 1.242188 4.835938 1.078125 4.546875 0.796875 C 4.265625 0.523438 4.066406 -0.0234375 3.953125 -0.859375 C 3.847656 -1.691406 3.832031 -2.878906 3.90625 -4.421875 C 3.976562 -5.960938 4.109375 -8.023438 4.296875 -10.609375 C 4.421875 -12.328125 4.582031 -13.8125 4.78125 -15.0625 C 4.988281 -16.320312 5.28125 -17.390625 5.65625 -18.265625 C 6.039062 -19.140625 6.550781 -19.84375 7.1875 -20.375 C 7.820312 -20.914062 8.632812 -21.332031 9.625 -21.625 C 10.613281 -21.925781 11.804688 -22.125 13.203125 -22.21875 C 14.609375 -22.3125 16.265625 -22.359375 18.171875 -22.359375 L 20.4375 -22.359375 C 20.3125 -23.148438 20.238281 -23.796875 20.21875 -24.296875 C 20.195312 -24.804688 20.226562 -25.210938 20.3125 -25.515625 C 20.394531 -25.828125 20.53125 -26.066406 20.71875 -26.234375 C 20.90625 -26.398438 21.144531 -26.53125 21.4375 -26.625 C 21.769531 -26.726562 22.070312 -26.753906 22.34375 -26.703125 C 22.625 -26.648438 22.890625 -26.46875 23.140625 -26.15625 C 23.390625 -25.851562 23.644531 -25.390625 23.90625 -24.765625 C 24.164062 -24.148438 24.460938 -23.328125 24.796875 -22.296875 C 26.160156 -22.242188 27.265625 -22.175781 28.109375 -22.09375 C 28.960938 -22.007812 29.613281 -21.882812 30.0625 -21.71875 C 30.519531 -21.550781 30.828125 -21.34375 30.984375 -21.09375 C 31.140625 -20.84375 31.21875 -20.523438 31.21875 -20.140625 C 31.21875 -19.765625 31.15625 -19.445312 31.03125 -19.1875 C 30.914062 -18.9375 30.664062 -18.726562 30.28125 -18.5625 C 29.90625 -18.394531 29.375 -18.265625 28.6875 -18.171875 C 28.007812 -18.078125 27.109375 -18.019531 25.984375 -18 C 26.109375 -17.5625 26.226562 -17.109375 26.34375 -16.640625 C 26.46875 -16.179688 26.597656 -15.703125 26.734375 -15.203125 L 27.421875 -12.46875 C 28.046875 -13.238281 28.550781 -13.664062 28.9375 -13.75 C 29.332031 -13.832031 29.796875 -13.707031 30.328125 -13.375 C 30.679688 -13.132812 30.941406 -12.875 31.109375 -12.59375 C 31.273438 -12.320312 31.316406 -11.941406 31.234375 -11.453125 C 31.148438 -10.960938 30.925781 -10.335938 30.5625 -9.578125 C 30.207031 -8.828125 29.695312 -7.84375 29.03125 -6.625 C 29.25 -5.914062 29.441406 -5.335938 29.609375 -4.890625 C 29.773438 -4.453125 29.921875 -4.117188 30.046875 -3.890625 C 30.179688 -3.660156 30.304688 -3.523438 30.421875 -3.484375 C 30.546875 -3.453125 30.679688 -3.472656 30.828125 -3.546875 C 31.015625 -3.640625 31.179688 -3.691406 31.328125 -3.703125 C 31.472656 -3.722656 31.601562 -3.675781 31.71875 -3.5625 C 31.84375 -3.457031 31.972656 -3.269531 32.109375 -3 C 32.253906 -2.738281 32.425781 -2.394531 32.625 -1.96875 C 32.789062 -1.519531 32.890625 -1.140625 32.921875 -0.828125 C 32.953125 -0.515625 32.882812 -0.222656 32.71875 0.046875 C 32.550781 0.328125 32.257812 0.601562 31.84375 0.875 C 31.425781 1.15625 30.859375 1.5 30.140625 1.90625 C 29.660156 2.164062 29.234375 2.320312 28.859375 2.375 C 28.492188 2.4375 28.144531 2.359375 27.8125 2.140625 C 27.476562 1.929688 27.15625 1.554688 26.84375 1.015625 C 26.53125 0.484375 26.195312 -0.257812 25.84375 -1.21875 C 25.382812 -0.519531 24.988281 0.015625 24.65625 0.390625 C 24.320312 0.773438 24.007812 1.046875 23.71875 1.203125 C 23.4375 1.359375 23.164062 1.40625 22.90625 1.34375 C 22.644531 1.28125 22.359375 1.15625 22.046875 0.96875 C 21.640625 0.726562 21.351562 0.453125 21.1875 0.140625 C 21.019531 -0.171875 21 -0.613281 21.125 -1.1875 C 21.257812 -1.757812 21.566406 -2.515625 22.046875 -3.453125 C 22.523438 -4.398438 23.207031 -5.628906 24.09375 -7.140625 C 23.925781 -7.734375 23.753906 -8.359375 23.578125 -9.015625 C 23.410156 -9.671875 23.234375 -10.367188 23.046875 -11.109375 C 22.691406 -12.472656 22.375 -13.71875 22.09375 -14.84375 C 21.820312 -15.96875 21.578125 -16.992188 21.359375 -17.921875 L 20.359375 -17.921875 C 17.921875 -17.921875 15.972656 -17.8125 14.515625 -17.59375 C 13.054688 -17.382812 11.921875 -16.921875 11.109375 -16.203125 C 11.535156 -16.296875 12.109375 -16.351562 12.828125 -16.375 C 13.546875 -16.40625 14.46875 -16.421875 15.59375 -16.421875 C 16.851562 -16.421875 17.859375 -16.398438 18.609375 -16.359375 C 19.367188 -16.328125 19.953125 -16.242188 20.359375 -16.109375 C 20.765625 -15.984375 21.03125 -15.789062 21.15625 -15.53125 C 21.289062 -15.28125 21.359375 -14.953125 21.359375 -14.546875 C 21.359375 -14.140625 21.296875 -13.8125 21.171875 -13.5625 C 21.054688 -13.3125 20.8125 -13.117188 20.4375 -12.984375 C 20.070312 -12.859375 19.546875 -12.769531 18.859375 -12.71875 C 18.179688 -12.675781 17.269531 -12.65625 16.125 -12.65625 C 16.21875 -12.320312 16.195312 -11.796875 16.0625 -11.078125 L 16.203125 -11.078125 C 17.679688 -11.078125 18.828125 -11 19.640625 -10.84375 C 20.453125 -10.6875 20.976562 -10.363281 21.21875 -9.875 C 21.457031 -9.382812 21.414062 -8.671875 21.09375 -7.734375 C 20.769531 -6.804688 20.226562 -5.566406 19.46875 -4.015625 L 18.75 -2.609375 C 19.101562 -2.441406 19.382812 -2.285156 19.59375 -2.140625 C 19.8125 -2.003906 19.960938 -1.84375 20.046875 -1.65625 C 20.140625 -1.476562 20.171875 -1.273438 20.140625 -1.046875 C 20.117188 -0.828125 20.0625 -0.5625 19.96875 -0.25 C 19.84375 0.0625 19.710938 0.3125 19.578125 0.5 C 19.453125 0.6875 19.28125 0.820312 19.0625 0.90625 C 18.851562 1 18.566406 1.03125 18.203125 1 C 17.847656 0.976562 17.40625 0.894531 16.875 0.75 C 16.59375 1.207031 16.332031 1.5625 16.09375 1.8125 C 15.851562 2.0625 15.625 2.234375 15.40625 2.328125 C 15.195312 2.421875 14.984375 2.457031 14.765625 2.4375 C 14.546875 2.414062 14.304688 2.34375 14.046875 2.21875 C 13.429688 1.957031 13.046875 1.648438 12.890625 1.296875 C 12.734375 0.953125 12.8125 0.375 13.125 -0.4375 C 12.257812 -0.738281 11.585938 -1.054688 11.109375 -1.390625 C 10.628906 -1.734375 10.300781 -2.160156 10.125 -2.671875 C 9.945312 -3.179688 9.90625 -3.816406 10 -4.578125 C 10.09375 -5.347656 10.296875 -6.304688 10.609375 -7.453125 C 10.085938 -7.546875 9.753906 -7.722656 9.609375 -7.984375 C 9.460938 -8.253906 9.390625 -8.664062 9.390625 -9.21875 C 9.390625 -9.757812 9.523438 -10.15625 9.796875 -10.40625 C 10.078125 -10.65625 10.679688 -10.832031 11.609375 -10.9375 C 11.734375 -11.3125 11.851562 -11.648438 11.96875 -11.953125 C 12.09375 -12.253906 12.210938 -12.507812 12.328125 -12.71875 C 11.347656 -12.789062 10.691406 -12.941406 10.359375 -13.171875 C 10.023438 -13.398438 9.847656 -13.753906 9.828125 -14.234375 C 9.535156 -13.535156 9.3125 -12.695312 9.15625 -11.71875 C 9 -10.738281 8.875 -9.582031 8.78125 -8.25 C 8.59375 -6.113281 8.425781 -4.40625 8.28125 -3.125 C 8.132812 -1.851562 7.953125 -0.882812 7.734375 -0.21875 C 7.523438 0.445312 7.265625 0.875 6.953125 1.0625 C 6.640625 1.257812 6.234375 1.335938 5.734375 1.296875 Z M 29.671875 -25.734375 C 29.890625 -25.253906 30.046875 -24.863281 30.140625 -24.5625 C 30.234375 -24.269531 30.25 -24.015625 30.1875 -23.796875 C 30.132812 -23.585938 29.988281 -23.40625 29.75 -23.25 C 29.507812 -23.09375 29.175781 -22.914062 28.75 -22.71875 C 28.289062 -22.53125 27.914062 -22.398438 27.625 -22.328125 C 27.34375 -22.253906 27.09375 -22.257812 26.875 -22.34375 C 26.664062 -22.425781 26.46875 -22.59375 26.28125 -22.84375 C 26.101562 -23.101562 25.898438 -23.46875 25.671875 -23.9375 C 25.453125 -24.394531 25.296875 -24.769531 25.203125 -25.0625 C 25.109375 -25.363281 25.09375 -25.625 25.15625 -25.84375 C 25.226562 -26.0625 25.382812 -26.253906 25.625 -26.421875 C 25.863281 -26.585938 26.195312 -26.765625 26.625 -26.953125 C 27.0625 -27.140625 27.421875 -27.269531 27.703125 -27.34375 C 27.992188 -27.414062 28.242188 -27.410156 28.453125 -27.328125 C 28.671875 -27.242188 28.867188 -27.070312 29.046875 -26.8125 C 29.222656 -26.550781 29.429688 -26.191406 29.671875 -25.734375 Z M 14.796875 -4.09375 C 15.109375 -4.726562 15.359375 -5.25 15.546875 -5.65625 C 15.742188 -6.0625 15.851562 -6.382812 15.875 -6.625 C 15.90625 -6.863281 15.847656 -7.03125 15.703125 -7.125 C 15.554688 -7.226562 15.304688 -7.289062 14.953125 -7.3125 C 14.785156 -6.789062 14.644531 -6.347656 14.53125 -5.984375 C 14.425781 -5.628906 14.359375 -5.332031 14.328125 -5.09375 C 14.304688 -4.851562 14.332031 -4.65625 14.40625 -4.5 C 14.476562 -4.34375 14.609375 -4.207031 14.796875 -4.09375 Z M 14.796875 -4.09375 "/></g></g></g><g fill="#f0b90b" fill-opacity="1"><g transform="translate(111.906605, 36.736521)"><g><path d="M 10.828125 -14.546875 C 10.828125 -14.835938 10.878906 -15.078125 10.984375 -15.265625 C 11.085938 -15.460938 11.289062 -15.625 11.59375 -15.75 C 11.894531 -15.882812 12.328125 -15.988281 12.890625 -16.0625 C 13.453125 -16.132812 14.195312 -16.191406 15.125 -16.234375 C 15.125 -16.429688 15.128906 -16.613281 15.140625 -16.78125 C 15.148438 -16.945312 15.171875 -17.097656 15.203125 -17.234375 C 14.265625 -17.265625 13.488281 -17.304688 12.875 -17.359375 C 12.269531 -17.421875 11.78125 -17.5 11.40625 -17.59375 C 11.039062 -17.695312 10.773438 -17.820312 10.609375 -17.96875 C 10.441406 -18.125 10.332031 -18.3125 10.28125 -18.53125 C 9.925781 -17.695312 9.644531 -16.679688 9.4375 -15.484375 C 9.238281 -14.285156 9.066406 -12.863281 8.921875 -11.21875 C 8.679688 -8.757812 8.46875 -6.796875 8.28125 -5.328125 C 8.09375 -3.859375 7.882812 -2.738281 7.65625 -1.96875 C 7.425781 -1.207031 7.15625 -0.722656 6.84375 -0.515625 C 6.53125 -0.316406 6.125 -0.238281 5.625 -0.28125 C 5.125 -0.351562 4.742188 -0.546875 4.484375 -0.859375 C 4.222656 -1.171875 4.054688 -1.789062 3.984375 -2.71875 C 3.910156 -3.65625 3.929688 -4.972656 4.046875 -6.671875 C 4.171875 -8.367188 4.363281 -10.640625 4.625 -13.484375 C 4.863281 -16.128906 5.1875 -18.28125 5.59375 -19.9375 C 6 -21.601562 6.625 -22.894531 7.46875 -23.8125 C 8.320312 -24.738281 9.476562 -25.375 10.9375 -25.71875 C 12.394531 -26.0625 14.316406 -26.257812 16.703125 -26.3125 C 16.753906 -27.050781 16.929688 -27.519531 17.234375 -27.71875 C 17.546875 -27.925781 18.125 -28.03125 18.96875 -28.03125 C 19.800781 -28.03125 20.367188 -27.925781 20.671875 -27.71875 C 20.984375 -27.519531 21.164062 -27.0625 21.21875 -26.34375 C 23.4375 -26.320312 25.222656 -26.28125 26.578125 -26.21875 C 27.929688 -26.15625 28.972656 -26.050781 29.703125 -25.90625 C 30.429688 -25.769531 30.90625 -25.582031 31.125 -25.34375 C 31.351562 -25.101562 31.46875 -24.789062 31.46875 -24.40625 C 31.46875 -23.976562 31.347656 -23.628906 31.109375 -23.359375 C 30.867188 -23.097656 30.375 -22.898438 29.625 -22.765625 C 28.875 -22.640625 27.789062 -22.550781 26.375 -22.5 C 24.96875 -22.457031 23.082031 -22.4375 20.71875 -22.4375 C 19.851562 -22.4375 19.054688 -22.414062 18.328125 -22.375 C 17.597656 -22.34375 16.925781 -22.304688 16.3125 -22.265625 C 16.550781 -22.066406 16.882812 -21.585938 17.3125 -20.828125 C 17.3125 -20.804688 17.335938 -20.769531 17.390625 -20.71875 L 21.609375 -20.71875 C 21.609375 -20.71875 21.625 -20.726562 21.65625 -20.75 C 21.84375 -21.15625 22.015625 -21.472656 22.171875 -21.703125 C 22.328125 -21.929688 22.488281 -22.085938 22.65625 -22.171875 C 22.820312 -22.253906 23.003906 -22.273438 23.203125 -22.234375 C 23.410156 -22.203125 23.679688 -22.113281 24.015625 -21.96875 C 24.421875 -21.78125 24.703125 -21.59375 24.859375 -21.40625 C 25.015625 -21.226562 25.054688 -20.988281 24.984375 -20.6875 C 26.148438 -20.65625 27.097656 -20.601562 27.828125 -20.53125 C 28.554688 -20.46875 29.117188 -20.367188 29.515625 -20.234375 C 29.910156 -20.097656 30.171875 -19.925781 30.296875 -19.71875 C 30.429688 -19.519531 30.5 -19.269531 30.5 -18.96875 C 30.5 -18.625 30.421875 -18.34375 30.265625 -18.125 C 30.109375 -17.914062 29.796875 -17.742188 29.328125 -17.609375 C 28.867188 -17.484375 28.210938 -17.390625 27.359375 -17.328125 C 26.515625 -17.265625 25.390625 -17.222656 23.984375 -17.203125 C 24.003906 -17.054688 24.019531 -16.898438 24.03125 -16.734375 C 24.039062 -16.566406 24.046875 -16.390625 24.046875 -16.203125 C 25.171875 -16.128906 26.097656 -16.003906 26.828125 -15.828125 C 27.554688 -15.648438 28.132812 -15.375 28.5625 -15 C 29 -14.625 29.3125 -14.148438 29.5 -13.578125 C 29.6875 -13.003906 29.804688 -12.289062 29.859375 -11.4375 C 30.546875 -11.3125 31.003906 -11.15625 31.234375 -10.96875 C 31.460938 -10.78125 31.578125 -10.515625 31.578125 -10.171875 C 31.578125 -9.835938 31.460938 -9.5625 31.234375 -9.34375 C 31.003906 -9.132812 30.546875 -8.972656 29.859375 -8.859375 C 29.835938 -8.066406 29.757812 -7.394531 29.625 -6.84375 C 29.488281 -6.289062 29.269531 -5.820312 28.96875 -5.4375 C 28.675781 -5.0625 28.285156 -4.753906 27.796875 -4.515625 C 27.304688 -4.273438 26.679688 -4.097656 25.921875 -3.984375 C 26.128906 -3.859375 26.363281 -3.695312 26.625 -3.5 C 26.894531 -3.3125 27.195312 -3.085938 27.53125 -2.828125 C 28.082031 -2.378906 28.507812 -2.003906 28.8125 -1.703125 C 29.125 -1.398438 29.332031 -1.128906 29.4375 -0.890625 C 29.550781 -0.648438 29.570312 -0.414062 29.5 -0.1875 C 29.425781 0.03125 29.269531 0.296875 29.03125 0.609375 C 28.769531 0.941406 28.535156 1.179688 28.328125 1.328125 C 28.128906 1.472656 27.894531 1.519531 27.625 1.46875 C 27.363281 1.414062 27.046875 1.269531 26.671875 1.03125 C 26.304688 0.800781 25.835938 0.445312 25.265625 -0.03125 L 24.046875 -1.046875 C 24.003906 -0.234375 23.941406 0.421875 23.859375 0.921875 C 23.773438 1.429688 23.671875 1.828125 23.546875 2.109375 C 23.429688 2.398438 23.273438 2.59375 23.078125 2.6875 C 22.890625 2.78125 22.664062 2.828125 22.40625 2.828125 C 22.070312 2.828125 21.796875 2.75 21.578125 2.59375 C 21.359375 2.4375 21.179688 2.125 21.046875 1.65625 C 20.921875 1.195312 20.820312 0.539062 20.75 -0.3125 C 20.675781 -1.175781 20.628906 -2.316406 20.609375 -3.734375 L 18.609375 -3.734375 C 18.578125 -2.296875 18.53125 -1.140625 18.46875 -0.265625 C 18.414062 0.609375 18.316406 1.28125 18.171875 1.75 C 18.023438 2.226562 17.835938 2.546875 17.609375 2.703125 C 17.390625 2.859375 17.125 2.9375 16.8125 2.9375 C 16.550781 2.9375 16.328125 2.890625 16.140625 2.796875 C 15.960938 2.703125 15.800781 2.53125 15.65625 2.28125 C 15.519531 2.03125 15.410156 1.671875 15.328125 1.203125 C 15.242188 0.734375 15.175781 0.117188 15.125 -0.640625 L 14.1875 0.109375 C 13.570312 0.609375 13.0625 0.992188 12.65625 1.265625 C 12.25 1.546875 11.90625 1.710938 11.625 1.765625 C 11.351562 1.828125 11.113281 1.789062 10.90625 1.65625 C 10.707031 1.53125 10.488281 1.3125 10.25 1 C 9.988281 0.71875 9.816406 0.457031 9.734375 0.21875 C 9.648438 -0.0195312 9.664062 -0.265625 9.78125 -0.515625 C 9.90625 -0.765625 10.140625 -1.050781 10.484375 -1.375 C 10.828125 -1.695312 11.3125 -2.109375 11.9375 -2.609375 C 12.695312 -3.234375 13.269531 -3.65625 13.65625 -3.875 C 12.601562 -3.96875 11.921875 -4.140625 11.609375 -4.390625 C 11.296875 -4.640625 11.140625 -5.003906 11.140625 -5.484375 C 11.140625 -5.773438 11.1875 -6.019531 11.28125 -6.21875 C 11.382812 -6.425781 11.566406 -6.59375 11.828125 -6.71875 C 12.085938 -6.851562 12.46875 -6.957031 12.96875 -7.03125 C 13.476562 -7.101562 14.148438 -7.148438 14.984375 -7.171875 L 14.984375 -8.5625 C 13.742188 -8.59375 12.738281 -8.640625 11.96875 -8.703125 C 11.207031 -8.773438 10.625 -8.867188 10.21875 -8.984375 C 9.8125 -9.109375 9.535156 -9.265625 9.390625 -9.453125 C 9.242188 -9.648438 9.171875 -9.890625 9.171875 -10.171875 C 9.171875 -10.441406 9.242188 -10.671875 9.390625 -10.859375 C 9.535156 -11.046875 9.8125 -11.195312 10.21875 -11.3125 C 10.625 -11.4375 11.207031 -11.53125 11.96875 -11.59375 C 12.738281 -11.65625 13.742188 -11.695312 14.984375 -11.71875 L 14.984375 -12.828125 C 14.078125 -12.859375 13.351562 -12.90625 12.8125 -12.96875 C 12.269531 -13.039062 11.847656 -13.144531 11.546875 -13.28125 C 11.253906 -13.414062 11.0625 -13.582031 10.96875 -13.78125 C 10.875 -13.988281 10.828125 -14.242188 10.828125 -14.546875 Z M 20.359375 -8.53125 L 18.640625 -8.53125 L 18.640625 -7.234375 L 20.578125 -7.234375 L 20.578125 -8.53125 Z M 15.015625 -22.078125 C 14.179688 -21.910156 13.46875 -21.6875 12.875 -21.40625 C 12.289062 -21.132812 11.785156 -20.757812 11.359375 -20.28125 C 11.910156 -20.425781 12.769531 -20.535156 13.9375 -20.609375 C 13.84375 -20.941406 13.875 -21.203125 14.03125 -21.390625 C 14.1875 -21.585938 14.492188 -21.804688 14.953125 -22.046875 C 14.953125 -22.046875 14.972656 -22.054688 15.015625 -22.078125 Z M 18.421875 -17.203125 L 18.5 -16.3125 L 20.71875 -16.3125 C 20.71875 -16.476562 20.722656 -16.628906 20.734375 -16.765625 C 20.742188 -16.910156 20.765625 -17.054688 20.796875 -17.203125 Z M 20.359375 -11.75 L 20.578125 -11.75 L 20.578125 -12.765625 C 20.285156 -12.785156 19.972656 -12.796875 19.640625 -12.796875 C 19.304688 -12.796875 18.960938 -12.796875 18.609375 -12.796875 C 18.609375 -12.628906 18.613281 -12.460938 18.625 -12.296875 C 18.632812 -12.128906 18.640625 -11.945312 18.640625 -11.75 Z M 26.28125 -8.5625 C 25.96875 -8.5625 25.632812 -8.554688 25.28125 -8.546875 C 24.9375 -8.535156 24.570312 -8.53125 24.1875 -8.53125 L 24.1875 -7.453125 C 24.8125 -7.578125 25.28125 -7.722656 25.59375 -7.890625 C 25.90625 -8.054688 26.132812 -8.28125 26.28125 -8.5625 Z M 26.125 -11.71875 C 25.9375 -11.9375 25.691406 -12.109375 25.390625 -12.234375 C 25.097656 -12.367188 24.6875 -12.472656 24.15625 -12.546875 C 24.15625 -12.421875 24.160156 -12.285156 24.171875 -12.140625 C 24.179688 -12.003906 24.1875 -11.863281 24.1875 -11.71875 Z M 26.125 -11.71875 "/></g></g></g><g fill="#f0b90b" fill-opacity="1"><g transform="translate(147.746304, 36.736521)"><g><path d="M 12.15625 -6.0625 C 11.3125 -6.707031 10.769531 -7.21875 10.53125 -7.59375 C 10.082031 -7.019531 9.679688 -6.570312 9.328125 -6.25 C 8.984375 -5.925781 8.664062 -5.695312 8.375 -5.5625 C 8.09375 -5.4375 7.832031 -5.394531 7.59375 -5.4375 C 7.351562 -5.488281 7.101562 -5.597656 6.84375 -5.765625 C 6.507812 -5.960938 6.265625 -6.195312 6.109375 -6.46875 C 5.953125 -6.738281 5.914062 -7.109375 6 -7.578125 C 6.082031 -8.046875 6.300781 -8.648438 6.65625 -9.390625 C 7.019531 -10.128906 7.535156 -11.070312 8.203125 -12.21875 C 7.015625 -12.363281 6.234375 -12.578125 5.859375 -12.859375 C 5.492188 -13.148438 5.3125 -13.546875 5.3125 -14.046875 C 5.3125 -14.359375 5.375 -14.632812 5.5 -14.875 C 5.632812 -15.113281 5.882812 -15.3125 6.25 -15.46875 C 6.625 -15.625 7.15625 -15.75 7.84375 -15.84375 C 8.539062 -15.9375 9.453125 -16.007812 10.578125 -16.0625 L 11.296875 -17.171875 C 10.335938 -17.285156 9.71875 -17.476562 9.4375 -17.75 C 9.164062 -18.03125 9.03125 -18.421875 9.03125 -18.921875 C 9.03125 -19.234375 9.082031 -19.503906 9.1875 -19.734375 C 9.300781 -19.960938 9.519531 -20.148438 9.84375 -20.296875 C 10.164062 -20.453125 10.628906 -20.566406 11.234375 -20.640625 C 11.847656 -20.710938 12.644531 -20.773438 13.625 -20.828125 C 13.738281 -20.972656 13.835938 -21.117188 13.921875 -21.265625 C 14.003906 -21.421875 14.09375 -21.570312 14.1875 -21.71875 C 12.800781 -21.738281 11.679688 -21.789062 10.828125 -21.875 C 9.984375 -21.96875 9.332031 -22.085938 8.875 -22.234375 C 8.425781 -22.390625 8.128906 -22.597656 7.984375 -22.859375 C 7.847656 -23.128906 7.78125 -23.457031 7.78125 -23.84375 C 7.78125 -24.269531 7.882812 -24.617188 8.09375 -24.890625 C 8.3125 -25.171875 8.75 -25.394531 9.40625 -25.5625 C 10.0625 -25.726562 11.007812 -25.835938 12.25 -25.890625 C 13.5 -25.953125 15.148438 -25.984375 17.203125 -25.984375 C 17.679688 -26.609375 18.101562 -27.09375 18.46875 -27.4375 C 18.84375 -27.78125 19.1875 -28.023438 19.5 -28.171875 C 19.8125 -28.316406 20.101562 -28.367188 20.375 -28.328125 C 20.65625 -28.296875 20.945312 -28.195312 21.25 -28.03125 C 21.65625 -27.8125 21.9375 -27.550781 22.09375 -27.25 C 22.25 -26.957031 22.253906 -26.535156 22.109375 -25.984375 C 23.804688 -25.960938 25.171875 -25.914062 26.203125 -25.84375 C 27.234375 -25.769531 28.023438 -25.65625 28.578125 -25.5 C 29.140625 -25.34375 29.507812 -25.128906 29.6875 -24.859375 C 29.875 -24.585938 29.96875 -24.25 29.96875 -23.84375 C 29.96875 -23.382812 29.851562 -23.007812 29.625 -22.71875 C 29.394531 -22.4375 28.925781 -22.21875 28.21875 -22.0625 C 27.519531 -21.90625 26.519531 -21.800781 25.21875 -21.75 C 23.914062 -21.707031 22.175781 -21.6875 20 -21.6875 L 19.5 -20.890625 C 21.4375 -20.890625 22.984375 -20.859375 24.140625 -20.796875 C 25.296875 -20.742188 26.1875 -20.644531 26.8125 -20.5 C 27.4375 -20.351562 27.84375 -20.15625 28.03125 -19.90625 C 28.21875 -19.65625 28.3125 -19.328125 28.3125 -18.921875 C 28.3125 -18.492188 28.207031 -18.144531 28 -17.875 C 27.800781 -17.613281 27.363281 -17.414062 26.6875 -17.28125 C 26.007812 -17.15625 25.035156 -17.066406 23.765625 -17.015625 C 22.492188 -16.972656 20.796875 -16.953125 18.671875 -16.953125 L 16.984375 -16.953125 L 16.453125 -16.171875 L 18.890625 -16.171875 C 21.847656 -16.171875 24.222656 -16.144531 26.015625 -16.09375 C 27.804688 -16.039062 29.175781 -15.941406 30.125 -15.796875 C 31.070312 -15.660156 31.691406 -15.445312 31.984375 -15.15625 C 32.285156 -14.875 32.4375 -14.503906 32.4375 -14.046875 C 32.4375 -13.785156 32.394531 -13.550781 32.3125 -13.34375 C 32.226562 -13.144531 32.070312 -12.972656 31.84375 -12.828125 C 31.613281 -12.679688 31.289062 -12.5625 30.875 -12.46875 C 30.457031 -12.375 29.925781 -12.289062 29.28125 -12.21875 C 29.28125 -12.195312 29.289062 -12.1875 29.3125 -12.1875 C 30.175781 -11.394531 30.859375 -10.75 31.359375 -10.25 C 31.859375 -9.75 32.203125 -9.3125 32.390625 -8.9375 C 32.585938 -8.570312 32.640625 -8.238281 32.546875 -7.9375 C 32.453125 -7.632812 32.257812 -7.296875 31.96875 -6.921875 C 31.707031 -6.585938 31.457031 -6.347656 31.21875 -6.203125 C 30.976562 -6.054688 30.707031 -6.015625 30.40625 -6.078125 C 30.113281 -6.140625 29.742188 -6.304688 29.296875 -6.578125 C 28.859375 -6.847656 28.316406 -7.25 27.671875 -7.78125 C 27.554688 -7.582031 27.410156 -7.375 27.234375 -7.15625 C 27.066406 -6.945312 26.851562 -6.703125 26.59375 -6.421875 C 26.164062 -5.941406 25.800781 -5.578125 25.5 -5.328125 C 25.207031 -5.078125 24.925781 -4.929688 24.65625 -4.890625 C 24.394531 -4.859375 24.125 -4.925781 23.84375 -5.09375 C 23.570312 -5.257812 23.25 -5.519531 22.875 -5.875 C 22.488281 -6.207031 22.195312 -6.5 22 -6.75 C 21.8125 -7.007812 21.722656 -7.265625 21.734375 -7.515625 C 21.742188 -7.765625 21.859375 -8.039062 22.078125 -8.34375 C 22.296875 -8.65625 22.617188 -9.050781 23.046875 -9.53125 C 23.304688 -9.789062 23.53125 -10.015625 23.71875 -10.203125 C 23.914062 -10.398438 24.097656 -10.5625 24.265625 -10.6875 C 23.710938 -11.1875 23.316406 -11.613281 23.078125 -11.96875 L 13.6875 -11.96875 L 13.015625 -10.96875 C 13.253906 -10.914062 13.519531 -10.800781 13.8125 -10.625 C 14.113281 -10.445312 14.476562 -10.203125 14.90625 -9.890625 C 15.4375 -9.503906 15.847656 -9.175781 16.140625 -8.90625 C 16.441406 -8.632812 16.628906 -8.363281 16.703125 -8.09375 C 16.773438 -7.832031 16.742188 -7.554688 16.609375 -7.265625 C 16.484375 -6.984375 16.265625 -6.640625 15.953125 -6.234375 C 15.734375 -5.972656 15.546875 -5.753906 15.390625 -5.578125 C 15.234375 -5.398438 15.070312 -5.25 14.90625 -5.125 C 15.101562 -5.007812 15.269531 -4.832031 15.40625 -4.59375 C 15.550781 -4.351562 15.695312 -4.039062 15.84375 -3.65625 C 16.03125 -3.101562 16.125 -2.640625 16.125 -2.265625 C 16.125 -1.898438 15.984375 -1.5625 15.703125 -1.25 C 15.910156 -1.25 16.085938 -1.300781 16.234375 -1.40625 C 16.378906 -1.519531 16.488281 -1.753906 16.5625 -2.109375 C 16.632812 -2.472656 16.679688 -2.988281 16.703125 -3.65625 C 16.722656 -4.320312 16.734375 -5.207031 16.734375 -6.3125 C 16.734375 -7.40625 16.753906 -8.285156 16.796875 -8.953125 C 16.847656 -9.628906 16.957031 -10.144531 17.125 -10.5 C 17.300781 -10.863281 17.550781 -11.097656 17.875 -11.203125 C 18.195312 -11.304688 18.617188 -11.359375 19.140625 -11.359375 C 19.660156 -11.359375 20.078125 -11.28125 20.390625 -11.125 C 20.703125 -10.96875 20.941406 -10.632812 21.109375 -10.125 C 21.273438 -9.613281 21.378906 -8.878906 21.421875 -7.921875 C 21.472656 -6.960938 21.5 -5.6875 21.5 -4.09375 L 21.5 -2.9375 C 21.550781 -3.101562 21.625 -3.269531 21.71875 -3.4375 C 21.9375 -3.914062 22.148438 -4.28125 22.359375 -4.53125 C 22.578125 -4.78125 22.851562 -4.914062 23.1875 -4.9375 C 23.519531 -4.96875 23.941406 -4.882812 24.453125 -4.6875 C 24.972656 -4.5 25.648438 -4.210938 26.484375 -3.828125 C 27.328125 -3.453125 27.984375 -3.125 28.453125 -2.84375 C 28.929688 -2.570312 29.269531 -2.296875 29.46875 -2.015625 C 29.675781 -1.742188 29.753906 -1.457031 29.703125 -1.15625 C 29.660156 -0.863281 29.53125 -0.488281 29.3125 -0.03125 C 29.082031 0.414062 28.859375 0.753906 28.640625 0.984375 C 28.421875 1.210938 28.140625 1.335938 27.796875 1.359375 C 27.453125 1.378906 27.019531 1.304688 26.5 1.140625 C 25.988281 0.972656 25.316406 0.710938 24.484375 0.359375 C 23.597656 0.00390625 22.921875 -0.300781 22.453125 -0.5625 C 21.984375 -0.832031 21.65625 -1.109375 21.46875 -1.390625 C 21.425781 -0.390625 21.34375 0.40625 21.21875 1 C 21.101562 1.601562 20.914062 2.066406 20.65625 2.390625 C 20.40625 2.710938 20.070312 2.925781 19.65625 3.03125 C 19.238281 3.132812 18.71875 3.1875 18.09375 3.1875 C 17.332031 3.1875 16.722656 3.160156 16.265625 3.109375 C 15.816406 3.066406 15.46875 2.972656 15.21875 2.828125 C 14.96875 2.679688 14.804688 2.457031 14.734375 2.15625 C 14.660156 1.863281 14.625 1.46875 14.625 0.96875 C 14.625 0.632812 14.625 0.347656 14.625 0.109375 C 14.625 -0.128906 14.648438 -0.332031 14.703125 -0.5 C 14.410156 -0.351562 14.078125 -0.195312 13.703125 -0.03125 C 13.335938 0.132812 12.914062 0.3125 12.4375 0.5 C 11.507812 0.882812 10.765625 1.164062 10.203125 1.34375 C 9.640625 1.519531 9.175781 1.582031 8.8125 1.53125 C 8.457031 1.488281 8.175781 1.328125 7.96875 1.046875 C 7.769531 0.773438 7.585938 0.367188 7.421875 -0.171875 C 7.234375 -0.679688 7.128906 -1.109375 7.109375 -1.453125 C 7.097656 -1.796875 7.210938 -2.109375 7.453125 -2.390625 C 7.691406 -2.679688 8.078125 -2.96875 8.609375 -3.25 C 9.148438 -3.539062 9.890625 -3.878906 10.828125 -4.265625 C 11.378906 -4.503906 11.863281 -4.703125 12.28125 -4.859375 C 12.695312 -5.015625 13.070312 -5.140625 13.40625 -5.234375 C 13.238281 -5.328125 13.050781 -5.4375 12.84375 -5.5625 C 12.644531 -5.695312 12.414062 -5.863281 12.15625 -6.0625 Z M 12.15625 -6.0625 "/></g></g></g><g fill="#f0b90b" fill-opacity="1"><g transform="translate(183.586004, 36.736521)"><g><path d="M 8.359375 -13.484375 C 7.847656 -13.671875 7.472656 -13.894531 7.234375 -14.15625 C 6.992188 -14.414062 6.878906 -14.800781 6.890625 -15.3125 C 6.910156 -15.832031 7.0625 -16.523438 7.34375 -17.390625 C 7.632812 -18.265625 8.066406 -19.421875 8.640625 -20.859375 C 9.210938 -22.265625 9.6875 -23.378906 10.0625 -24.203125 C 10.445312 -25.035156 10.8125 -25.640625 11.15625 -26.015625 C 11.507812 -26.398438 11.859375 -26.601562 12.203125 -26.625 C 12.546875 -26.65625 12.972656 -26.570312 13.484375 -26.375 C 13.859375 -26.207031 14.164062 -26.03125 14.40625 -25.84375 C 14.644531 -25.65625 14.800781 -25.390625 14.875 -25.046875 C 14.945312 -24.710938 14.9375 -24.289062 14.84375 -23.78125 C 14.75 -23.269531 14.554688 -22.617188 14.265625 -21.828125 C 14.984375 -21.921875 15.882812 -21.976562 16.96875 -22 C 18.0625 -22.03125 19.394531 -22.046875 20.96875 -22.046875 C 23.070312 -22.046875 24.742188 -21.988281 25.984375 -21.875 C 27.222656 -21.769531 28.128906 -21.550781 28.703125 -21.21875 C 29.285156 -20.882812 29.59375 -20.390625 29.625 -19.734375 C 29.65625 -19.078125 29.53125 -18.210938 29.25 -17.140625 C 28.957031 -16.054688 28.695312 -15.195312 28.46875 -14.5625 C 28.25 -13.9375 28.015625 -13.46875 27.765625 -13.15625 C 27.515625 -12.84375 27.226562 -12.671875 26.90625 -12.640625 C 26.582031 -12.617188 26.171875 -12.671875 25.671875 -12.796875 C 25.160156 -12.910156 24.769531 -13.023438 24.5 -13.140625 C 24.226562 -13.265625 24.03125 -13.414062 23.90625 -13.59375 C 23.789062 -13.78125 23.742188 -14.003906 23.765625 -14.265625 C 23.785156 -14.523438 23.867188 -14.875 24.015625 -15.3125 C 24.160156 -15.71875 24.203125 -16.046875 24.140625 -16.296875 C 24.078125 -16.546875 23.835938 -16.734375 23.421875 -16.859375 C 23.003906 -16.992188 22.359375 -17.082031 21.484375 -17.125 C 20.617188 -17.175781 19.457031 -17.203125 18 -17.203125 C 16.5625 -17.203125 15.414062 -17.21875 14.5625 -17.25 C 13.71875 -17.289062 13.054688 -17.394531 12.578125 -17.5625 C 12.128906 -16.488281 11.734375 -15.632812 11.390625 -15 C 11.054688 -14.363281 10.738281 -13.898438 10.4375 -13.609375 C 10.144531 -13.328125 9.835938 -13.1875 9.515625 -13.1875 C 9.191406 -13.1875 8.804688 -13.285156 8.359375 -13.484375 Z M 13.4375 0.03125 C 13.4375 -0.488281 13.453125 -0.910156 13.484375 -1.234375 C 13.523438 -1.554688 13.597656 -1.804688 13.703125 -1.984375 C 13.816406 -2.171875 13.984375 -2.285156 14.203125 -2.328125 C 14.429688 -2.378906 14.726562 -2.40625 15.09375 -2.40625 C 15.445312 -2.40625 15.722656 -2.472656 15.921875 -2.609375 C 16.128906 -2.753906 16.285156 -3.066406 16.390625 -3.546875 C 16.503906 -4.023438 16.578125 -4.710938 16.609375 -5.609375 C 16.648438 -6.503906 16.671875 -7.691406 16.671875 -9.171875 C 16.671875 -10.648438 16.691406 -11.835938 16.734375 -12.734375 C 16.785156 -13.640625 16.898438 -14.328125 17.078125 -14.796875 C 17.253906 -15.273438 17.5 -15.585938 17.8125 -15.734375 C 18.125 -15.878906 18.554688 -15.953125 19.109375 -15.953125 C 19.628906 -15.953125 20.050781 -15.847656 20.375 -15.640625 C 20.695312 -15.441406 20.945312 -15.019531 21.125 -14.375 C 21.3125 -13.726562 21.425781 -12.800781 21.46875 -11.59375 C 21.519531 -10.382812 21.546875 -8.78125 21.546875 -6.78125 C 21.546875 -4.75 21.503906 -3.125 21.421875 -1.90625 C 21.335938 -0.6875 21.148438 0.242188 20.859375 0.890625 C 20.578125 1.535156 20.164062 1.957031 19.625 2.15625 C 19.082031 2.363281 18.367188 2.46875 17.484375 2.46875 C 16.578125 2.46875 15.859375 2.441406 15.328125 2.390625 C 14.804688 2.347656 14.398438 2.238281 14.109375 2.0625 C 13.828125 1.882812 13.644531 1.640625 13.5625 1.328125 C 13.476562 1.015625 13.4375 0.582031 13.4375 0.03125 Z M 24.765625 -4.90625 C 24.210938 -5.8125 23.800781 -6.550781 23.53125 -7.125 C 23.257812 -7.707031 23.113281 -8.179688 23.09375 -8.546875 C 23.082031 -8.921875 23.1875 -9.238281 23.40625 -9.5 C 23.625 -9.757812 23.972656 -10.035156 24.453125 -10.328125 C 24.898438 -10.585938 25.285156 -10.753906 25.609375 -10.828125 C 25.929688 -10.898438 26.253906 -10.832031 26.578125 -10.625 C 26.898438 -10.425781 27.242188 -10.066406 27.609375 -9.546875 C 27.984375 -9.035156 28.445312 -8.328125 29 -7.421875 C 29.519531 -6.515625 29.921875 -5.765625 30.203125 -5.171875 C 30.492188 -4.585938 30.644531 -4.109375 30.65625 -3.734375 C 30.675781 -3.367188 30.570312 -3.054688 30.34375 -2.796875 C 30.113281 -2.535156 29.769531 -2.269531 29.3125 -2 C 28.84375 -1.738281 28.445312 -1.570312 28.125 -1.5 C 27.800781 -1.425781 27.476562 -1.488281 27.15625 -1.6875 C 26.832031 -1.894531 26.484375 -2.253906 26.109375 -2.765625 C 25.742188 -3.285156 25.296875 -4 24.765625 -4.90625 Z M 8.0625 -1.96875 C 7.632812 -2.226562 7.316406 -2.484375 7.109375 -2.734375 C 6.910156 -2.992188 6.828125 -3.3125 6.859375 -3.6875 C 6.898438 -4.070312 7.0625 -4.554688 7.34375 -5.140625 C 7.632812 -5.722656 8.054688 -6.492188 8.609375 -7.453125 C 9.148438 -8.390625 9.601562 -9.128906 9.96875 -9.671875 C 10.34375 -10.222656 10.6875 -10.601562 11 -10.8125 C 11.3125 -11.03125 11.625 -11.101562 11.9375 -11.03125 C 12.25 -10.96875 12.617188 -10.800781 13.046875 -10.53125 C 13.472656 -10.269531 13.78125 -10.015625 13.96875 -9.765625 C 14.164062 -9.515625 14.242188 -9.195312 14.203125 -8.8125 C 14.171875 -8.4375 14.015625 -7.945312 13.734375 -7.34375 C 13.460938 -6.75 13.054688 -5.984375 12.515625 -5.046875 C 11.960938 -4.117188 11.5 -3.382812 11.125 -2.84375 C 10.757812 -2.3125 10.421875 -1.9375 10.109375 -1.71875 C 9.796875 -1.5 9.484375 -1.421875 9.171875 -1.484375 C 8.859375 -1.546875 8.488281 -1.707031 8.0625 -1.96875 Z M 8.0625 -1.96875 "/></g></g></g><g fill="#f0b90b" fill-opacity="1"><g transform="translate(219.425704, 36.736521)"><g><path d="M 16.34375 -8.390625 C 16.34375 -10.179688 16.363281 -11.609375 16.40625 -12.671875 C 16.457031 -13.734375 16.566406 -14.550781 16.734375 -15.125 C 16.898438 -15.695312 17.144531 -16.070312 17.46875 -16.25 C 17.789062 -16.4375 18.21875 -16.53125 18.75 -16.53125 C 19.175781 -16.53125 19.523438 -16.46875 19.796875 -16.34375 C 20.078125 -16.226562 20.304688 -16 20.484375 -15.65625 C 20.660156 -15.320312 20.789062 -14.832031 20.875 -14.1875 C 20.957031 -13.539062 21.023438 -12.707031 21.078125 -11.6875 C 21.335938 -11.707031 21.632812 -11.722656 21.96875 -11.734375 C 22.300781 -11.742188 22.6875 -11.75 23.125 -11.75 C 23.976562 -11.75 24.660156 -11.722656 25.171875 -11.671875 C 25.691406 -11.628906 26.085938 -11.535156 26.359375 -11.390625 C 26.640625 -11.253906 26.820312 -11.035156 26.90625 -10.734375 C 26.988281 -10.429688 27.03125 -10.03125 27.03125 -9.53125 C 27.03125 -9.03125 26.988281 -8.632812 26.90625 -8.34375 C 26.820312 -8.0625 26.640625 -7.84375 26.359375 -7.6875 C 26.085938 -7.53125 25.691406 -7.425781 25.171875 -7.375 C 24.660156 -7.332031 23.976562 -7.3125 23.125 -7.3125 C 22.71875 -7.3125 22.34375 -7.3125 22 -7.3125 C 21.664062 -7.3125 21.367188 -7.335938 21.109375 -7.390625 C 21.085938 -6.097656 21.054688 -5.019531 21.015625 -4.15625 C 20.984375 -3.300781 20.910156 -2.597656 20.796875 -2.046875 C 22.628906 -2.015625 24.101562 -1.960938 25.21875 -1.890625 C 26.332031 -1.828125 27.191406 -1.71875 27.796875 -1.5625 C 28.398438 -1.40625 28.796875 -1.1875 28.984375 -0.90625 C 29.179688 -0.632812 29.28125 -0.285156 29.28125 0.140625 C 29.28125 0.640625 29.148438 1.03125 28.890625 1.3125 C 28.628906 1.601562 28.078125 1.828125 27.234375 1.984375 C 26.398438 2.140625 25.203125 2.238281 23.640625 2.28125 C 22.078125 2.332031 19.976562 2.359375 17.34375 2.359375 C 14.71875 2.359375 12.613281 2.332031 11.03125 2.28125 C 9.457031 2.238281 8.253906 2.140625 7.421875 1.984375 C 6.585938 1.828125 6.035156 1.601562 5.765625 1.3125 C 5.503906 1.03125 5.375 0.640625 5.375 0.140625 C 5.375 -0.171875 5.421875 -0.445312 5.515625 -0.6875 C 5.609375 -0.925781 5.800781 -1.128906 6.09375 -1.296875 C 6.382812 -1.460938 6.785156 -1.59375 7.296875 -1.6875 C 7.804688 -1.78125 8.476562 -1.863281 9.3125 -1.9375 C 9.269531 -2.414062 9.234375 -2.984375 9.203125 -3.640625 C 9.179688 -4.296875 9.171875 -5.101562 9.171875 -6.0625 C 9.171875 -7.394531 9.191406 -8.46875 9.234375 -9.28125 C 9.285156 -10.09375 9.394531 -10.710938 9.5625 -11.140625 C 9.738281 -11.578125 9.976562 -11.859375 10.28125 -11.984375 C 10.59375 -12.117188 11 -12.1875 11.5 -12.1875 C 12.03125 -12.1875 12.445312 -12.117188 12.75 -11.984375 C 13.0625 -11.859375 13.300781 -11.578125 13.46875 -11.140625 C 13.644531 -10.710938 13.753906 -10.09375 13.796875 -9.28125 C 13.847656 -8.46875 13.875 -7.394531 13.875 -6.0625 C 13.875 -5.15625 13.859375 -4.378906 13.828125 -3.734375 C 13.804688 -3.085938 13.773438 -2.523438 13.734375 -2.046875 C 14.160156 -2.066406 14.613281 -2.078125 15.09375 -2.078125 C 15.570312 -2.078125 16.082031 -2.078125 16.625 -2.078125 C 16.507812 -2.671875 16.429688 -3.46875 16.390625 -4.46875 C 16.359375 -5.476562 16.34375 -6.785156 16.34375 -8.390625 Z M 23.15625 -16.203125 C 21.582031 -17.179688 20.328125 -17.976562 19.390625 -18.59375 C 18.460938 -19.21875 17.757812 -19.757812 17.28125 -20.21875 L 14.265625 -17.671875 C 12.398438 -16.117188 10.898438 -14.898438 9.765625 -14.015625 C 8.628906 -13.128906 7.707031 -12.503906 7 -12.140625 C 6.300781 -11.785156 5.757812 -11.65625 5.375 -11.75 C 4.988281 -11.851562 4.628906 -12.109375 4.296875 -12.515625 C 3.941406 -12.921875 3.75 -13.316406 3.71875 -13.703125 C 3.695312 -14.097656 3.925781 -14.609375 4.40625 -15.234375 C 4.882812 -15.859375 5.660156 -16.644531 6.734375 -17.59375 C 7.816406 -18.550781 9.285156 -19.804688 11.140625 -21.359375 C 12.984375 -22.910156 14.476562 -24.128906 15.625 -25.015625 C 16.769531 -25.898438 17.6875 -26.519531 18.375 -26.875 C 19.070312 -27.238281 19.617188 -27.375 20.015625 -27.28125 C 20.410156 -27.1875 20.773438 -26.9375 21.109375 -26.53125 C 21.492188 -26.050781 21.660156 -25.582031 21.609375 -25.125 C 21.566406 -24.675781 21.1875 -24.046875 20.46875 -23.234375 C 21.09375 -22.941406 21.820312 -22.550781 22.65625 -22.0625 C 23.488281 -21.570312 24.503906 -20.957031 25.703125 -20.21875 C 27.328125 -19.1875 28.609375 -18.347656 29.546875 -17.703125 C 30.492188 -17.054688 31.179688 -16.5 31.609375 -16.03125 C 32.046875 -15.570312 32.265625 -15.160156 32.265625 -14.796875 C 32.265625 -14.441406 32.117188 -14.035156 31.828125 -13.578125 C 31.546875 -13.148438 31.242188 -12.851562 30.921875 -12.6875 C 30.597656 -12.519531 30.128906 -12.523438 29.515625 -12.703125 C 28.910156 -12.878906 28.101562 -13.25 27.09375 -13.8125 C 26.09375 -14.375 24.78125 -15.171875 23.15625 -16.203125 Z M 23.15625 -16.203125 "/></g></g></g><g fill="#f0b90b" fill-opacity="1"><g transform="translate(255.265416, 36.736521)"><g><path d="M 3.265625 0.640625 C 3.265625 -0.242188 3.316406 -0.796875 3.421875 -1.015625 C 3.523438 -1.242188 3.78125 -1.359375 4.1875 -1.359375 C 4.40625 -1.359375 4.578125 -1.550781 4.703125 -1.9375 C 4.835938 -2.320312 4.929688 -3.15625 4.984375 -4.4375 C 4.023438 -4.25 3.382812 -4.257812 3.0625 -4.46875 C 2.738281 -4.6875 2.492188 -5.15625 2.328125 -5.875 C 2.210938 -6.28125 2.160156 -6.625 2.171875 -6.90625 C 2.179688 -7.195312 2.28125 -7.453125 2.46875 -7.671875 C 2.664062 -7.890625 2.96875 -8.082031 3.375 -8.25 C 3.78125 -8.414062 4.335938 -8.601562 5.046875 -8.8125 L 5.046875 -11.859375 C 4.410156 -11.910156 3.898438 -11.988281 3.515625 -12.09375 C 3.128906 -12.207031 2.828125 -12.347656 2.609375 -12.515625 C 2.398438 -12.679688 2.257812 -12.890625 2.1875 -13.140625 C 2.113281 -13.390625 2.078125 -13.691406 2.078125 -14.046875 C 2.078125 -14.378906 2.113281 -14.664062 2.1875 -14.90625 C 2.257812 -15.144531 2.398438 -15.347656 2.609375 -15.515625 C 2.828125 -15.679688 3.132812 -15.816406 3.53125 -15.921875 C 3.925781 -16.035156 4.445312 -16.117188 5.09375 -16.171875 C 5.113281 -17.410156 5.1875 -18.390625 5.3125 -19.109375 C 4.800781 -18.984375 4.390625 -18.914062 4.078125 -18.90625 C 3.773438 -18.894531 3.519531 -18.941406 3.3125 -19.046875 C 3.113281 -19.160156 2.957031 -19.332031 2.84375 -19.5625 C 2.738281 -19.800781 2.648438 -20.101562 2.578125 -20.46875 C 2.460938 -20.914062 2.40625 -21.285156 2.40625 -21.578125 C 2.40625 -21.867188 2.507812 -22.117188 2.71875 -22.328125 C 2.9375 -22.546875 3.273438 -22.742188 3.734375 -22.921875 C 4.203125 -23.097656 4.832031 -23.296875 5.625 -23.515625 C 6.414062 -23.753906 7.050781 -23.921875 7.53125 -24.015625 C 8.007812 -24.109375 8.390625 -24.117188 8.671875 -24.046875 C 8.960938 -23.972656 9.175781 -23.8125 9.3125 -23.5625 C 9.457031 -23.3125 9.59375 -22.972656 9.71875 -22.546875 C 9.851562 -21.878906 9.867188 -21.375 9.765625 -21.03125 C 9.660156 -20.695312 9.304688 -20.398438 8.703125 -20.140625 C 8.828125 -19.765625 8.914062 -19.265625 8.96875 -18.640625 C 9.03125 -18.015625 9.085938 -17.238281 9.140625 -16.3125 L 10.9375 -16.3125 C 10.71875 -18.050781 10.578125 -19.457031 10.515625 -20.53125 C 10.460938 -21.613281 10.46875 -22.457031 10.53125 -23.0625 C 10.601562 -23.675781 10.753906 -24.101562 10.984375 -24.34375 C 11.210938 -24.582031 11.503906 -24.734375 11.859375 -24.796875 C 12.242188 -24.867188 12.578125 -24.832031 12.859375 -24.6875 C 13.148438 -24.550781 13.410156 -24.175781 13.640625 -23.5625 C 13.867188 -22.957031 14.085938 -22.066406 14.296875 -20.890625 C 14.515625 -19.722656 14.753906 -18.160156 15.015625 -16.203125 C 15.753906 -16.148438 16.359375 -16.078125 16.828125 -15.984375 C 17.296875 -15.890625 17.660156 -15.757812 17.921875 -15.59375 C 18.179688 -15.425781 18.351562 -15.21875 18.4375 -14.96875 C 18.519531 -14.71875 18.5625 -14.410156 18.5625 -14.046875 C 18.5625 -13.691406 18.523438 -13.390625 18.453125 -13.140625 C 18.390625 -12.890625 18.25 -12.679688 18.03125 -12.515625 C 17.8125 -12.347656 17.503906 -12.207031 17.109375 -12.09375 C 16.722656 -11.988281 16.207031 -11.910156 15.5625 -11.859375 C 15.625 -11.285156 15.6875 -10.753906 15.75 -10.265625 C 15.8125 -9.773438 15.878906 -9.304688 15.953125 -8.859375 C 16.523438 -9.328125 16.976562 -9.535156 17.3125 -9.484375 C 17.644531 -9.441406 18.015625 -9.21875 18.421875 -8.8125 C 18.710938 -8.507812 18.910156 -8.21875 19.015625 -7.9375 C 19.117188 -7.664062 19.109375 -7.347656 18.984375 -6.984375 C 18.867188 -6.628906 18.632812 -6.203125 18.28125 -5.703125 C 17.925781 -5.203125 17.410156 -4.566406 16.734375 -3.796875 C 16.878906 -3.109375 17.007812 -2.660156 17.125 -2.453125 C 17.25 -2.253906 17.40625 -2.175781 17.59375 -2.21875 C 17.925781 -2.289062 18.164062 -2.21875 18.3125 -2 C 18.457031 -1.789062 18.625 -1.269531 18.8125 -0.4375 C 18.914062 0 18.957031 0.351562 18.9375 0.625 C 18.925781 0.90625 18.835938 1.140625 18.671875 1.328125 C 18.503906 1.515625 18.234375 1.679688 17.859375 1.828125 C 17.492188 1.972656 16.988281 2.128906 16.34375 2.296875 C 15.988281 2.367188 15.664062 2.394531 15.375 2.375 C 15.09375 2.363281 14.832031 2.269531 14.59375 2.09375 C 14.351562 1.914062 14.128906 1.632812 13.921875 1.25 C 13.722656 0.875 13.539062 0.375 13.375 -0.25 C 13.0625 0.0078125 12.789062 0.195312 12.5625 0.3125 C 12.332031 0.4375 12.125 0.5 11.9375 0.5 C 11.75 0.5 11.5625 0.4375 11.375 0.3125 C 11.195312 0.195312 11 0.046875 10.78125 -0.140625 C 10.5 -0.429688 10.296875 -0.703125 10.171875 -0.953125 C 10.054688 -1.203125 10.050781 -1.5 10.15625 -1.84375 C 10.269531 -2.1875 10.507812 -2.613281 10.875 -3.125 C 11.25 -3.644531 11.769531 -4.300781 12.4375 -5.09375 C 12.320312 -5.851562 12.195312 -6.695312 12.0625 -7.625 C 11.925781 -8.5625 11.789062 -9.59375 11.65625 -10.71875 C 11.601562 -10.882812 11.570312 -11.050781 11.5625 -11.21875 C 11.550781 -11.382812 11.53125 -11.550781 11.5 -11.71875 L 9.25 -11.71875 L 9.25 -9.78125 C 9.894531 -9.832031 10.34375 -9.738281 10.59375 -9.5 C 10.84375 -9.257812 11.039062 -8.851562 11.1875 -8.28125 C 11.257812 -7.925781 11.296875 -7.613281 11.296875 -7.34375 C 11.296875 -7.082031 11.222656 -6.851562 11.078125 -6.65625 C 10.929688 -6.46875 10.707031 -6.285156 10.40625 -6.109375 C 10.113281 -5.929688 9.71875 -5.757812 9.21875 -5.59375 C 9.1875 -3.820312 9.125 -2.398438 9.03125 -1.328125 C 8.9375 -0.253906 8.773438 0.570312 8.546875 1.15625 C 8.316406 1.75 8.023438 2.140625 7.671875 2.328125 C 7.316406 2.515625 6.847656 2.609375 6.265625 2.609375 C 5.628906 2.609375 5.113281 2.582031 4.71875 2.53125 C 4.320312 2.488281 4.015625 2.398438 3.796875 2.265625 C 3.585938 2.140625 3.445312 1.945312 3.375 1.6875 C 3.300781 1.425781 3.265625 1.078125 3.265625 0.640625 Z M 24.125 -16.203125 C 23.757812 -16.628906 23.507812 -16.988281 23.375 -17.28125 L 23.375 -15.8125 C 23.375 -14.78125 23.425781 -13.953125 23.53125 -13.328125 C 23.632812 -12.710938 23.847656 -12.242188 24.171875 -11.921875 C 24.492188 -11.597656 24.96875 -11.378906 25.59375 -11.265625 C 26.21875 -11.160156 27.054688 -11.109375 28.109375 -11.109375 C 29.128906 -11.109375 29.945312 -11.03125 30.5625 -10.875 C 31.1875 -10.71875 31.660156 -10.394531 31.984375 -9.90625 C 32.304688 -9.414062 32.519531 -8.703125 32.625 -7.765625 C 32.738281 -6.835938 32.796875 -5.613281 32.796875 -4.09375 C 32.796875 -2.53125 32.753906 -1.28125 32.671875 -0.34375 C 32.585938 0.582031 32.398438 1.296875 32.109375 1.796875 C 31.828125 2.296875 31.421875 2.625 30.890625 2.78125 C 30.367188 2.9375 29.675781 3.015625 28.8125 3.015625 C 27.957031 3.015625 27.269531 2.988281 26.75 2.9375 C 26.238281 2.894531 25.835938 2.804688 25.546875 2.671875 C 25.265625 2.535156 25.082031 2.335938 25 2.078125 C 24.914062 1.816406 24.875 1.472656 24.875 1.046875 C 24.875 0.609375 24.890625 0.257812 24.921875 0 C 24.960938 -0.257812 25.046875 -0.453125 25.171875 -0.578125 C 25.304688 -0.710938 25.5 -0.804688 25.75 -0.859375 C 26 -0.910156 26.328125 -0.9375 26.734375 -0.9375 C 27.140625 -0.9375 27.460938 -0.960938 27.703125 -1.015625 C 27.941406 -1.078125 28.117188 -1.210938 28.234375 -1.421875 C 28.359375 -1.640625 28.4375 -1.953125 28.46875 -2.359375 C 28.507812 -2.765625 28.53125 -3.304688 28.53125 -3.984375 C 28.53125 -4.648438 28.472656 -5.179688 28.359375 -5.578125 C 28.253906 -5.972656 28.039062 -6.273438 27.71875 -6.484375 C 27.394531 -6.703125 26.925781 -6.835938 26.3125 -6.890625 C 25.707031 -6.953125 24.894531 -6.984375 23.875 -6.984375 C 22.863281 -6.984375 22.050781 -7.078125 21.4375 -7.265625 C 20.832031 -7.460938 20.367188 -7.867188 20.046875 -8.484375 C 19.734375 -9.109375 19.519531 -9.992188 19.40625 -11.140625 C 19.300781 -12.296875 19.25 -13.835938 19.25 -15.765625 C 19.25 -17.148438 19.273438 -18.328125 19.328125 -19.296875 C 19.390625 -20.265625 19.519531 -21.078125 19.71875 -21.734375 C 19.925781 -22.390625 20.207031 -22.910156 20.5625 -23.296875 C 20.925781 -23.679688 21.394531 -23.96875 21.96875 -24.15625 C 21.96875 -24.539062 22.125 -25.128906 22.4375 -25.921875 C 22.625 -26.441406 22.800781 -26.84375 22.96875 -27.125 C 23.144531 -27.414062 23.332031 -27.617188 23.53125 -27.734375 C 23.738281 -27.859375 23.984375 -27.90625 24.265625 -27.875 C 24.554688 -27.851562 24.914062 -27.773438 25.34375 -27.640625 C 25.769531 -27.492188 26.101562 -27.351562 26.34375 -27.21875 C 26.582031 -27.09375 26.742188 -26.925781 26.828125 -26.71875 C 26.910156 -26.519531 26.921875 -26.257812 26.859375 -25.9375 C 26.804688 -25.613281 26.679688 -25.203125 26.484375 -24.703125 L 26.421875 -24.546875 C 27.679688 -24.523438 28.691406 -24.4375 29.453125 -24.28125 C 30.222656 -24.125 30.8125 -23.816406 31.21875 -23.359375 C 31.625 -22.910156 31.890625 -22.285156 32.015625 -21.484375 C 32.148438 -20.679688 32.21875 -19.625 32.21875 -18.3125 C 32.21875 -16.945312 32.179688 -15.851562 32.109375 -15.03125 C 32.046875 -14.207031 31.90625 -13.582031 31.6875 -13.15625 C 31.46875 -12.726562 31.160156 -12.445312 30.765625 -12.3125 C 30.378906 -12.175781 29.863281 -12.109375 29.21875 -12.109375 C 28.539062 -12.109375 28 -12.125 27.59375 -12.15625 C 27.1875 -12.195312 26.878906 -12.273438 26.671875 -12.390625 C 26.472656 -12.515625 26.34375 -12.675781 26.28125 -12.875 C 26.226562 -13.082031 26.203125 -13.367188 26.203125 -13.734375 C 26.203125 -14.421875 26.253906 -14.851562 26.359375 -15.03125 C 26.472656 -15.21875 26.734375 -15.3125 27.140625 -15.3125 C 27.515625 -15.3125 27.757812 -15.460938 27.875 -15.765625 C 28 -16.078125 28.0625 -16.796875 28.0625 -17.921875 C 28.0625 -18.492188 28.035156 -18.945312 27.984375 -19.28125 C 27.941406 -19.613281 27.835938 -19.867188 27.671875 -20.046875 C 27.503906 -20.234375 27.265625 -20.351562 26.953125 -20.40625 C 26.640625 -20.46875 26.222656 -20.5 25.703125 -20.5 C 25.316406 -20.5 24.992188 -20.472656 24.734375 -20.421875 C 24.472656 -20.378906 24.25 -20.273438 24.0625 -20.109375 C 23.882812 -19.941406 23.75 -19.710938 23.65625 -19.421875 C 23.5625 -19.140625 23.488281 -18.757812 23.4375 -18.28125 C 23.507812 -18.394531 23.609375 -18.503906 23.734375 -18.609375 C 23.867188 -18.722656 24.035156 -18.851562 24.234375 -19 C 24.546875 -19.207031 24.804688 -19.363281 25.015625 -19.46875 C 25.234375 -19.582031 25.441406 -19.613281 25.640625 -19.5625 C 25.847656 -19.519531 26.050781 -19.394531 26.25 -19.1875 C 26.457031 -18.988281 26.703125 -18.695312 26.984375 -18.3125 C 27.273438 -17.957031 27.484375 -17.65625 27.609375 -17.40625 C 27.742188 -17.15625 27.8125 -16.929688 27.8125 -16.734375 C 27.8125 -16.546875 27.734375 -16.363281 27.578125 -16.1875 C 27.421875 -16.007812 27.191406 -15.800781 26.890625 -15.5625 C 26.578125 -15.320312 26.316406 -15.144531 26.109375 -15.03125 C 25.910156 -14.925781 25.707031 -14.894531 25.5 -14.9375 C 25.300781 -14.988281 25.097656 -15.113281 24.890625 -15.3125 C 24.691406 -15.519531 24.4375 -15.816406 24.125 -16.203125 Z M 18.890625 -3.875 C 18.890625 -4.300781 18.9375 -4.640625 19.03125 -4.890625 C 19.125 -5.140625 19.320312 -5.328125 19.625 -5.453125 C 19.925781 -5.585938 20.351562 -5.679688 20.90625 -5.734375 C 21.46875 -5.785156 22.21875 -5.8125 23.15625 -5.8125 C 24.082031 -5.8125 24.820312 -5.785156 25.375 -5.734375 C 25.925781 -5.679688 26.34375 -5.585938 26.625 -5.453125 C 26.914062 -5.328125 27.109375 -5.140625 27.203125 -4.890625 C 27.296875 -4.640625 27.34375 -4.300781 27.34375 -3.875 C 27.34375 -3.4375 27.296875 -3.09375 27.203125 -2.84375 C 27.109375 -2.59375 26.914062 -2.398438 26.625 -2.265625 C 26.34375 -2.140625 25.925781 -2.050781 25.375 -2 C 24.820312 -1.957031 24.082031 -1.9375 23.15625 -1.9375 C 22.21875 -1.9375 21.46875 -1.957031 20.90625 -2 C 20.351562 -2.050781 19.925781 -2.140625 19.625 -2.265625 C 19.320312 -2.398438 19.125 -2.59375 19.03125 -2.84375 C 18.9375 -3.09375 18.890625 -3.4375 18.890625 -3.875 Z M 14.953125 -20.390625 C 14.753906 -21.035156 14.617188 -21.554688 14.546875 -21.953125 C 14.472656 -22.347656 14.46875 -22.671875 14.53125 -22.921875 C 14.59375 -23.171875 14.722656 -23.367188 14.921875 -23.515625 C 15.128906 -23.660156 15.410156 -23.800781 15.765625 -23.9375 C 16.128906 -24.082031 16.429688 -24.160156 16.671875 -24.171875 C 16.910156 -24.179688 17.117188 -24.109375 17.296875 -23.953125 C 17.472656 -23.804688 17.632812 -23.550781 17.78125 -23.1875 C 17.925781 -22.832031 18.09375 -22.34375 18.28125 -21.71875 C 18.46875 -21.070312 18.597656 -20.550781 18.671875 -20.15625 C 18.742188 -19.769531 18.753906 -19.445312 18.703125 -19.1875 C 18.660156 -18.9375 18.535156 -18.738281 18.328125 -18.59375 C 18.128906 -18.457031 17.847656 -18.316406 17.484375 -18.171875 C 17.128906 -18.023438 16.828125 -17.941406 16.578125 -17.921875 C 16.328125 -17.898438 16.109375 -17.96875 15.921875 -18.125 C 15.742188 -18.28125 15.582031 -18.535156 15.4375 -18.890625 C 15.300781 -19.242188 15.140625 -19.742188 14.953125 -20.390625 Z M 14.953125 -20.390625 "/></g></g></g></svg>