<?xml version="1.0" encoding="UTF-8"?> <svg xmlns="http://www.w3.org/2000/svg" width="298" height="498" viewBox="0 0 298 498" fill="none"><path opacity="0.2" d="M812.33 433.943C812.33 433.943 784.006 193.694 758.845 189.822C733.684 185.949 748.392 432.932 710.692 410.028C672.991 387.122 614.356 134.207 603.564 147.446C592.773 160.685 582.531 318.302 569.354 311.307C556.177 304.314 531.998 151.609 528.432 156.304C524.866 160.999 490.842 413.727 465.669 374.812C440.497 335.901 405.596 127.196 388.871 159.937C372.146 192.678 348.06 285.26 328.336 257.67C308.611 230.08 270.519 81.5822 262.171 132.992C253.823 184.404 203.472 228.801 187.612 199.046C171.752 169.293 140.774 -23.6365 121.219 2.59954C101.664 28.8356 136.097 181.186 107.37 182.008C78.6424 182.831 61.7358 126.704 55.8725 76.9698C50.0092 27.2356 -9.77202 26.5885 2.35262 129.433C14.4773 232.277 46.8462 437.007 87.1015 411.748C127.357 386.49 83.0445 167.784 124.662 206.467C166.279 245.15 129.265 242.947 171.154 311.378C213.042 379.808 248.012 152.61 262.996 209.817C277.973 267.026 339.286 507.66 358.384 460.109C377.483 412.558 367.644 329.102 383.247 339.23C398.85 349.357 376.969 495.526 451.359 497.866C525.748 500.206 549.963 356.326 566.758 376.569C583.554 396.812 584.138 489.05 614.198 482.086C644.252 475.125 812.33 433.943 812.33 433.943Z" fill="url(#paint0_linear_7_2393)"></path><defs><linearGradient id="paint0_linear_7_2393" x1="1521.15" y1="264.783" x2="327.144" y2="-438.178" gradientUnits="userSpaceOnUse"><stop stop-color="white"></stop><stop offset="1" stop-color="white" stop-opacity="0"></stop></linearGradient></defs></svg> 