<?xml version="1.0" encoding="UTF-8"?> <svg xmlns="http://www.w3.org/2000/svg" width="100" height="27" viewBox="0 0 100 27" fill="none"><rect x="0.451456" y="0.451456" width="99.0971" height="26.0971" rx="8.57767" fill="#F0B90B" stroke="#F0B90B" stroke-width="0.902913"></rect><path d="M43.1457 9.99809C42.9198 9.99809 42.6938 9.96145 42.4679 9.94924C41.9 9.9126 41.3688 9.88818 40.6299 9.89428L40.6421 10.0958C40.7337 11.4758 40.8192 12.8498 40.8619 14.2237C40.8803 14.8038 40.8986 15.3778 40.8986 15.9579C40.8986 16.5075 40.9352 17.0998 40.7887 17.4662C40.6726 17.7471 40.4467 17.9303 40.1597 17.9303C39.6346 17.9303 39.5552 17.6433 39.5552 17.0265C39.5552 16.5258 39.604 16.0251 39.5979 15.3656C39.5796 13.6253 39.4636 11.8789 39.3537 10.1446L39.3476 9.96145H39.1705C38.627 9.94924 38.0896 9.94313 37.5523 9.9065C37.2958 9.89428 37.0332 9.87596 36.7829 9.83933C36.4409 9.79048 36.2089 9.5279 36.2089 9.18594C36.2089 8.70354 36.5692 8.53867 36.9661 8.53867C37.1798 8.53867 37.3874 8.58141 37.6011 8.59973C38.1751 8.65469 38.7552 8.67911 39.3292 8.67911C39.9338 8.67911 40.5322 8.61194 41.1367 8.61194C41.8695 8.61194 42.5961 8.67301 43.3289 8.67301C43.6831 8.67301 43.9945 8.97833 43.9945 9.3325C43.9945 9.83322 43.6892 9.99809 43.1457 9.99809ZM52.3541 11.5491C52.3053 11.8178 52.232 12.0926 52.1709 12.3552C52.0488 12.862 51.9206 13.3627 51.7801 13.8573C51.487 14.9198 51.1695 15.9884 50.7115 16.9716C50.6627 17.0815 50.6016 17.2036 50.5405 17.3257C50.394 17.6189 50.1742 17.9669 49.8261 17.9669C49.5941 17.9669 49.417 17.8448 49.3009 17.6189C49.246 17.5212 49.2277 17.4173 49.1788 17.3196C49.075 17.0265 48.9834 16.7334 48.8918 16.4403C48.6292 15.6099 48.4033 14.7672 48.1835 13.9245L48.0247 13.3139L47.8171 13.9062C47.5179 14.7611 47.2004 15.616 46.8584 16.4586C46.7546 16.7273 46.6447 16.996 46.5287 17.2586C46.4187 17.5212 46.3149 17.9242 45.9791 17.9242C45.7287 17.9242 45.5089 17.7532 45.3623 17.5028C45.1608 17.1487 45.0631 16.7395 44.9471 16.3732C44.4891 14.9259 44.1166 13.4543 43.7747 11.9766C43.738 11.8117 43.7075 11.6651 43.7075 11.5125C43.7075 11.1888 43.848 11.0301 44.1777 10.914C44.538 10.7919 44.8005 11.0667 44.8738 11.3842C44.9898 11.8056 45.0509 12.2269 45.1425 12.636C45.3379 13.4909 45.5577 14.3397 45.7959 15.1824L45.9547 15.7564L46.1562 15.1946C46.5225 14.1932 46.8706 13.1856 47.1942 12.172C47.3103 11.8056 47.408 11.1522 47.7133 10.9018C47.8537 10.8041 48.0125 10.7858 48.153 10.7858C48.385 10.7858 48.5193 10.8835 48.6048 11.0545C48.7758 11.3903 48.8735 12.0498 48.9834 12.4773C49.2155 13.436 49.4719 14.3947 49.7528 15.3351L49.936 15.9335L50.1192 15.3351C50.4184 14.3703 50.7054 13.3932 50.9497 12.4101C51.0596 11.9949 51.1145 11.6468 51.1939 11.2988C51.2672 10.9995 51.4809 10.8163 51.774 10.8163C52.0977 10.8163 52.3664 11.0911 52.3664 11.4209C52.3664 11.4636 52.3602 11.5064 52.3541 11.5491ZM54.3021 8.48982C54.7478 8.48982 55.1142 8.82567 55.1142 9.25922C55.1142 9.68667 54.7417 10.0164 54.3021 10.0164C53.8319 10.0164 53.4777 9.70499 53.4777 9.25922C53.4777 8.83177 53.8624 8.48982 54.3021 8.48982ZM53.551 17.2769C53.551 17.0265 53.5632 16.7762 53.5693 16.5197C53.5815 15.561 53.5754 14.645 53.5754 13.723C53.5754 12.9597 53.5998 12.1842 53.6487 11.4148C53.6731 11.0728 53.8624 10.8652 54.1738 10.8652C54.5463 10.8652 54.8272 11.0972 54.8272 11.4331V11.4758C54.7967 12.2025 54.7356 12.923 54.7356 13.6497C54.7356 14.2237 54.7478 14.7977 54.7478 15.3717C54.7478 16.2083 54.7662 16.6357 54.7662 17.0632C54.7662 17.6127 54.6379 17.8814 54.1494 17.8814C53.8258 17.8814 53.551 17.6066 53.551 17.2769ZM56.9278 9.57675C56.9278 9.55233 56.9217 9.5279 56.9217 9.50348C56.9217 9.16152 57.1965 8.90505 57.5507 8.90505C57.801 8.90505 57.9232 9.02107 58.0025 9.18594C58.0941 9.37524 58.1247 9.63171 58.143 9.89428C58.1613 10.1874 58.1613 10.4805 58.1552 10.7736V10.9873C58.4483 10.9629 58.5338 10.9568 58.6132 10.9568C58.9124 10.9568 59.1811 10.969 59.3765 11.0484C59.5413 11.1217 59.6635 11.2438 59.6635 11.5491C59.6635 11.885 59.3948 12.1353 59.0467 12.1353C58.8269 12.1353 58.6071 12.0865 58.3872 12.062L58.1796 12.0437L58.1735 12.2575C58.1613 13.0085 58.143 13.7657 58.143 14.5168V15.042C58.143 15.2801 58.1186 15.5244 58.1186 15.7625C58.1186 16.0007 58.1247 16.2083 58.2102 16.3854C58.2895 16.5197 58.4178 16.5869 58.5888 16.5869C58.7536 16.5869 58.888 16.5258 59.0345 16.5258C59.3826 16.5258 59.639 16.8006 59.639 17.1548C59.639 17.4173 59.5047 17.57 59.2727 17.6738C58.7719 17.9059 57.9598 17.8692 57.5323 17.5273C57.0072 17.1059 56.9522 16.3487 56.9522 15.6099C56.9522 15.4144 56.9583 15.219 56.9583 15.0297C56.9583 14.126 56.9706 13.2223 56.9889 12.3185L56.995 12.1353L56.8118 12.1231C56.5248 12.0987 56.2561 12.1109 55.9996 12.0193C55.8226 11.946 55.6943 11.83 55.6943 11.5125C55.6943 11.1827 55.9264 10.9507 56.2561 10.9507C56.4332 10.9507 56.6103 10.9629 57.0011 10.9934L56.995 10.7736C56.9889 10.3767 56.9645 9.97367 56.9278 9.57675ZM61.3733 9.57675C61.3733 9.55233 61.3672 9.5279 61.3672 9.50348C61.3672 9.16152 61.6419 8.90505 61.9961 8.90505C62.2465 8.90505 62.3686 9.02107 62.448 9.18594C62.5396 9.37524 62.5701 9.63171 62.5884 9.89428C62.6067 10.1874 62.6067 10.4805 62.6006 10.7736V10.9873C62.8937 10.9629 62.9792 10.9568 63.0586 10.9568C63.3578 10.9568 63.6265 10.969 63.8219 11.0484C63.9868 11.1217 64.1089 11.2438 64.1089 11.5491C64.1089 11.885 63.8402 12.1353 63.4922 12.1353C63.2723 12.1353 63.0525 12.0865 62.8327 12.062L62.6251 12.0437L62.619 12.2575C62.6067 13.0085 62.5884 13.7657 62.5884 14.5168V15.042C62.5884 15.2801 62.564 15.5244 62.564 15.7625C62.564 16.0007 62.5701 16.2083 62.6556 16.3854C62.735 16.5197 62.8632 16.5869 63.0342 16.5869C63.1991 16.5869 63.3334 16.5258 63.48 16.5258C63.828 16.5258 64.0845 16.8006 64.0845 17.1548C64.0845 17.4173 63.9502 17.57 63.7181 17.6738C63.2174 17.9059 62.4052 17.8692 61.9778 17.5273C61.4526 17.1059 61.3977 16.3487 61.3977 15.6099C61.3977 15.4144 61.4038 15.219 61.4038 15.0297C61.4038 14.126 61.416 13.2223 61.4343 12.3185L61.4404 12.1353L61.2572 12.1231C60.9702 12.0987 60.7016 12.1109 60.4451 12.0193C60.268 11.946 60.1398 11.83 60.1398 11.5125C60.1398 11.1827 60.3718 10.9507 60.7016 10.9507C60.8786 10.9507 61.0557 10.9629 61.4465 10.9934L61.4404 10.7736C61.4343 10.3767 61.4099 9.97367 61.3733 9.57675ZM65.9286 17.399C64.9638 16.8189 64.5425 15.8236 64.5425 14.6695C64.5425 13.2345 65.0615 11.8972 66.3133 11.2194C66.698 11.0179 67.1377 10.8835 67.5651 10.8835C68.6765 10.8835 69.8428 11.5491 70.3863 12.5261C70.5695 12.862 70.7099 13.2833 70.7099 13.6436C70.7099 14.5779 70.0321 14.6084 69.2749 14.6695L68.3529 14.7244C67.5468 14.7611 66.753 14.8527 65.9469 14.8954L65.7393 14.9076L65.7699 15.1213C65.8492 15.6465 66.0569 16.0739 66.5393 16.367C66.8812 16.5686 67.3087 16.6785 67.6995 16.6785C68.3467 16.6785 68.7864 16.4098 69.1345 16.1655C69.4093 15.9701 69.6779 15.7198 70.0077 15.7198C70.2886 15.7198 70.5084 15.964 70.5084 16.2632C70.5084 16.4098 70.4596 16.538 70.3741 16.6724C69.91 17.3441 68.536 17.8936 67.6995 17.8936C67.0766 17.8936 66.4721 17.7166 65.9286 17.399ZM66.4354 12.6055C66.0691 12.9658 65.9592 13.3383 65.8248 13.7413C66.5698 13.723 66.6675 13.7108 67.6323 13.6314C68.2368 13.5825 68.5116 13.5947 69.5497 13.5276C69.4459 13.2894 69.3177 12.8925 68.7681 12.5017C68.4139 12.2452 67.9804 12.0865 67.5651 12.0865C67.1316 12.0865 66.7163 12.3307 66.4354 12.6055ZM75.4118 12.1475C75.3019 12.233 75.1309 12.2697 74.8989 12.3002C74.6485 12.3429 74.4165 12.3674 74.2028 12.4651C73.7753 12.6727 73.2807 12.9963 73.0975 13.5398C73.0059 13.7963 73.0181 14.0588 73.0181 14.297C73.0181 14.6267 73.0242 14.9504 73.0242 15.274C73.0242 15.8419 73.012 16.4037 73.012 16.9716C73.012 17.3624 72.9998 17.6127 72.7678 17.802C72.6578 17.8875 72.5418 17.9303 72.4136 17.9303C72.0838 17.9303 71.8091 17.6494 71.8091 17.3074C71.8274 16.6602 71.8396 15.9946 71.8396 15.3473C71.8396 14.5962 71.8335 13.839 71.8213 13.0818C71.8091 12.5078 71.6869 11.6835 71.8945 11.1827C71.9739 10.9934 72.1083 10.8591 72.4014 10.8591C72.7433 10.8591 72.9876 11.1705 72.951 11.543L72.9021 12.001L73.2563 11.714C73.7448 11.3232 74.3432 11.0484 74.9477 11.0484C75.3996 11.0484 75.6011 11.201 75.6011 11.6407C75.6011 11.8483 75.534 12.0559 75.4118 12.1475Z" fill="#0F0F0F"></path><path d="M27.7611 12.3875L30.7393 9H30.0335L27.4476 11.9413L25.3822 9H23L26.1233 13.4477L23 17H23.7058L26.4366 13.8939L28.6178 17H31L27.7609 12.3875H27.7611ZM26.7944 13.4869L26.478 13.044L23.9601 9.51987H25.0441L27.0761 12.364L27.3925 12.8069L30.0339 16.5038H28.9498L26.7944 13.4871V13.4869Z" fill="#0F0F0F"></path></svg> 